<svg width="913" height="674" viewBox="0 0 913 674" fill="none" xmlns="http://www.w3.org/2000/svg">
<path d="M22.0859 120.84L5.32812 39.6289H15.125L26.9844 105.887L39.875 44.7852L51.2188 45.5586L64.1094 102.793L80.8672 37.0508L89.6328 37.8242L68.2344 123.418H59.2109L45.0312 60.2539L31.8828 120.84H22.0859ZM97.1094 95.5742C97.1094 90.8477 97.7969 86.8945 99.1719 83.7148C100.547 80.4492 102.266 77.8711 104.328 75.9805C106.477 74.0039 108.84 72.6289 111.418 71.8555C113.996 70.9961 116.488 70.5664 118.895 70.5664C122.332 70.5664 125.426 71.082 128.176 72.1133C130.926 73.0586 133.246 74.6914 135.137 77.0117C137.113 79.2461 138.617 82.2539 139.648 86.0352C140.68 89.8164 141.195 94.457 141.195 99.957L105.359 103.438C105.617 105.844 106.262 107.906 107.293 109.625C108.41 111.258 109.785 112.59 111.418 113.621C113.051 114.652 114.812 115.383 116.703 115.812C118.594 116.242 120.527 116.457 122.504 116.457C125.77 116.457 128.906 115.984 131.914 115.039C134.922 114.094 137.156 112.934 138.617 111.559L140.938 117.746C140.336 118.605 139.434 119.465 138.23 120.324C137.027 121.184 135.609 121.914 133.977 122.516C132.344 123.203 130.496 123.719 128.434 124.062C126.457 124.492 124.395 124.707 122.246 124.707C119.238 124.707 116.23 124.234 113.223 123.289C110.215 122.344 107.508 120.754 105.102 118.52C102.695 116.285 100.762 113.32 99.3008 109.625C97.8398 105.844 97.1094 101.16 97.1094 95.5742ZM104.586 95.832L132.945 92.7383C132.945 88.5273 131.828 85.1758 129.594 82.6836C127.359 80.1055 123.75 78.8164 118.766 78.8164C116.359 78.9023 114.254 79.418 112.449 80.3633C110.73 81.3086 109.27 82.5117 108.066 83.9727C106.863 85.3477 105.961 86.9375 105.359 88.7422C104.758 90.5469 104.457 92.3945 104.457 94.2852C104.457 94.9727 104.5 95.4883 104.586 95.832ZM229.109 83.9727L237.359 119.035L229.625 121.871L224.984 99.957C224.383 102.363 223.438 104.855 222.148 107.434C220.945 110.012 219.398 112.375 217.508 114.523C215.703 116.586 213.512 118.305 210.934 119.68C208.441 120.969 205.605 121.613 202.426 121.613C196.754 121.613 192.414 119.809 189.406 116.199C186.484 112.504 185.023 107.434 185.023 100.988C185.023 97.293 185.582 93.4688 186.699 89.5156C187.816 85.4766 189.492 81.8242 191.727 78.5586C193.961 75.293 196.754 72.5859 200.105 70.4375C203.543 68.2891 207.539 67.2148 212.094 67.2148C214.758 67.2148 217.078 67.8164 219.055 69.0195C221.117 70.1367 222.836 71.5547 224.211 73.2734C225.586 74.9922 226.66 76.8398 227.434 78.8164C228.207 80.707 228.766 82.4258 229.109 83.9727ZM213.383 76.4961C212.781 76.3242 212.18 76.1953 211.578 76.1094C211.062 76.0234 210.504 75.9805 209.902 75.9805C207.238 75.9805 204.832 76.7969 202.684 78.4297C200.621 79.9766 198.859 81.9531 197.398 84.3594C196.023 86.7656 194.949 89.3867 194.176 92.2227C193.488 95.0586 193.145 97.6797 193.145 100.086C193.145 103.867 193.961 106.918 195.594 109.238C197.227 111.559 199.805 112.719 203.328 112.719C205.734 112.719 207.969 111.945 210.031 110.398C212.094 108.766 213.855 106.746 215.316 104.34C216.777 101.934 217.895 99.3125 218.668 96.4766C219.527 93.5547 219.957 90.8477 219.957 88.3555C219.957 85.6055 219.398 83.1992 218.281 81.1367C217.25 78.9883 215.617 77.4414 213.383 76.4961ZM253.344 124.965L248.961 68.2461L256.953 67.2148L258.758 92.2227L286.344 73.6602L289.953 80.8789L260.047 102.535V124.191L253.344 124.965ZM295.625 95.5742C295.625 90.8477 296.312 86.8945 297.688 83.7148C299.062 80.4492 300.781 77.8711 302.844 75.9805C304.992 74.0039 307.355 72.6289 309.934 71.8555C312.512 70.9961 315.004 70.5664 317.41 70.5664C320.848 70.5664 323.941 71.082 326.691 72.1133C329.441 73.0586 331.762 74.6914 333.652 77.0117C335.629 79.2461 337.133 82.2539 338.164 86.0352C339.195 89.8164 339.711 94.457 339.711 99.957L303.875 103.438C304.133 105.844 304.777 107.906 305.809 109.625C306.926 111.258 308.301 112.59 309.934 113.621C311.566 114.652 313.328 115.383 315.219 115.812C317.109 116.242 319.043 116.457 321.02 116.457C324.285 116.457 327.422 115.984 330.43 115.039C333.438 114.094 335.672 112.934 337.133 111.559L339.453 117.746C338.852 118.605 337.949 119.465 336.746 120.324C335.543 121.184 334.125 121.914 332.492 122.516C330.859 123.203 329.012 123.719 326.949 124.062C324.973 124.492 322.91 124.707 320.762 124.707C317.754 124.707 314.746 124.234 311.738 123.289C308.73 122.344 306.023 120.754 303.617 118.52C301.211 116.285 299.277 113.32 297.816 109.625C296.355 105.844 295.625 101.16 295.625 95.5742ZM303.102 95.832L331.461 92.7383C331.461 88.5273 330.344 85.1758 328.109 82.6836C325.875 80.1055 322.266 78.8164 317.281 78.8164C314.875 78.9023 312.77 79.418 310.965 80.3633C309.246 81.3086 307.785 82.5117 306.582 83.9727C305.379 85.3477 304.477 86.9375 303.875 88.7422C303.273 90.5469 302.973 92.3945 302.973 94.2852C302.973 94.9727 303.016 95.4883 303.102 95.832ZM425.047 74.9492L422.727 83.1992C420.234 80.9648 417.57 79.332 414.734 78.3008C411.898 77.1836 409.105 76.625 406.355 76.625C404.035 76.625 401.801 77.0547 399.652 77.9141C397.59 78.6875 395.785 79.8906 394.238 81.5234C392.691 83.1562 391.445 85.1758 390.5 87.582C389.641 89.9883 389.211 92.7383 389.211 95.832C389.211 99.5273 389.684 102.621 390.629 105.113C391.66 107.605 392.992 109.625 394.625 111.172C396.258 112.719 398.105 113.836 400.168 114.523C402.316 115.211 404.508 115.555 406.742 115.555C408.719 115.469 410.652 115.082 412.543 114.395C414.52 113.621 416.281 112.59 417.828 111.301C419.375 109.926 420.664 108.336 421.695 106.531C422.727 104.641 423.328 102.535 423.5 100.215L430.719 103.824C430.547 107.262 429.73 110.27 428.27 112.848C426.895 115.426 425.09 117.574 422.855 119.293C420.707 121.012 418.215 122.301 415.379 123.16C412.543 124.02 409.621 124.449 406.613 124.449C403.434 124.449 400.297 123.848 397.203 122.645C394.109 121.527 391.359 119.809 388.953 117.488C386.547 115.168 384.613 112.246 383.152 108.723C381.691 105.113 380.961 100.902 380.961 96.0898C380.961 92.0508 381.562 88.3555 382.766 85.0039C383.969 81.5664 385.645 78.6445 387.793 76.2383C389.941 73.7461 392.477 71.8125 395.398 70.4375C398.406 69.0625 401.672 68.375 405.195 68.375C408.203 68.375 411.34 68.9336 414.605 70.0508C417.957 71.082 421.438 72.7148 425.047 74.9492ZM437.938 95.5742C437.938 90.8477 438.625 86.8945 440 83.7148C441.375 80.4492 443.094 77.8711 445.156 75.9805C447.305 74.0039 449.668 72.6289 452.246 71.8555C454.824 70.9961 457.316 70.5664 459.723 70.5664C463.16 70.5664 466.254 71.082 469.004 72.1133C471.754 73.0586 474.074 74.6914 475.965 77.0117C477.941 79.2461 479.445 82.2539 480.477 86.0352C481.508 89.8164 482.023 94.457 482.023 99.957L446.188 103.438C446.445 105.844 447.09 107.906 448.121 109.625C449.238 111.258 450.613 112.59 452.246 113.621C453.879 114.652 455.641 115.383 457.531 115.812C459.422 116.242 461.355 116.457 463.332 116.457C466.598 116.457 469.734 115.984 472.742 115.039C475.75 114.094 477.984 112.934 479.445 111.559L481.766 117.746C481.164 118.605 480.262 119.465 479.059 120.324C477.855 121.184 476.438 121.914 474.805 122.516C473.172 123.203 471.324 123.719 469.262 124.062C467.285 124.492 465.223 124.707 463.074 124.707C460.066 124.707 457.059 124.234 454.051 123.289C451.043 122.344 448.336 120.754 445.93 118.52C443.523 116.285 441.59 113.32 440.129 109.625C438.668 105.844 437.938 101.16 437.938 95.5742ZM445.414 95.832L473.773 92.7383C473.773 88.5273 472.656 85.1758 470.422 82.6836C468.188 80.1055 464.578 78.8164 459.594 78.8164C457.188 78.9023 455.082 79.418 453.277 80.3633C451.559 81.3086 450.098 82.5117 448.895 83.9727C447.691 85.3477 446.789 86.9375 446.188 88.7422C445.586 90.5469 445.285 92.3945 445.285 94.2852C445.285 94.9727 445.328 95.4883 445.414 95.832ZM491.305 115.168V37.3086L499.812 36.793V111.816L508.32 113.879L507.547 123.16L493.367 120.324L491.305 115.168ZM516.57 95.5742C516.57 90.8477 517.258 86.8945 518.633 83.7148C520.008 80.4492 521.727 77.8711 523.789 75.9805C525.938 74.0039 528.301 72.6289 530.879 71.8555C533.457 70.9961 535.949 70.5664 538.355 70.5664C541.793 70.5664 544.887 71.082 547.637 72.1133C550.387 73.0586 552.707 74.6914 554.598 77.0117C556.574 79.2461 558.078 82.2539 559.109 86.0352C560.141 89.8164 560.656 94.457 560.656 99.957L524.82 103.438C525.078 105.844 525.723 107.906 526.754 109.625C527.871 111.258 529.246 112.59 530.879 113.621C532.512 114.652 534.273 115.383 536.164 115.812C538.055 116.242 539.988 116.457 541.965 116.457C545.23 116.457 548.367 115.984 551.375 115.039C554.383 114.094 556.617 112.934 558.078 111.559L560.398 117.746C559.797 118.605 558.895 119.465 557.691 120.324C556.488 121.184 555.07 121.914 553.438 122.516C551.805 123.203 549.957 123.719 547.895 124.062C545.918 124.492 543.855 124.707 541.707 124.707C538.699 124.707 535.691 124.234 532.684 123.289C529.676 122.344 526.969 120.754 524.562 118.52C522.156 116.285 520.223 113.32 518.762 109.625C517.301 105.844 516.57 101.16 516.57 95.5742ZM524.047 95.832L552.406 92.7383C552.406 88.5273 551.289 85.1758 549.055 82.6836C546.82 80.1055 543.211 78.8164 538.227 78.8164C535.82 78.9023 533.715 79.418 531.91 80.3633C530.191 81.3086 528.73 82.5117 527.527 83.9727C526.324 85.3477 525.422 86.9375 524.82 88.7422C524.219 90.5469 523.918 92.3945 523.918 94.2852C523.918 94.9727 523.961 95.4883 524.047 95.832ZM568.648 117.23V36.2773H576.641L576.383 73.1445C580.25 70.9961 584.633 69.9219 589.531 69.9219C592.625 69.9219 595.676 70.4375 598.684 71.4688C601.777 72.4141 604.527 73.9609 606.934 76.1094C609.34 78.2578 611.273 81.0508 612.734 84.4883C614.281 87.8398 615.055 91.9219 615.055 96.7344C615.055 100.086 614.582 103.395 613.637 106.66C612.777 109.926 611.316 112.848 609.254 115.426C607.191 118.004 604.441 120.066 601.004 121.613C597.566 123.16 593.355 123.934 588.371 123.934C585.965 123.934 583.387 123.719 580.637 123.289C577.887 122.945 574.922 122.301 571.742 121.355L568.648 117.23ZM576.898 84.4883V112.332C580.508 113.535 584.117 114.137 587.727 114.137C590.219 114.137 592.582 113.836 594.816 113.234C597.051 112.547 599.027 111.516 600.746 110.141C602.465 108.766 603.84 107.004 604.871 104.855C605.902 102.621 606.418 100 606.418 96.9922C606.418 94.0703 605.945 91.4922 605 89.2578C604.055 87.0234 602.809 85.1758 601.262 83.7148C599.715 82.2539 597.953 81.1367 595.977 80.3633C594 79.5898 591.98 79.2031 589.918 79.2031C587.598 79.2031 585.277 79.6758 582.957 80.6211C580.723 81.4805 578.703 82.7695 576.898 84.4883ZM628.203 124.965L623.82 68.2461L631.812 67.2148L633.617 92.2227L661.203 73.6602L664.812 80.8789L634.906 102.535V124.191L628.203 124.965ZM716.891 83.9727L725.141 119.035L717.406 121.871L712.766 99.957C712.164 102.363 711.219 104.855 709.93 107.434C708.727 110.012 707.18 112.375 705.289 114.523C703.484 116.586 701.293 118.305 698.715 119.68C696.223 120.969 693.387 121.613 690.207 121.613C684.535 121.613 680.195 119.809 677.188 116.199C674.266 112.504 672.805 107.434 672.805 100.988C672.805 97.293 673.363 93.4688 674.48 89.5156C675.598 85.4766 677.273 81.8242 679.508 78.5586C681.742 75.293 684.535 72.5859 687.887 70.4375C691.324 68.2891 695.32 67.2148 699.875 67.2148C702.539 67.2148 704.859 67.8164 706.836 69.0195C708.898 70.1367 710.617 71.5547 711.992 73.2734C713.367 74.9922 714.441 76.8398 715.215 78.8164C715.988 80.707 716.547 82.4258 716.891 83.9727ZM701.164 76.4961C700.562 76.3242 699.961 76.1953 699.359 76.1094C698.844 76.0234 698.285 75.9805 697.684 75.9805C695.02 75.9805 692.613 76.7969 690.465 78.4297C688.402 79.9766 686.641 81.9531 685.18 84.3594C683.805 86.7656 682.73 89.3867 681.957 92.2227C681.27 95.0586 680.926 97.6797 680.926 100.086C680.926 103.867 681.742 106.918 683.375 109.238C685.008 111.559 687.586 112.719 691.109 112.719C693.516 112.719 695.75 111.945 697.812 110.398C699.875 108.766 701.637 106.746 703.098 104.34C704.559 101.934 705.676 99.3125 706.449 96.4766C707.309 93.5547 707.738 90.8477 707.738 88.3555C707.738 85.6055 707.18 83.1992 706.062 81.1367C705.031 78.9883 703.398 77.4414 701.164 76.4961ZM745.25 119.293V80.2344H732.102L732.875 70.8242H747.055V44.5273H755.82V71.3398H776.961V80.6211H754.918V114.137L774.383 110.527L775.672 119.293L749.891 124.707L745.25 119.293ZM786.5 122.387V75.207H795.523V122.902L786.5 122.387ZM798.359 64.6367L789.336 67.2148L781.086 47.6211L790.109 45.3008L798.359 64.6367ZM841.93 80.1055H816.922V121.355L810.477 122.129V66.6992L816.664 65.4102V71.8555L846.57 70.0508L850.438 77.7852L854.305 119.809L846.055 122.129L841.93 80.1055ZM868.355 102.277C868.957 104.941 870.117 106.832 871.836 107.949C873.555 109.066 875.488 109.625 877.637 109.625C879.957 109.625 882.406 109.066 884.984 107.949C887.648 106.832 890.098 105.371 892.332 103.566C894.566 101.676 896.414 99.5273 897.875 97.1211C899.422 94.7148 900.195 92.2227 900.195 89.6445C900.195 86.5508 899.207 83.9727 897.23 81.9102C895.34 79.8477 892.934 78.8164 890.012 78.8164C887.691 78.9023 885.242 79.5039 882.664 80.6211C880.086 81.6523 877.68 83.0703 875.445 84.875C873.297 86.6797 871.492 88.7852 870.031 91.1914C868.57 93.5117 867.84 96.0469 867.84 98.7969C867.84 100.086 868.012 101.246 868.355 102.277ZM899.035 146.363H859.332V136.309H894.395L899.809 131.668L899.293 108.723C897.059 111.816 893.965 114.223 890.012 115.941C886.059 117.574 882.02 118.391 877.895 118.391C872.566 118.391 868.141 116.715 864.617 113.363C861.18 109.926 859.461 104.941 859.461 98.4102C859.461 94.457 860.32 90.8047 862.039 87.4531C863.844 84.0156 866.207 81.0938 869.129 78.6875C872.051 76.1953 875.316 74.2617 878.926 72.8867C882.621 71.5117 886.402 70.8242 890.27 70.8242C894.395 70.8242 898.09 71.8555 901.355 73.918C904.707 75.8945 906.941 79.0742 908.059 83.457V136.566L899.035 146.363ZM177.805 284.293H147.125V277.074H157.18V212.621H142.742V205.66L171.102 203.855V211.332L161.82 212.105V276.559H177.805V284.293ZM222.922 245.105H197.914V286.355L191.469 287.129V231.699L197.656 230.41V236.855L227.562 235.051L231.43 242.785L235.297 284.809L227.047 287.129L222.922 245.105ZM252.828 284.293V245.234H239.68L240.453 235.824H254.633V209.527H263.398V236.34H284.539V245.621H262.496V279.137L281.961 275.527L283.25 284.293L257.469 289.707L252.828 284.293ZM290.727 260.574C290.727 255.848 291.414 251.895 292.789 248.715C294.164 245.449 295.883 242.871 297.945 240.98C300.094 239.004 302.457 237.629 305.035 236.855C307.613 235.996 310.105 235.566 312.512 235.566C315.949 235.566 319.043 236.082 321.793 237.113C324.543 238.059 326.863 239.691 328.754 242.012C330.73 244.246 332.234 247.254 333.266 251.035C334.297 254.816 334.812 259.457 334.812 264.957L298.977 268.438C299.234 270.844 299.879 272.906 300.91 274.625C302.027 276.258 303.402 277.59 305.035 278.621C306.668 279.652 308.43 280.383 310.32 280.812C312.211 281.242 314.145 281.457 316.121 281.457C319.387 281.457 322.523 280.984 325.531 280.039C328.539 279.094 330.773 277.934 332.234 276.559L334.555 282.746C333.953 283.605 333.051 284.465 331.848 285.324C330.645 286.184 329.227 286.914 327.594 287.516C325.961 288.203 324.113 288.719 322.051 289.062C320.074 289.492 318.012 289.707 315.863 289.707C312.855 289.707 309.848 289.234 306.84 288.289C303.832 287.344 301.125 285.754 298.719 283.52C296.312 281.285 294.379 278.32 292.918 274.625C291.457 270.844 290.727 266.16 290.727 260.574ZM298.203 260.832L326.562 257.738C326.562 253.527 325.445 250.176 323.211 247.684C320.977 245.105 317.367 243.816 312.383 243.816C309.977 243.902 307.871 244.418 306.066 245.363C304.348 246.309 302.887 247.512 301.684 248.973C300.48 250.348 299.578 251.938 298.977 253.742C298.375 255.547 298.074 257.395 298.074 259.285C298.074 259.973 298.117 260.488 298.203 260.832ZM349.25 289.965L344.867 233.246L352.859 232.215L354.664 257.223L382.25 238.66L385.859 245.879L355.953 267.535V289.191L349.25 289.965ZM426.852 245.105H401.844V286.355L395.398 287.129V231.699L401.586 230.41V236.855L431.492 235.051L435.359 242.785L439.227 284.809L430.977 287.129L426.852 245.105ZM492.594 248.973L500.844 284.035L493.109 286.871L488.469 264.957C487.867 267.363 486.922 269.855 485.633 272.434C484.43 275.012 482.883 277.375 480.992 279.523C479.188 281.586 476.996 283.305 474.418 284.68C471.926 285.969 469.09 286.613 465.91 286.613C460.238 286.613 455.898 284.809 452.891 281.199C449.969 277.504 448.508 272.434 448.508 265.988C448.508 262.293 449.066 258.469 450.184 254.516C451.301 250.477 452.977 246.824 455.211 243.559C457.445 240.293 460.238 237.586 463.59 235.438C467.027 233.289 471.023 232.215 475.578 232.215C478.242 232.215 480.562 232.816 482.539 234.02C484.602 235.137 486.32 236.555 487.695 238.273C489.07 239.992 490.145 241.84 490.918 243.816C491.691 245.707 492.25 247.426 492.594 248.973ZM476.867 241.496C476.266 241.324 475.664 241.195 475.062 241.109C474.547 241.023 473.988 240.98 473.387 240.98C470.723 240.98 468.316 241.797 466.168 243.43C464.105 244.977 462.344 246.953 460.883 249.359C459.508 251.766 458.434 254.387 457.66 257.223C456.973 260.059 456.629 262.68 456.629 265.086C456.629 268.867 457.445 271.918 459.078 274.238C460.711 276.559 463.289 277.719 466.812 277.719C469.219 277.719 471.453 276.945 473.516 275.398C475.578 273.766 477.34 271.746 478.801 269.34C480.262 266.934 481.379 264.312 482.152 261.477C483.012 258.555 483.441 255.848 483.441 253.355C483.441 250.605 482.883 248.199 481.766 246.137C480.734 243.988 479.102 242.441 476.867 241.496ZM520.953 284.293V245.234H507.805L508.578 235.824H522.758V209.527H531.523V236.34H552.664V245.621H530.621V279.137L550.086 275.527L551.375 284.293L525.594 289.707L520.953 284.293ZM562.203 287.387V240.207H571.227V287.902L562.203 287.387ZM574.062 229.637L565.039 232.215L556.789 212.621L565.812 210.301L574.062 229.637ZM603.969 241.754C599.242 241.754 595.504 243.215 592.754 246.137C590.09 249.059 588.758 253.742 588.758 260.188C588.758 262.68 589.102 265.172 589.789 267.664C590.477 270.07 591.465 272.262 592.754 274.238C594.043 276.215 595.59 277.848 597.395 279.137C599.199 280.34 601.219 280.941 603.453 280.941C605.773 280.941 607.879 280.383 609.77 279.266C611.66 278.148 613.25 276.73 614.539 275.012C615.828 273.207 616.816 271.23 617.504 269.082C618.277 266.848 618.664 264.699 618.664 262.637C618.664 255.074 617.289 249.703 614.539 246.523C611.875 243.344 608.352 241.754 603.969 241.754ZM603.195 232.988C607.492 232.988 611.145 233.762 614.152 235.309C617.16 236.855 619.609 239.004 621.5 241.754C623.391 244.418 624.766 247.555 625.625 251.164C626.484 254.688 626.914 258.512 626.914 262.637C626.742 267.277 625.969 271.316 624.594 274.754C623.305 278.105 621.586 280.898 619.438 283.133C617.289 285.367 614.84 287 612.09 288.031C609.426 289.148 606.633 289.707 603.711 289.707C599.844 289.707 596.449 288.934 593.527 287.387C590.691 285.84 588.285 283.777 586.309 281.199C584.418 278.535 582.957 275.527 581.926 272.176C580.98 268.738 580.508 265.129 580.508 261.348C580.508 257.309 581.023 253.57 582.055 250.133C583.172 246.609 584.676 243.602 586.566 241.109C588.543 238.531 590.906 236.555 593.656 235.18C596.492 233.719 599.672 232.988 603.195 232.988ZM668.68 245.105H643.672V286.355L637.227 287.129V231.699L643.414 230.41V236.855L673.32 235.051L677.188 242.785L681.055 284.809L672.805 287.129L668.68 245.105ZM734.422 248.973L742.672 284.035L734.938 286.871L730.297 264.957C729.695 267.363 728.75 269.855 727.461 272.434C726.258 275.012 724.711 277.375 722.82 279.523C721.016 281.586 718.824 283.305 716.246 284.68C713.754 285.969 710.918 286.613 707.738 286.613C702.066 286.613 697.727 284.809 694.719 281.199C691.797 277.504 690.336 272.434 690.336 265.988C690.336 262.293 690.895 258.469 692.012 254.516C693.129 250.477 694.805 246.824 697.039 243.559C699.273 240.293 702.066 237.586 705.418 235.438C708.855 233.289 712.852 232.215 717.406 232.215C720.07 232.215 722.391 232.816 724.367 234.02C726.43 235.137 728.148 236.555 729.523 238.273C730.898 239.992 731.973 241.84 732.746 243.816C733.52 245.707 734.078 247.426 734.422 248.973ZM718.695 241.496C718.094 241.324 717.492 241.195 716.891 241.109C716.375 241.023 715.816 240.98 715.215 240.98C712.551 240.98 710.145 241.797 707.996 243.43C705.934 244.977 704.172 246.953 702.711 249.359C701.336 251.766 700.262 254.387 699.488 257.223C698.801 260.059 698.457 262.68 698.457 265.086C698.457 268.867 699.273 271.918 700.906 274.238C702.539 276.559 705.117 277.719 708.641 277.719C711.047 277.719 713.281 276.945 715.344 275.398C717.406 273.766 719.168 271.746 720.629 269.34C722.09 266.934 723.207 264.312 723.98 261.477C724.84 258.555 725.27 255.848 725.27 253.355C725.27 250.605 724.711 248.199 723.594 246.137C722.562 243.988 720.93 242.441 718.695 241.496ZM753.5 280.168V202.309L762.008 201.793V276.816L770.516 278.879L769.742 288.16L755.562 285.324L753.5 280.168ZM113.094 385.355V452.129H103.039V370.918L115.414 369.113L135.266 420.676L158.469 370.66L168.266 371.434L174.453 454.191H165.688L161.047 386.387L137.586 434.34L131.914 433.566L113.094 385.355ZM182.703 425.574C182.703 420.848 183.391 416.895 184.766 413.715C186.141 410.449 187.859 407.871 189.922 405.98C192.07 404.004 194.434 402.629 197.012 401.855C199.59 400.996 202.082 400.566 204.488 400.566C207.926 400.566 211.02 401.082 213.77 402.113C216.52 403.059 218.84 404.691 220.73 407.012C222.707 409.246 224.211 412.254 225.242 416.035C226.273 419.816 226.789 424.457 226.789 429.957L190.953 433.438C191.211 435.844 191.855 437.906 192.887 439.625C194.004 441.258 195.379 442.59 197.012 443.621C198.645 444.652 200.406 445.383 202.297 445.812C204.188 446.242 206.121 446.457 208.098 446.457C211.363 446.457 214.5 445.984 217.508 445.039C220.516 444.094 222.75 442.934 224.211 441.559L226.531 447.746C225.93 448.605 225.027 449.465 223.824 450.324C222.621 451.184 221.203 451.914 219.57 452.516C217.938 453.203 216.09 453.719 214.027 454.062C212.051 454.492 209.988 454.707 207.84 454.707C204.832 454.707 201.824 454.234 198.816 453.289C195.809 452.344 193.102 450.754 190.695 448.52C188.289 446.285 186.355 443.32 184.895 439.625C183.434 435.844 182.703 431.16 182.703 425.574ZM190.18 425.832L218.539 422.738C218.539 418.527 217.422 415.176 215.188 412.684C212.953 410.105 209.344 408.816 204.359 408.816C201.953 408.902 199.848 409.418 198.043 410.363C196.324 411.309 194.863 412.512 193.66 413.973C192.457 415.348 191.555 416.938 190.953 418.742C190.352 420.547 190.051 422.395 190.051 424.285C190.051 424.973 190.094 425.488 190.18 425.832ZM270.102 410.105H245.094V451.355L238.648 452.129V396.699L244.836 395.41V401.855L274.742 400.051L278.609 407.785L282.477 449.809L274.227 452.129L270.102 410.105ZM300.008 449.293V410.234H286.859L287.633 400.824H301.812V374.527H310.578V401.34H331.719V410.621H309.676V444.137L329.141 440.527L330.43 449.293L304.648 454.707L300.008 449.293ZM359.562 406.754C354.836 406.754 351.098 408.215 348.348 411.137C345.684 414.059 344.352 418.742 344.352 425.188C344.352 427.68 344.695 430.172 345.383 432.664C346.07 435.07 347.059 437.262 348.348 439.238C349.637 441.215 351.184 442.848 352.988 444.137C354.793 445.34 356.812 445.941 359.047 445.941C361.367 445.941 363.473 445.383 365.363 444.266C367.254 443.148 368.844 441.73 370.133 440.012C371.422 438.207 372.41 436.23 373.098 434.082C373.871 431.848 374.258 429.699 374.258 427.637C374.258 420.074 372.883 414.703 370.133 411.523C367.469 408.344 363.945 406.754 359.562 406.754ZM358.789 397.988C363.086 397.988 366.738 398.762 369.746 400.309C372.754 401.855 375.203 404.004 377.094 406.754C378.984 409.418 380.359 412.555 381.219 416.164C382.078 419.688 382.508 423.512 382.508 427.637C382.336 432.277 381.562 436.316 380.188 439.754C378.898 443.105 377.18 445.898 375.031 448.133C372.883 450.367 370.434 452 367.684 453.031C365.02 454.148 362.227 454.707 359.305 454.707C355.438 454.707 352.043 453.934 349.121 452.387C346.285 450.84 343.879 448.777 341.902 446.199C340.012 443.535 338.551 440.527 337.52 437.176C336.574 433.738 336.102 430.129 336.102 426.348C336.102 422.309 336.617 418.57 337.648 415.133C338.766 411.609 340.27 408.602 342.16 406.109C344.137 403.531 346.5 401.555 349.25 400.18C352.086 398.719 355.266 397.988 358.789 397.988ZM395.398 454.965L391.016 398.246L399.008 397.215L400.812 422.223L428.398 403.66L432.008 410.879L402.102 432.535V454.191L395.398 454.965ZM441.031 452.387V405.207H450.055V452.902L441.031 452.387ZM452.891 394.637L443.867 397.215L435.617 377.621L444.641 375.301L452.891 394.637ZM496.461 410.105H471.453V451.355L465.008 452.129V396.699L471.195 395.41V401.855L501.102 400.051L504.969 407.785L508.836 449.809L500.586 452.129L496.461 410.105ZM522.887 432.277C523.488 434.941 524.648 436.832 526.367 437.949C528.086 439.066 530.02 439.625 532.168 439.625C534.488 439.625 536.938 439.066 539.516 437.949C542.18 436.832 544.629 435.371 546.863 433.566C549.098 431.676 550.945 429.527 552.406 427.121C553.953 424.715 554.727 422.223 554.727 419.645C554.727 416.551 553.738 413.973 551.762 411.91C549.871 409.848 547.465 408.816 544.543 408.816C542.223 408.902 539.773 409.504 537.195 410.621C534.617 411.652 532.211 413.07 529.977 414.875C527.828 416.68 526.023 418.785 524.562 421.191C523.102 423.512 522.371 426.047 522.371 428.797C522.371 430.086 522.543 431.246 522.887 432.277ZM553.566 476.363H513.863V466.309H548.926L554.34 461.668L553.824 438.723C551.59 441.816 548.496 444.223 544.543 445.941C540.59 447.574 536.551 448.391 532.426 448.391C527.098 448.391 522.672 446.715 519.148 443.363C515.711 439.926 513.992 434.941 513.992 428.41C513.992 424.457 514.852 420.805 516.57 417.453C518.375 414.016 520.738 411.094 523.66 408.688C526.582 406.195 529.848 404.262 533.457 402.887C537.152 401.512 540.934 400.824 544.801 400.824C548.926 400.824 552.621 401.855 555.887 403.918C559.238 405.895 561.473 409.074 562.59 413.457V466.566L553.566 476.363ZM612.219 454.965L608.094 449.809C607.578 436.918 607.191 424.328 606.934 412.039C606.762 399.75 606.461 387.16 606.031 374.27L609.898 369.629C611.445 369.457 612.949 369.328 614.41 369.242C615.957 369.156 617.461 369.113 618.922 369.113C624.938 369.113 630.438 369.887 635.422 371.434C640.492 372.98 644.832 375.43 648.441 378.781C652.051 382.133 654.844 386.43 656.82 391.672C658.883 396.914 659.914 403.188 659.914 410.492C659.914 417.023 658.711 423.039 656.305 428.539C653.984 433.953 650.762 438.637 646.637 442.59C642.512 446.457 637.656 449.508 632.07 451.742C626.57 453.891 620.641 454.965 614.281 454.965H612.219ZM614.023 377.621L616.602 446.457C621.586 445.941 626.227 444.738 630.523 442.848C634.82 440.871 638.516 438.336 641.609 435.242C644.789 432.148 647.238 428.539 648.957 424.414C650.762 420.203 651.664 415.648 651.664 410.75C651.664 405.508 651.02 400.824 649.73 396.699C648.527 392.574 646.551 389.094 643.801 386.258C641.137 383.422 637.656 381.273 633.359 379.812C629.062 378.266 623.906 377.492 617.891 377.492C617.289 377.492 616.645 377.535 615.957 377.621C615.355 377.621 614.711 377.621 614.023 377.621ZM713.797 413.973L722.047 449.035L714.312 451.871L709.672 429.957C709.07 432.363 708.125 434.855 706.836 437.434C705.633 440.012 704.086 442.375 702.195 444.523C700.391 446.586 698.199 448.305 695.621 449.68C693.129 450.969 690.293 451.613 687.113 451.613C681.441 451.613 677.102 449.809 674.094 446.199C671.172 442.504 669.711 437.434 669.711 430.988C669.711 427.293 670.27 423.469 671.387 419.516C672.504 415.477 674.18 411.824 676.414 408.559C678.648 405.293 681.441 402.586 684.793 400.438C688.23 398.289 692.227 397.215 696.781 397.215C699.445 397.215 701.766 397.816 703.742 399.02C705.805 400.137 707.523 401.555 708.898 403.273C710.273 404.992 711.348 406.84 712.121 408.816C712.895 410.707 713.453 412.426 713.797 413.973ZM698.07 406.496C697.469 406.324 696.867 406.195 696.266 406.109C695.75 406.023 695.191 405.98 694.59 405.98C691.926 405.98 689.52 406.797 687.371 408.43C685.309 409.977 683.547 411.953 682.086 414.359C680.711 416.766 679.637 419.387 678.863 422.223C678.176 425.059 677.832 427.68 677.832 430.086C677.832 433.867 678.648 436.918 680.281 439.238C681.914 441.559 684.492 442.719 688.016 442.719C690.422 442.719 692.656 441.945 694.719 440.398C696.781 438.766 698.543 436.746 700.004 434.34C701.465 431.934 702.582 429.312 703.355 426.477C704.215 423.555 704.645 420.848 704.645 418.355C704.645 415.605 704.086 413.199 702.969 411.137C701.938 408.988 700.305 407.441 698.07 406.496ZM751.438 444.137L729.008 405.207L735.969 399.793L754.918 433.953L767.422 396.957L774.641 400.824L749.375 475.074L742.414 470.691L751.438 444.137ZM805.578 449.809L798.617 459.348L787.789 448.262L795.008 439.238L805.578 449.809ZM801.453 431.504H790.883V366.02H801.453V431.504Z" fill="#5A69AF"/>
<path d="M176.797 572.773V565.508L192.5 562.461L197.891 565.977V634.414L192.031 634.883V570.43L176.797 572.773ZM223.906 589.883H216.641V562.695H258.125L261.406 567.617L255.781 636.992H248.516L253.906 570.43H223.906V589.883ZM278.75 632.539V597.031H266.797L267.5 588.477H280.391V564.57H288.359V588.945H307.578V597.383H287.539V627.852L305.234 624.57L306.406 632.539L282.969 637.461L278.75 632.539ZM344.844 597.383H322.578V635.117L315.312 635.82V561.992H322.344V589.883H346.484L351.875 592.461L356.562 635.117L349.062 635.586L344.844 597.383ZM416.562 567.617L401.562 570.664L401.094 562.93L433.203 556.133L435.078 563.867L424.531 566.914L433.203 593.633C434.062 596.133 434.727 598.945 435.195 602.07C435.664 605.195 435.898 608.32 435.898 611.445C435.898 614.727 435.547 617.93 434.844 621.055C434.141 624.102 432.93 626.836 431.211 629.258C429.492 631.602 427.188 633.516 424.297 635C421.406 636.406 417.734 637.109 413.281 637.109C409.922 637.109 407.031 636.523 404.609 635.352C402.266 634.258 400.273 632.695 398.633 630.664C397.07 628.555 395.82 626.094 394.883 623.281C393.945 620.469 393.281 617.383 392.891 614.023L400.625 612.852C401.094 618.086 402.266 621.992 404.141 624.57C406.094 627.07 409.336 628.32 413.867 628.32C419.18 628.32 422.852 626.875 424.883 623.984C426.992 621.016 428.047 616.602 428.047 610.742C428.047 608.164 427.891 605.82 427.578 603.711C427.344 601.523 426.914 599.375 426.289 597.266C425.742 595.078 425.039 592.773 424.18 590.352C423.32 587.852 422.344 585.039 421.25 581.914L416.562 567.617ZM486.172 600.43L493.672 632.305L486.641 634.883L482.422 614.961C481.875 617.148 481.016 619.414 479.844 621.758C478.75 624.102 477.344 626.25 475.625 628.203C473.984 630.078 471.992 631.641 469.648 632.891C467.383 634.062 464.805 634.648 461.914 634.648C456.758 634.648 452.812 633.008 450.078 629.727C447.422 626.367 446.094 621.758 446.094 615.898C446.094 612.539 446.602 609.062 447.617 605.469C448.633 601.797 450.156 598.477 452.188 595.508C454.219 592.539 456.758 590.078 459.805 588.125C462.93 586.172 466.562 585.195 470.703 585.195C473.125 585.195 475.234 585.742 477.031 586.836C478.906 587.852 480.469 589.141 481.719 590.703C482.969 592.266 483.945 593.945 484.648 595.742C485.352 597.461 485.859 599.023 486.172 600.43ZM471.875 593.633C471.328 593.477 470.781 593.359 470.234 593.281C469.766 593.203 469.258 593.164 468.711 593.164C466.289 593.164 464.102 593.906 462.148 595.391C460.273 596.797 458.672 598.594 457.344 600.781C456.094 602.969 455.117 605.352 454.414 607.93C453.789 610.508 453.477 612.891 453.477 615.078C453.477 618.516 454.219 621.289 455.703 623.398C457.188 625.508 459.531 626.562 462.734 626.562C464.922 626.562 466.953 625.859 468.828 624.453C470.703 622.969 472.305 621.133 473.633 618.945C474.961 616.758 475.977 614.375 476.68 611.797C477.461 609.141 477.852 606.68 477.852 604.414C477.852 601.914 477.344 599.727 476.328 597.852C475.391 595.898 473.906 594.492 471.875 593.633ZM534.453 596.914H511.719V634.414L505.859 635.117V584.727L511.484 583.555V589.414L538.672 587.773L542.188 594.805L545.703 633.008L538.203 635.117L534.453 596.914ZM553.672 585.898L560.234 587.539C559.531 591.523 558.945 595.352 558.477 599.023C558.086 602.695 557.891 606.133 557.891 609.336C557.891 612.305 558.047 614.961 558.359 617.305C558.75 619.648 559.375 621.68 560.234 623.398C561.094 625.117 562.227 626.445 563.633 627.383C565.117 628.242 566.953 628.672 569.141 628.672C570.625 628.672 572.031 628.281 573.359 627.5C574.766 626.641 576.016 625.273 577.109 623.398C578.281 621.523 579.219 619.062 579.922 616.016C580.625 612.891 581.094 609.023 581.328 604.414L581.797 587.773L588.359 588.242V634.414L582.5 635.117L582.266 626.211C581.25 629.805 579.414 632.539 576.758 634.414C574.102 636.211 571.016 637.109 567.5 637.109C564.609 637.109 562.109 636.445 560 635.117C557.891 633.867 556.133 632.109 554.727 629.844C553.398 627.578 552.383 624.844 551.68 621.641C551.055 618.438 550.742 614.922 550.742 611.094C550.742 607.578 550.977 603.75 551.445 599.609C551.992 595.391 552.734 590.82 553.672 585.898ZM639.453 600.43L646.953 632.305L639.922 634.883L635.703 614.961C635.156 617.148 634.297 619.414 633.125 621.758C632.031 624.102 630.625 626.25 628.906 628.203C627.266 630.078 625.273 631.641 622.93 632.891C620.664 634.062 618.086 634.648 615.195 634.648C610.039 634.648 606.094 633.008 603.359 629.727C600.703 626.367 599.375 621.758 599.375 615.898C599.375 612.539 599.883 609.062 600.898 605.469C601.914 601.797 603.438 598.477 605.469 595.508C607.5 592.539 610.039 590.078 613.086 588.125C616.211 586.172 619.844 585.195 623.984 585.195C626.406 585.195 628.516 585.742 630.312 586.836C632.188 587.852 633.75 589.141 635 590.703C636.25 592.266 637.227 593.945 637.93 595.742C638.633 597.461 639.141 599.023 639.453 600.43ZM625.156 593.633C624.609 593.477 624.062 593.359 623.516 593.281C623.047 593.203 622.539 593.164 621.992 593.164C619.57 593.164 617.383 593.906 615.43 595.391C613.555 596.797 611.953 598.594 610.625 600.781C609.375 602.969 608.398 605.352 607.695 607.93C607.07 610.508 606.758 612.891 606.758 615.078C606.758 618.516 607.5 621.289 608.984 623.398C610.469 625.508 612.812 626.562 616.016 626.562C618.203 626.562 620.234 625.859 622.109 624.453C623.984 622.969 625.586 621.133 626.914 618.945C628.242 616.758 629.258 614.375 629.961 611.797C630.742 609.141 631.133 606.68 631.133 604.414C631.133 601.914 630.625 599.727 629.609 597.852C628.672 595.898 627.188 594.492 625.156 593.633ZM661.484 637.695L657.5 586.133L664.766 585.195L666.406 607.93L691.484 591.055L694.766 597.617L667.578 617.305V636.992L661.484 637.695ZM717.969 627.852L697.578 592.461L703.906 587.539L721.133 618.594L732.5 584.961L739.062 588.477L716.094 655.977L709.766 651.992L717.969 627.852Z" fill="#52B8AC"/>
</svg>
