<svg width="992" height="830" viewBox="0 0 992 830" fill="none" xmlns="http://www.w3.org/2000/svg">
<rect x="789.448" y="32.4091" width="2" height="151.591" rx="1" fill="#B6B6B6"/>
<g filter="url(#filter0_d_492_64)">
<path d="M10 42H791V174H10V42Z" fill="#FA8746"/>
<path d="M790 42V174H792V42H790Z" fill="#868686"/>
</g>
<g filter="url(#filter1_d_492_64)">
<path d="M10 40C10 23.4314 23.4315 10 40 10H165.789C170.043 10 174.097 11.8061 176.942 14.9688L225.188 68.6071C228.528 72.32 228.616 77.9276 225.395 81.7441L176.967 139.129C174.117 142.506 169.923 144.455 165.504 144.455H120.508C120.508 144.455 93.5385 144.455 53.0849 144.455C12.6313 144.455 10 174.443 10 174.443V40Z" fill="white"/>
</g>
<mask id="path-5-outside-1_492_64" maskUnits="userSpaceOnUse" x="83" y="37" width="25" height="80" fill="black">
<rect fill="white" x="83" y="37" width="25" height="80"/>
<path d="M84.125 49.625V41.875L100.875 38.625L106.625 42.375V115.375L100.375 115.875V47.125L84.125 49.625Z"/>
</mask>
<path d="M84.125 49.625V41.875L100.875 38.625L106.625 42.375V115.375L100.375 115.875V47.125L84.125 49.625Z" fill="#4C4AA1"/>
<path d="M84.125 49.625H83.125V50.7906L84.2771 50.6134L84.125 49.625ZM84.125 41.875L83.9345 40.8933L83.125 41.0504V41.875H84.125ZM100.875 38.625L101.421 37.7874L101.082 37.5662L100.685 37.6433L100.875 38.625ZM106.625 42.375H107.625V41.8333L107.171 41.5374L106.625 42.375ZM106.625 115.375L106.705 116.372L107.625 116.298V115.375H106.625ZM100.375 115.875H99.375V116.958L100.455 116.872L100.375 115.875ZM100.375 47.125H101.375V45.9594L100.223 46.1366L100.375 47.125ZM85.125 49.625V41.875H83.125V49.625H85.125ZM84.3155 42.8567L101.065 39.6067L100.685 37.6433L83.9345 40.8933L84.3155 42.8567ZM100.329 39.4626L106.079 43.2126L107.171 41.5374L101.421 37.7874L100.329 39.4626ZM105.625 42.375V115.375H107.625V42.375H105.625ZM106.545 114.378L100.295 114.878L100.455 116.872L106.705 116.372L106.545 114.378ZM101.375 115.875V47.125H99.375V115.875H101.375ZM100.223 46.1366L83.9729 48.6366L84.2771 50.6134L100.527 48.1134L100.223 46.1366Z" fill="#4C4AA1" mask="url(#path-5-outside-1_492_64)"/>
<g filter="url(#filter2_d_492_64)">
<circle cx="882" cy="108" r="65" fill="white"/>
</g>
<rect x="789.448" y="236.409" width="2" height="151.591" rx="1" fill="#B6B6B6"/>
<g filter="url(#filter3_d_492_64)">
<path d="M10 246H791V378H10V246Z" fill="#FED01A"/>
<path d="M790 246V378H792V246H790Z" fill="#868686"/>
</g>
<g filter="url(#filter4_d_492_64)">
<path d="M10 244C10 227.431 23.4315 214 40 214H165.789C170.043 214 174.097 215.806 176.942 218.969L225.188 272.607C228.528 276.32 228.616 281.928 225.395 285.744L176.967 343.129C174.117 346.506 169.923 348.455 165.504 348.455H120.508C120.508 348.455 93.5385 348.455 53.0849 348.455C12.6313 348.455 10 378.443 10 378.443V244Z" fill="white"/>
</g>
<mask id="path-12-outside-2_492_64" maskUnits="userSpaceOnUse" x="71" y="235" width="53" height="86" fill="black">
<rect fill="white" x="71" y="235" width="53" height="86"/>
<path d="M94.375 311.375H121.125V318.375C116.958 318.375 112.625 318.542 108.125 318.875C103.625 319.125 99.2083 319.25 94.875 319.25C92.875 319.25 90.9167 319.208 89 319.125C87.0833 318.958 85.2083 318.792 83.375 318.625L81.875 313.375C82.9583 311.625 84.5 309.667 86.5 307.5C88.5833 305.333 90.8333 303 93.25 300.5C95.6667 297.917 98.125 295.208 100.625 292.375C103.125 289.542 105.375 286.583 107.375 283.5C109.375 280.417 111 277.208 112.25 273.875C113.583 270.542 114.25 267.125 114.25 263.625C114.25 261.625 114 259.5 113.5 257.25C113 254.917 112.125 252.792 110.875 250.875C109.708 248.958 108.083 247.375 106 246.125C104 244.875 101.5 244.25 98.5 244.25C96.5 244.25 94.375 244.542 92.125 245.125C89.9583 245.625 87.9167 246.583 86 248C84.0833 249.417 82.5 251.375 81.25 253.875C80 256.292 79.375 259.458 79.375 263.375C79.375 266.708 80.0417 269.875 81.375 272.875L74.125 275.125C72.7083 271.125 72 267.042 72 262.875C72 258.458 72.7083 254.625 74.125 251.375C75.5417 248.042 77.4583 245.292 79.875 243.125C82.2917 240.875 85.0833 239.208 88.25 238.125C91.4167 236.958 94.7917 236.375 98.375 236.375C101.542 236.375 104.542 237 107.375 238.25C110.292 239.5 112.833 241.292 115 243.625C117.25 245.875 119 248.625 120.25 251.875C121.583 255.042 122.25 258.625 122.25 262.625C122.25 266.208 121.667 269.75 120.5 273.25C119.417 276.75 118 280.125 116.25 283.375C114.5 286.542 112.542 289.583 110.375 292.5C108.292 295.417 106.208 298.083 104.125 300.5C102.042 302.917 100.125 305.042 98.375 306.875C96.625 308.708 95.2917 310.208 94.375 311.375Z"/>
</mask>
<path d="M94.375 311.375H121.125V318.375C116.958 318.375 112.625 318.542 108.125 318.875C103.625 319.125 99.2083 319.25 94.875 319.25C92.875 319.25 90.9167 319.208 89 319.125C87.0833 318.958 85.2083 318.792 83.375 318.625L81.875 313.375C82.9583 311.625 84.5 309.667 86.5 307.5C88.5833 305.333 90.8333 303 93.25 300.5C95.6667 297.917 98.125 295.208 100.625 292.375C103.125 289.542 105.375 286.583 107.375 283.5C109.375 280.417 111 277.208 112.25 273.875C113.583 270.542 114.25 267.125 114.25 263.625C114.25 261.625 114 259.5 113.5 257.25C113 254.917 112.125 252.792 110.875 250.875C109.708 248.958 108.083 247.375 106 246.125C104 244.875 101.5 244.25 98.5 244.25C96.5 244.25 94.375 244.542 92.125 245.125C89.9583 245.625 87.9167 246.583 86 248C84.0833 249.417 82.5 251.375 81.25 253.875C80 256.292 79.375 259.458 79.375 263.375C79.375 266.708 80.0417 269.875 81.375 272.875L74.125 275.125C72.7083 271.125 72 267.042 72 262.875C72 258.458 72.7083 254.625 74.125 251.375C75.5417 248.042 77.4583 245.292 79.875 243.125C82.2917 240.875 85.0833 239.208 88.25 238.125C91.4167 236.958 94.7917 236.375 98.375 236.375C101.542 236.375 104.542 237 107.375 238.25C110.292 239.5 112.833 241.292 115 243.625C117.25 245.875 119 248.625 120.25 251.875C121.583 255.042 122.25 258.625 122.25 262.625C122.25 266.208 121.667 269.75 120.5 273.25C119.417 276.75 118 280.125 116.25 283.375C114.5 286.542 112.542 289.583 110.375 292.5C108.292 295.417 106.208 298.083 104.125 300.5C102.042 302.917 100.125 305.042 98.375 306.875C96.625 308.708 95.2917 310.208 94.375 311.375Z" fill="#4C4AA1"/>
<path d="M94.375 311.375L93.5887 310.757L92.3175 312.375H94.375V311.375ZM121.125 311.375H122.125V310.375H121.125V311.375ZM121.125 318.375V319.375H122.125V318.375H121.125ZM108.125 318.875L108.18 319.873L108.19 319.873L108.199 319.872L108.125 318.875ZM89 319.125L88.9134 320.121L88.9349 320.123L88.9566 320.124L89 319.125ZM83.375 318.625L82.4135 318.9L82.6018 319.559L83.2845 319.621L83.375 318.625ZM81.875 313.375L81.0247 312.849L80.792 313.225L80.9135 313.65L81.875 313.375ZM86.5 307.5L85.7792 306.807L85.7721 306.814L85.7652 306.822L86.5 307.5ZM93.25 300.5L93.969 301.195L93.9747 301.189L93.9803 301.183L93.25 300.5ZM112.25 273.875L111.322 273.504L111.317 273.514L111.314 273.524L112.25 273.875ZM113.5 257.25L112.522 257.46L112.524 257.467L113.5 257.25ZM110.875 250.875L110.021 251.395L110.029 251.408L110.037 251.421L110.875 250.875ZM106 246.125L105.47 246.973L105.478 246.978L105.486 246.982L106 246.125ZM92.125 245.125L92.3499 246.099L92.363 246.096L92.376 246.093L92.125 245.125ZM86 248L85.4056 247.196L86 248ZM81.25 253.875L82.1383 254.334L82.1444 254.322L81.25 253.875ZM81.375 272.875L81.6714 273.83L82.7456 273.497L82.2888 272.469L81.375 272.875ZM74.125 275.125L73.1824 275.459L73.5033 276.365L74.4214 276.08L74.125 275.125ZM74.125 251.375L75.0417 251.775L75.0453 251.766L74.125 251.375ZM79.875 243.125L80.5425 243.87L80.5495 243.863L80.5564 243.857L79.875 243.125ZM88.25 238.125L88.5737 239.071L88.5847 239.067L88.5957 239.063L88.25 238.125ZM107.375 238.25L106.971 239.165L106.981 239.169L107.375 238.25ZM115 243.625L114.267 244.305L114.28 244.319L114.293 244.332L115 243.625ZM120.25 251.875L119.317 252.234L119.322 252.249L119.328 252.263L120.25 251.875ZM120.5 273.25L119.551 272.934L119.548 272.944L119.545 272.954L120.5 273.25ZM116.25 283.375L117.125 283.859L117.13 283.849L116.25 283.375ZM110.375 292.5L109.572 291.904L109.567 291.911L109.561 291.919L110.375 292.5ZM94.375 312.375H121.125V310.375H94.375V312.375ZM120.125 311.375V318.375H122.125V311.375H120.125ZM121.125 317.375C116.932 317.375 112.574 317.543 108.051 317.878L108.199 319.872C112.676 319.541 116.985 319.375 121.125 319.375V317.375ZM108.07 317.877C103.587 318.126 99.1891 318.25 94.875 318.25V320.25C99.2276 320.25 103.663 320.124 108.18 319.873L108.07 317.877ZM94.875 318.25C92.8889 318.25 90.945 318.209 89.0434 318.126L88.9566 320.124C90.8883 320.208 92.8611 320.25 94.875 320.25V318.25ZM89.0866 318.129C87.1712 317.962 85.2975 317.796 83.4655 317.629L83.2845 319.621C85.1192 319.788 86.9955 319.954 88.9134 320.121L89.0866 318.129ZM84.3365 318.35L82.8365 313.1L80.9135 313.65L82.4135 318.9L84.3365 318.35ZM82.7253 313.901C83.7641 312.223 85.2612 310.316 87.2348 308.178L85.7652 306.822C83.7388 309.017 82.1526 311.027 81.0247 312.849L82.7253 313.901ZM87.2208 308.193C89.3035 306.027 91.5528 303.694 93.969 301.195L92.531 299.805C90.1138 302.306 87.8632 304.639 85.7792 306.807L87.2208 308.193ZM93.9803 301.183C96.404 298.592 98.8689 295.877 101.375 293.037L99.8752 291.713C97.3811 294.54 94.9293 297.241 92.5197 299.817L93.9803 301.183ZM101.375 293.037C103.906 290.167 106.186 287.17 108.214 284.044L106.536 282.956C104.564 285.997 102.344 288.916 99.8752 291.713L101.375 293.037ZM108.214 284.044C110.252 280.902 111.91 277.629 113.186 274.226L111.314 273.524C110.09 276.787 108.498 279.931 106.536 282.956L108.214 284.044ZM113.178 274.246C114.558 270.798 115.25 267.256 115.25 263.625H113.25C113.25 266.994 112.609 270.285 111.322 273.504L113.178 274.246ZM115.25 263.625C115.25 261.542 114.99 259.344 114.476 257.033L112.524 257.467C113.01 259.656 113.25 261.708 113.25 263.625H115.25ZM114.478 257.04C113.953 254.592 113.032 252.352 111.713 250.329L110.037 251.421C111.218 253.231 112.047 255.241 112.522 257.46L114.478 257.04ZM111.729 250.355C110.471 248.289 108.725 246.594 106.514 245.268L105.486 246.982C107.442 248.156 108.945 249.628 110.021 251.395L111.729 250.355ZM106.53 245.277C104.333 243.904 101.637 243.25 98.5 243.25V245.25C101.363 245.25 103.667 245.846 105.47 246.973L106.53 245.277ZM98.5 243.25C96.403 243.25 94.1931 243.556 91.874 244.157L92.376 246.093C94.5569 245.528 96.597 245.25 98.5 245.25V243.25ZM91.9001 244.151C89.5905 244.684 87.4245 245.704 85.4056 247.196L86.5944 248.804C88.4089 247.463 90.3261 246.566 92.3499 246.099L91.9001 244.151ZM85.4056 247.196C83.342 248.721 81.6639 250.811 80.3556 253.428L82.1444 254.322C83.3361 251.939 84.8246 250.112 86.5944 248.804L85.4056 247.196ZM80.3618 253.416C79.0132 256.023 78.375 259.364 78.375 263.375H80.375C80.375 259.553 80.9868 256.561 82.1382 254.334L80.3618 253.416ZM78.375 263.375C78.375 266.846 79.0701 270.151 80.4612 273.281L82.2888 272.469C81.0132 269.599 80.375 266.571 80.375 263.375H78.375ZM81.0786 271.92L73.8286 274.17L74.4214 276.08L81.6714 273.83L81.0786 271.92ZM75.0676 274.791C73.6882 270.896 73 266.926 73 262.875H71C71 267.158 71.7284 271.354 73.1824 275.459L75.0676 274.791ZM73 262.875C73 258.563 73.6917 254.872 75.0417 251.775L73.2083 250.975C71.725 254.378 71 258.354 71 262.875H73ZM75.0453 251.766C76.4114 248.552 78.2471 245.928 80.5425 243.87L79.2075 242.38C76.6696 244.656 74.672 247.531 73.2047 250.984L75.0453 251.766ZM80.5564 243.857C82.8688 241.704 85.5381 240.11 88.5737 239.071L87.9263 237.179C84.6285 238.307 81.7145 240.046 79.1936 242.393L80.5564 243.857ZM88.5957 239.063C91.645 237.94 94.9023 237.375 98.375 237.375V235.375C94.681 235.375 91.1884 235.977 87.9043 237.187L88.5957 239.063ZM98.375 237.375C101.406 237.375 104.268 237.972 106.971 239.165L107.779 237.335C104.815 236.028 101.677 235.375 98.375 235.375V237.375ZM106.981 239.169C109.769 240.364 112.195 242.074 114.267 244.305L115.733 242.945C113.471 240.509 110.814 238.636 107.769 237.331L106.981 239.169ZM114.293 244.332C116.435 246.474 118.112 249.102 119.317 252.234L121.183 251.516C119.888 248.148 118.065 245.276 115.707 242.918L114.293 244.332ZM119.328 252.263C120.602 255.288 121.25 258.737 121.25 262.625H123.25C123.25 258.513 122.564 254.795 121.172 251.487L119.328 252.263ZM121.25 262.625C121.25 266.098 120.685 269.533 119.551 272.934L121.449 273.566C122.648 269.967 123.25 266.319 123.25 262.625H121.25ZM119.545 272.954C118.481 276.392 117.089 279.707 115.37 282.901L117.13 283.849C118.911 280.543 120.353 277.108 121.455 273.546L119.545 272.954ZM115.375 282.891C113.646 286.019 111.712 289.023 109.572 291.904L111.178 293.096C113.371 290.144 115.354 287.065 117.125 283.859L115.375 282.891ZM109.561 291.919C107.493 294.814 105.429 297.456 103.368 299.847L104.882 301.153C106.988 298.711 109.09 296.02 111.189 293.081L109.561 291.919ZM103.368 299.847C101.293 302.254 99.3875 304.366 97.6516 306.185L99.0984 307.565C100.863 305.717 102.791 303.579 104.882 301.153L103.368 299.847ZM97.6516 306.185C95.8926 308.027 94.5342 309.554 93.5887 310.757L95.1613 311.993C96.0492 310.863 97.3574 309.389 99.0984 307.565L97.6516 306.185Z" fill="#4C4AA1" mask="url(#path-12-outside-2_492_64)"/>
<g filter="url(#filter5_d_492_64)">
<circle cx="882" cy="312" r="65" fill="white"/>
</g>
<rect x="789.448" y="440.409" width="2" height="151.591" rx="1" fill="#B6B6B6"/>
<g filter="url(#filter6_d_492_64)">
<path d="M10 450H791V582H10V450Z" fill="#95C241"/>
<path d="M790 450V582H792V450H790Z" fill="#868686"/>
</g>
<g filter="url(#filter7_d_492_64)">
<path d="M10 448C10 431.431 23.4315 418 40 418H165.789C170.043 418 174.097 419.806 176.942 422.969L225.188 476.607C228.528 480.32 228.616 485.928 225.395 489.744L176.967 547.129C174.117 550.506 169.923 552.455 165.504 552.455H120.508C120.508 552.455 93.5385 552.455 53.0849 552.455C12.6313 552.455 10 582.443 10 582.443V448Z" fill="white"/>
</g>
<mask id="path-19-outside-3_492_64" maskUnits="userSpaceOnUse" x="69" y="439" width="62" height="90" fill="black">
<rect fill="white" x="69" y="439" width="62" height="90"/>
<path d="M94.75 483.375L93.5 476.625C96.8333 475.875 99.5 474.75 101.5 473.25C103.583 471.667 105.75 469.375 108 466.375C108.5 465.792 108.875 465.042 109.125 464.125C109.375 463.208 109.5 462.167 109.5 461C109.5 459.417 109.208 457.833 108.625 456.25C108.125 454.583 107.25 453.125 106 451.875C104.75 450.542 103.167 449.5 101.25 448.75C99.3333 447.917 97 447.5 94.25 447.5C92.25 447.5 90.25 447.792 88.25 448.375C86.25 448.958 84.4583 449.917 82.875 451.25C81.2917 452.5 80 454.125 79 456.125C78.0833 458.042 77.625 460.375 77.625 463.125C77.625 463.542 77.625 463.917 77.625 464.25C77.625 464.583 77.6667 464.958 77.75 465.375L71.25 465.625C71 463.875 70.875 462.167 70.875 460.5C70.875 456.583 71.5833 453.333 73 450.75C74.5 448.167 76.375 446.083 78.625 444.5C80.875 442.917 83.3333 441.833 86 441.25C88.6667 440.583 91.1667 440.25 93.5 440.25C98.4167 440.25 102.375 441 105.375 442.5C108.458 444 110.833 445.792 112.5 447.875C114.167 449.875 115.25 452 115.75 454.25C116.333 456.417 116.625 458.25 116.625 459.75C116.625 464.667 115.5 468.667 113.25 471.75C111 474.75 108.5 476.958 105.75 478.375C108.833 478.792 111.75 479.667 114.5 481C117.333 482.333 119.833 484.083 122 486.25C124.167 488.333 125.875 490.792 127.125 493.625C128.458 496.458 129.125 499.625 129.125 503.125C129.125 507.042 128.417 510.542 127 513.625C125.583 516.625 123.625 519.208 121.125 521.375C118.625 523.458 115.625 525.042 112.125 526.125C108.625 527.208 104.792 527.75 100.625 527.75C94.125 527.75 88.2917 526.208 83.125 523.125C78.0417 520.042 74.3333 514.875 72 507.625L79 503.375C79 504.125 79.3333 505.083 80 506.25C80.6667 507.417 81.4167 508.625 82.25 509.875C83.1667 511.042 84.0833 512.167 85 513.25C85.9167 514.333 86.6667 515.125 87.25 515.625C88.6667 517.042 90.5 518.042 92.75 518.625C95 519.208 97.3333 519.5 99.75 519.5C106.25 519.5 111.417 518.042 115.25 515.125C119.083 512.208 121 508.083 121 502.75C121 499 120 495.75 118 493C116.083 490.167 113.833 487.958 111.25 486.375C108.75 484.875 106.25 484 103.75 483.75C101.25 483.5 98.25 483.375 94.75 483.375Z"/>
</mask>
<path d="M94.75 483.375L93.5 476.625C96.8333 475.875 99.5 474.75 101.5 473.25C103.583 471.667 105.75 469.375 108 466.375C108.5 465.792 108.875 465.042 109.125 464.125C109.375 463.208 109.5 462.167 109.5 461C109.5 459.417 109.208 457.833 108.625 456.25C108.125 454.583 107.25 453.125 106 451.875C104.75 450.542 103.167 449.5 101.25 448.75C99.3333 447.917 97 447.5 94.25 447.5C92.25 447.5 90.25 447.792 88.25 448.375C86.25 448.958 84.4583 449.917 82.875 451.25C81.2917 452.5 80 454.125 79 456.125C78.0833 458.042 77.625 460.375 77.625 463.125C77.625 463.542 77.625 463.917 77.625 464.25C77.625 464.583 77.6667 464.958 77.75 465.375L71.25 465.625C71 463.875 70.875 462.167 70.875 460.5C70.875 456.583 71.5833 453.333 73 450.75C74.5 448.167 76.375 446.083 78.625 444.5C80.875 442.917 83.3333 441.833 86 441.25C88.6667 440.583 91.1667 440.25 93.5 440.25C98.4167 440.25 102.375 441 105.375 442.5C108.458 444 110.833 445.792 112.5 447.875C114.167 449.875 115.25 452 115.75 454.25C116.333 456.417 116.625 458.25 116.625 459.75C116.625 464.667 115.5 468.667 113.25 471.75C111 474.75 108.5 476.958 105.75 478.375C108.833 478.792 111.75 479.667 114.5 481C117.333 482.333 119.833 484.083 122 486.25C124.167 488.333 125.875 490.792 127.125 493.625C128.458 496.458 129.125 499.625 129.125 503.125C129.125 507.042 128.417 510.542 127 513.625C125.583 516.625 123.625 519.208 121.125 521.375C118.625 523.458 115.625 525.042 112.125 526.125C108.625 527.208 104.792 527.75 100.625 527.75C94.125 527.75 88.2917 526.208 83.125 523.125C78.0417 520.042 74.3333 514.875 72 507.625L79 503.375C79 504.125 79.3333 505.083 80 506.25C80.6667 507.417 81.4167 508.625 82.25 509.875C83.1667 511.042 84.0833 512.167 85 513.25C85.9167 514.333 86.6667 515.125 87.25 515.625C88.6667 517.042 90.5 518.042 92.75 518.625C95 519.208 97.3333 519.5 99.75 519.5C106.25 519.5 111.417 518.042 115.25 515.125C119.083 512.208 121 508.083 121 502.75C121 499 120 495.75 118 493C116.083 490.167 113.833 487.958 111.25 486.375C108.75 484.875 106.25 484 103.75 483.75C101.25 483.5 98.25 483.375 94.75 483.375Z" fill="#4C4AA1"/>
<path d="M94.75 483.375L93.7667 483.557L93.9182 484.375H94.75V483.375ZM93.5 476.625L93.2805 475.649L92.3415 475.861L92.5167 476.807L93.5 476.625ZM101.5 473.25L102.1 474.05L102.105 474.046L101.5 473.25ZM108 466.375L107.241 465.724L107.22 465.749L107.2 465.775L108 466.375ZM108.625 456.25L107.667 456.537L107.676 456.567L107.687 456.596L108.625 456.25ZM106 451.875L105.27 452.559L105.281 452.571L105.293 452.582L106 451.875ZM101.25 448.75L100.851 449.667L100.868 449.674L100.886 449.681L101.25 448.75ZM82.875 451.25L83.4946 452.035L83.507 452.025L83.5191 452.015L82.875 451.25ZM79 456.125L78.1056 455.678L78.1017 455.686L78.0979 455.694L79 456.125ZM77.75 465.375L77.7884 466.374L78.9606 466.329L78.7306 465.179L77.75 465.375ZM71.25 465.625L70.2601 465.766L70.3875 466.659L71.2884 466.624L71.25 465.625ZM73 450.75L72.1352 450.248L72.1291 450.258L72.1232 450.269L73 450.75ZM86 441.25L86.2137 442.227L86.2282 442.224L86.2425 442.22L86 441.25ZM105.375 442.5L104.928 443.394L104.938 443.399L105.375 442.5ZM112.5 447.875L111.719 448.5L111.725 448.508L111.732 448.515L112.5 447.875ZM115.75 454.25L114.774 454.467L114.779 454.489L114.784 454.51L115.75 454.25ZM113.25 471.75L114.05 472.35L114.058 472.339L113.25 471.75ZM105.75 478.375L105.292 477.486L102.468 478.941L105.616 479.366L105.75 478.375ZM114.5 481L114.064 481.9L114.074 481.905L114.5 481ZM122 486.25L121.293 486.957L121.3 486.964L121.307 486.971L122 486.25ZM127.125 493.625L126.21 494.029L126.215 494.04L126.22 494.051L127.125 493.625ZM127 513.625L127.904 514.052L127.909 514.043L127 513.625ZM121.125 521.375L121.765 522.143L121.773 522.137L121.78 522.131L121.125 521.375ZM83.125 523.125L82.6064 523.98L82.6125 523.984L83.125 523.125ZM72 507.625L71.481 506.77L70.8062 507.18L71.0481 507.931L72 507.625ZM79 503.375H80V501.598L78.481 502.52L79 503.375ZM82.25 509.875L81.4179 510.43L81.4396 510.462L81.4637 510.493L82.25 509.875ZM87.25 515.625L87.9571 514.918L87.93 514.891L87.9008 514.866L87.25 515.625ZM118 493L117.172 493.56L117.181 493.574L117.191 493.588L118 493ZM111.25 486.375L111.773 485.522L111.764 485.518L111.25 486.375ZM95.7333 483.193L94.4833 476.443L92.5167 476.807L93.7667 483.557L95.7333 483.193ZM93.7195 477.601C97.1431 476.83 99.9536 475.66 102.1 474.05L100.9 472.45C99.0464 473.84 96.5236 474.92 93.2805 475.649L93.7195 477.601ZM102.105 474.046C104.286 472.388 106.516 470.02 108.8 466.975L107.2 465.775C104.984 468.73 102.88 470.945 100.895 472.454L102.105 474.046ZM108.759 467.026C109.376 466.307 109.81 465.415 110.09 464.388L108.16 463.862C107.94 464.669 107.624 465.277 107.241 465.724L108.759 467.026ZM110.09 464.388C110.368 463.369 110.5 462.236 110.5 461H108.5C108.5 462.097 108.382 463.048 108.16 463.862L110.09 464.388ZM110.5 461C110.5 459.291 110.185 457.591 109.563 455.904L107.687 456.596C108.232 458.076 108.5 459.542 108.5 461H110.5ZM109.583 455.963C109.034 454.135 108.072 452.533 106.707 451.168L105.293 452.582C106.428 453.717 107.216 455.032 107.667 456.537L109.583 455.963ZM106.73 451.191C105.366 449.736 103.652 448.616 101.614 447.819L100.886 449.681C102.681 450.384 104.134 451.347 105.27 452.559L106.73 451.191ZM101.649 447.833C99.5733 446.931 97.0959 446.5 94.25 446.5V448.5C96.9041 448.5 99.0934 448.903 100.851 449.667L101.649 447.833ZM94.25 446.5C92.1514 446.5 90.0572 446.806 87.97 447.415L88.53 449.335C90.4428 448.777 92.3486 448.5 94.25 448.5V446.5ZM87.97 447.415C85.8373 448.037 83.9214 449.061 82.2309 450.485L83.5191 452.015C84.9953 450.772 86.6627 449.88 88.53 449.335L87.97 447.415ZM82.2554 450.465C80.5448 451.816 79.1641 453.561 78.1056 455.678L79.8944 456.572C80.8359 454.689 82.0386 453.184 83.4946 452.035L82.2554 450.465ZM78.0979 455.694C77.1007 457.778 76.625 460.268 76.625 463.125H78.625C78.625 460.482 79.066 458.305 79.9021 456.556L78.0979 455.694ZM76.625 463.125C76.625 463.126 76.625 463.127 76.625 463.127C76.625 463.128 76.625 463.129 76.625 463.13C76.625 463.131 76.625 463.132 76.625 463.132C76.625 463.133 76.625 463.134 76.625 463.135C76.625 463.136 76.625 463.136 76.625 463.137C76.625 463.138 76.625 463.139 76.625 463.14C76.625 463.14 76.625 463.141 76.625 463.142C76.625 463.143 76.625 463.144 76.625 463.145C76.625 463.145 76.625 463.146 76.625 463.147C76.625 463.148 76.625 463.149 76.625 463.149C76.625 463.15 76.625 463.151 76.625 463.152C76.625 463.153 76.625 463.153 76.625 463.154C76.625 463.155 76.625 463.156 76.625 463.157C76.625 463.157 76.625 463.158 76.625 463.159C76.625 463.16 76.625 463.161 76.625 463.162C76.625 463.162 76.625 463.163 76.625 463.164C76.625 463.165 76.625 463.166 76.625 463.166C76.625 463.167 76.625 463.168 76.625 463.169C76.625 463.17 76.625 463.17 76.625 463.171C76.625 463.172 76.625 463.173 76.625 463.174C76.625 463.174 76.625 463.175 76.625 463.176C76.625 463.177 76.625 463.178 76.625 463.178C76.625 463.179 76.625 463.18 76.625 463.181C76.625 463.182 76.625 463.183 76.625 463.183C76.625 463.184 76.625 463.185 76.625 463.186C76.625 463.187 76.625 463.187 76.625 463.188C76.625 463.189 76.625 463.19 76.625 463.191C76.625 463.191 76.625 463.192 76.625 463.193C76.625 463.194 76.625 463.195 76.625 463.195C76.625 463.196 76.625 463.197 76.625 463.198C76.625 463.199 76.625 463.199 76.625 463.2C76.625 463.201 76.625 463.202 76.625 463.203C76.625 463.203 76.625 463.204 76.625 463.205C76.625 463.206 76.625 463.207 76.625 463.207C76.625 463.208 76.625 463.209 76.625 463.21C76.625 463.211 76.625 463.211 76.625 463.212C76.625 463.213 76.625 463.214 76.625 463.215C76.625 463.215 76.625 463.216 76.625 463.217C76.625 463.218 76.625 463.219 76.625 463.219C76.625 463.22 76.625 463.221 76.625 463.222C76.625 463.223 76.625 463.223 76.625 463.224C76.625 463.225 76.625 463.226 76.625 463.227C76.625 463.227 76.625 463.228 76.625 463.229C76.625 463.23 76.625 463.231 76.625 463.231C76.625 463.232 76.625 463.233 76.625 463.234C76.625 463.235 76.625 463.235 76.625 463.236C76.625 463.237 76.625 463.238 76.625 463.239C76.625 463.239 76.625 463.24 76.625 463.241C76.625 463.242 76.625 463.243 76.625 463.243C76.625 463.244 76.625 463.245 76.625 463.246C76.625 463.247 76.625 463.247 76.625 463.248C76.625 463.249 76.625 463.25 76.625 463.251C76.625 463.251 76.625 463.252 76.625 463.253C76.625 463.254 76.625 463.255 76.625 463.255C76.625 463.256 76.625 463.257 76.625 463.258C76.625 463.259 76.625 463.259 76.625 463.26C76.625 463.261 76.625 463.262 76.625 463.263C76.625 463.263 76.625 463.264 76.625 463.265C76.625 463.266 76.625 463.267 76.625 463.267C76.625 463.268 76.625 463.269 76.625 463.27C76.625 463.271 76.625 463.271 76.625 463.272C76.625 463.273 76.625 463.274 76.625 463.275C76.625 463.275 76.625 463.276 76.625 463.277C76.625 463.278 76.625 463.279 76.625 463.279C76.625 463.28 76.625 463.281 76.625 463.282C76.625 463.282 76.625 463.283 76.625 463.284C76.625 463.285 76.625 463.286 76.625 463.286C76.625 463.287 76.625 463.288 76.625 463.289C76.625 463.29 76.625 463.29 76.625 463.291C76.625 463.292 76.625 463.293 76.625 463.294C76.625 463.294 76.625 463.295 76.625 463.296C76.625 463.297 76.625 463.298 76.625 463.298C76.625 463.299 76.625 463.3 76.625 463.301C76.625 463.301 76.625 463.302 76.625 463.303C76.625 463.304 76.625 463.305 76.625 463.305C76.625 463.306 76.625 463.307 76.625 463.308C76.625 463.309 76.625 463.309 76.625 463.31C76.625 463.311 76.625 463.312 76.625 463.313C76.625 463.313 76.625 463.314 76.625 463.315C76.625 463.316 76.625 463.316 76.625 463.317C76.625 463.318 76.625 463.319 76.625 463.32C76.625 463.32 76.625 463.321 76.625 463.322C76.625 463.323 76.625 463.324 76.625 463.324C76.625 463.325 76.625 463.326 76.625 463.327C76.625 463.328 76.625 463.328 76.625 463.329C76.625 463.33 76.625 463.331 76.625 463.331C76.625 463.332 76.625 463.333 76.625 463.334C76.625 463.335 76.625 463.335 76.625 463.336C76.625 463.337 76.625 463.338 76.625 463.339C76.625 463.339 76.625 463.34 76.625 463.341C76.625 463.342 76.625 463.342 76.625 463.343C76.625 463.344 76.625 463.345 76.625 463.346C76.625 463.346 76.625 463.347 76.625 463.348C76.625 463.349 76.625 463.349 76.625 463.35C76.625 463.351 76.625 463.352 76.625 463.353C76.625 463.353 76.625 463.354 76.625 463.355C76.625 463.356 76.625 463.357 76.625 463.357C76.625 463.358 76.625 463.359 76.625 463.36C76.625 463.36 76.625 463.361 76.625 463.362C76.625 463.363 76.625 463.364 76.625 463.364C76.625 463.365 76.625 463.366 76.625 463.367C76.625 463.367 76.625 463.368 76.625 463.369C76.625 463.37 76.625 463.371 76.625 463.371C76.625 463.372 76.625 463.373 76.625 463.374C76.625 463.375 76.625 463.375 76.625 463.376C76.625 463.377 76.625 463.378 76.625 463.378C76.625 463.379 76.625 463.38 76.625 463.381C76.625 463.382 76.625 463.382 76.625 463.383C76.625 463.384 76.625 463.385 76.625 463.385C76.625 463.386 76.625 463.387 76.625 463.388C76.625 463.389 76.625 463.389 76.625 463.39C76.625 463.391 76.625 463.392 76.625 463.392C76.625 463.393 76.625 463.394 76.625 463.395C76.625 463.396 76.625 463.396 76.625 463.397C76.625 463.398 76.625 463.399 76.625 463.399C76.625 463.4 76.625 463.401 76.625 463.402C76.625 463.403 76.625 463.403 76.625 463.404C76.625 463.405 76.625 463.406 76.625 463.406C76.625 463.407 76.625 463.408 76.625 463.409C76.625 463.41 76.625 463.41 76.625 463.411C76.625 463.412 76.625 463.413 76.625 463.413C76.625 463.414 76.625 463.415 76.625 463.416C76.625 463.417 76.625 463.417 76.625 463.418C76.625 463.419 76.625 463.42 76.625 463.42C76.625 463.421 76.625 463.422 76.625 463.423C76.625 463.423 76.625 463.424 76.625 463.425C76.625 463.426 76.625 463.427 76.625 463.427C76.625 463.428 76.625 463.429 76.625 463.43C76.625 463.43 76.625 463.431 76.625 463.432C76.625 463.433 76.625 463.434 76.625 463.434C76.625 463.435 76.625 463.436 76.625 463.437C76.625 463.437 76.625 463.438 76.625 463.439C76.625 463.44 76.625 463.441 76.625 463.441C76.625 463.442 76.625 463.443 76.625 463.444C76.625 463.444 76.625 463.445 76.625 463.446C76.625 463.447 76.625 463.447 76.625 463.448C76.625 463.449 76.625 463.45 76.625 463.451C76.625 463.451 76.625 463.452 76.625 463.453C76.625 463.454 76.625 463.454 76.625 463.455C76.625 463.456 76.625 463.457 76.625 463.457C76.625 463.458 76.625 463.459 76.625 463.46C76.625 463.461 76.625 463.461 76.625 463.462C76.625 463.463 76.625 463.464 76.625 463.464C76.625 463.465 76.625 463.466 76.625 463.467C76.625 463.467 76.625 463.468 76.625 463.469C76.625 463.47 76.625 463.471 76.625 463.471C76.625 463.472 76.625 463.473 76.625 463.474C76.625 463.474 76.625 463.475 76.625 463.476C76.625 463.477 76.625 463.477 76.625 463.478C76.625 463.479 76.625 463.48 76.625 463.48C76.625 463.481 76.625 463.482 76.625 463.483C76.625 463.484 76.625 463.484 76.625 463.485C76.625 463.486 76.625 463.487 76.625 463.487C76.625 463.488 76.625 463.489 76.625 463.49C76.625 463.49 76.625 463.491 76.625 463.492C76.625 463.493 76.625 463.493 76.625 463.494C76.625 463.495 76.625 463.496 76.625 463.497C76.625 463.497 76.625 463.498 76.625 463.499C76.625 463.5 76.625 463.5 76.625 463.501C76.625 463.502 76.625 463.503 76.625 463.503C76.625 463.504 76.625 463.505 76.625 463.506C76.625 463.506 76.625 463.507 76.625 463.508C76.625 463.509 76.625 463.51 76.625 463.51C76.625 463.511 76.625 463.512 76.625 463.513C76.625 463.513 76.625 463.514 76.625 463.515C76.625 463.516 76.625 463.516 76.625 463.517C76.625 463.518 76.625 463.519 76.625 463.519C76.625 463.52 76.625 463.521 76.625 463.522C76.625 463.522 76.625 463.523 76.625 463.524C76.625 463.525 76.625 463.525 76.625 463.526C76.625 463.527 76.625 463.528 76.625 463.529C76.625 463.529 76.625 463.53 76.625 463.531C76.625 463.532 76.625 463.532 76.625 463.533C76.625 463.534 76.625 463.535 76.625 463.535C76.625 463.536 76.625 463.537 76.625 463.538C76.625 463.538 76.625 463.539 76.625 463.54C76.625 463.541 76.625 463.541 76.625 463.542C76.625 463.543 76.625 463.544 76.625 463.544C76.625 463.545 76.625 463.546 76.625 463.547C76.625 463.547 76.625 463.548 76.625 463.549C76.625 463.55 76.625 463.551 76.625 463.551C76.625 463.552 76.625 463.553 76.625 463.554C76.625 463.554 76.625 463.555 76.625 463.556C76.625 463.557 76.625 463.557 76.625 463.558C76.625 463.559 76.625 463.56 76.625 463.56C76.625 463.561 76.625 463.562 76.625 463.563C76.625 463.563 76.625 463.564 76.625 463.565C76.625 463.566 76.625 463.566 76.625 463.567C76.625 463.568 76.625 463.569 76.625 463.569C76.625 463.57 76.625 463.571 76.625 463.572C76.625 463.572 76.625 463.573 76.625 463.574C76.625 463.575 76.625 463.575 76.625 463.576C76.625 463.577 76.625 463.578 76.625 463.578C76.625 463.579 76.625 463.58 76.625 463.581C76.625 463.581 76.625 463.582 76.625 463.583C76.625 463.584 76.625 463.584 76.625 463.585C76.625 463.586 76.625 463.587 76.625 463.587C76.625 463.588 76.625 463.589 76.625 463.59C76.625 463.59 76.625 463.591 76.625 463.592C76.625 463.593 76.625 463.593 76.625 463.594C76.625 463.595 76.625 463.596 76.625 463.596C76.625 463.597 76.625 463.598 76.625 463.599C76.625 463.599 76.625 463.6 76.625 463.601C76.625 463.602 76.625 463.602 76.625 463.603C76.625 463.604 76.625 463.605 76.625 463.605C76.625 463.606 76.625 463.607 76.625 463.608C76.625 463.608 76.625 463.609 76.625 463.61C76.625 463.611 76.625 463.611 76.625 463.612C76.625 463.613 76.625 463.614 76.625 463.614C76.625 463.615 76.625 463.616 76.625 463.617C76.625 463.617 76.625 463.618 76.625 463.619C76.625 463.62 76.625 463.62 76.625 463.621C76.625 463.622 76.625 463.623 76.625 463.623C76.625 463.624 76.625 463.625 76.625 463.626C76.625 463.626 76.625 463.627 76.625 463.628C76.625 463.629 76.625 463.629 76.625 463.63C76.625 463.631 76.625 463.632 76.625 463.632C76.625 463.633 76.625 463.634 76.625 463.635C76.625 463.635 76.625 463.636 76.625 463.637C76.625 463.638 76.625 463.638 76.625 463.639C76.625 463.64 76.625 463.641 76.625 463.641C76.625 463.642 76.625 463.643 76.625 463.643C76.625 463.644 76.625 463.645 76.625 463.646C76.625 463.646 76.625 463.647 76.625 463.648C76.625 463.649 76.625 463.649 76.625 463.65C76.625 463.651 76.625 463.652 76.625 463.652C76.625 463.653 76.625 463.654 76.625 463.655C76.625 463.655 76.625 463.656 76.625 463.657C76.625 463.658 76.625 463.658 76.625 463.659C76.625 463.66 76.625 463.661 76.625 463.661C76.625 463.662 76.625 463.663 76.625 463.664C76.625 463.664 76.625 463.665 76.625 463.666C76.625 463.666 76.625 463.667 76.625 463.668C76.625 463.669 76.625 463.669 76.625 463.67C76.625 463.671 76.625 463.672 76.625 463.672C76.625 463.673 76.625 463.674 76.625 463.675C76.625 463.675 76.625 463.676 76.625 463.677C76.625 463.678 76.625 463.678 76.625 463.679C76.625 463.68 76.625 463.681 76.625 463.681C76.625 463.682 76.625 463.683 76.625 463.683C76.625 463.684 76.625 463.685 76.625 463.686C76.625 463.686 76.625 463.687 76.625 463.688C76.625 463.689 76.625 463.689 76.625 463.69C76.625 463.691 76.625 463.692 76.625 463.692C76.625 463.693 76.625 463.694 76.625 463.695C76.625 463.695 76.625 463.696 76.625 463.697C76.625 463.697 76.625 463.698 76.625 463.699C76.625 463.7 76.625 463.7 76.625 463.701C76.625 463.702 76.625 463.703 76.625 463.703C76.625 463.704 76.625 463.705 76.625 463.706C76.625 463.706 76.625 463.707 76.625 463.708C76.625 463.708 76.625 463.709 76.625 463.71C76.625 463.711 76.625 463.711 76.625 463.712C76.625 463.713 76.625 463.714 76.625 463.714C76.625 463.715 76.625 463.716 76.625 463.717C76.625 463.717 76.625 463.718 76.625 463.719C76.625 463.719 76.625 463.72 76.625 463.721C76.625 463.722 76.625 463.722 76.625 463.723C76.625 463.724 76.625 463.725 76.625 463.725C76.625 463.726 76.625 463.727 76.625 463.728C76.625 463.728 76.625 463.729 76.625 463.73C76.625 463.73 76.625 463.731 76.625 463.732C76.625 463.733 76.625 463.733 76.625 463.734C76.625 463.735 76.625 463.736 76.625 463.736C76.625 463.737 76.625 463.738 76.625 463.738C76.625 463.739 76.625 463.74 76.625 463.741C76.625 463.741 76.625 463.742 76.625 463.743C76.625 463.744 76.625 463.744 76.625 463.745C76.625 463.746 76.625 463.747 76.625 463.747C76.625 463.748 76.625 463.749 76.625 463.749C76.625 463.75 76.625 463.751 76.625 463.752C76.625 463.752 76.625 463.753 76.625 463.754C76.625 463.755 76.625 463.755 76.625 463.756C76.625 463.757 76.625 463.757 76.625 463.758C76.625 463.759 76.625 463.76 76.625 463.76C76.625 463.761 76.625 463.762 76.625 463.763C76.625 463.763 76.625 463.764 76.625 463.765C76.625 463.765 76.625 463.766 76.625 463.767C76.625 463.768 76.625 463.768 76.625 463.769C76.625 463.77 76.625 463.77 76.625 463.771C76.625 463.772 76.625 463.773 76.625 463.773C76.625 463.774 76.625 463.775 76.625 463.776C76.625 463.776 76.625 463.777 76.625 463.778C76.625 463.778 76.625 463.779 76.625 463.78C76.625 463.781 76.625 463.781 76.625 463.782C76.625 463.783 76.625 463.784 76.625 463.784C76.625 463.785 76.625 463.786 76.625 463.786C76.625 463.787 76.625 463.788 76.625 463.789C76.625 463.789 76.625 463.79 76.625 463.791C76.625 463.791 76.625 463.792 76.625 463.793C76.625 463.794 76.625 463.794 76.625 463.795C76.625 463.796 76.625 463.797 76.625 463.797C76.625 463.798 76.625 463.799 76.625 463.799C76.625 463.8 76.625 463.801 76.625 463.802C76.625 463.802 76.625 463.803 76.625 463.804C76.625 463.804 76.625 463.805 76.625 463.806C76.625 463.807 76.625 463.807 76.625 463.808C76.625 463.809 76.625 463.809 76.625 463.81C76.625 463.811 76.625 463.812 76.625 463.812C76.625 463.813 76.625 463.814 76.625 463.815C76.625 463.815 76.625 463.816 76.625 463.817C76.625 463.817 76.625 463.818 76.625 463.819C76.625 463.82 76.625 463.82 76.625 463.821C76.625 463.822 76.625 463.822 76.625 463.823C76.625 463.824 76.625 463.825 76.625 463.825C76.625 463.826 76.625 463.827 76.625 463.827C76.625 463.828 76.625 463.829 76.625 463.83C76.625 463.83 76.625 463.831 76.625 463.832C76.625 463.832 76.625 463.833 76.625 463.834C76.625 463.835 76.625 463.835 76.625 463.836C76.625 463.837 76.625 463.837 76.625 463.838C76.625 463.839 76.625 463.84 76.625 463.84C76.625 463.841 76.625 463.842 76.625 463.842C76.625 463.843 76.625 463.844 76.625 463.845C76.625 463.845 76.625 463.846 76.625 463.847C76.625 463.847 76.625 463.848 76.625 463.849C76.625 463.85 76.625 463.85 76.625 463.851C76.625 463.852 76.625 463.852 76.625 463.853C76.625 463.854 76.625 463.855 76.625 463.855C76.625 463.856 76.625 463.857 76.625 463.857C76.625 463.858 76.625 463.859 76.625 463.86C76.625 463.86 76.625 463.861 76.625 463.862C76.625 463.862 76.625 463.863 76.625 463.864C76.625 463.865 76.625 463.865 76.625 463.866C76.625 463.867 76.625 463.867 76.625 463.868C76.625 463.869 76.625 463.87 76.625 463.87C76.625 463.871 76.625 463.872 76.625 463.872C76.625 463.873 76.625 463.874 76.625 463.874C76.625 463.875 76.625 463.876 76.625 463.877C76.625 463.877 76.625 463.878 76.625 463.879C76.625 463.879 76.625 463.88 76.625 463.881C76.625 463.882 76.625 463.882 76.625 463.883C76.625 463.884 76.625 463.884 76.625 463.885C76.625 463.886 76.625 463.887 76.625 463.887C76.625 463.888 76.625 463.889 76.625 463.889C76.625 463.89 76.625 463.891 76.625 463.891C76.625 463.892 76.625 463.893 76.625 463.894C76.625 463.894 76.625 463.895 76.625 463.896C76.625 463.896 76.625 463.897 76.625 463.898C76.625 463.899 76.625 463.899 76.625 463.9C76.625 463.901 76.625 463.901 76.625 463.902C76.625 463.903 76.625 463.903 76.625 463.904C76.625 463.905 76.625 463.906 76.625 463.906C76.625 463.907 76.625 463.908 76.625 463.908C76.625 463.909 76.625 463.91 76.625 463.911C76.625 463.911 76.625 463.912 76.625 463.913C76.625 463.913 76.625 463.914 76.625 463.915C76.625 463.915 76.625 463.916 76.625 463.917C76.625 463.918 76.625 463.918 76.625 463.919C76.625 463.92 76.625 463.92 76.625 463.921C76.625 463.922 76.625 463.922 76.625 463.923C76.625 463.924 76.625 463.925 76.625 463.925C76.625 463.926 76.625 463.927 76.625 463.927C76.625 463.928 76.625 463.929 76.625 463.93C76.625 463.93 76.625 463.931 76.625 463.932C76.625 463.932 76.625 463.933 76.625 463.934C76.625 463.934 76.625 463.935 76.625 463.936C76.625 463.937 76.625 463.937 76.625 463.938C76.625 463.939 76.625 463.939 76.625 463.94C76.625 463.941 76.625 463.941 76.625 463.942C76.625 463.943 76.625 463.944 76.625 463.944C76.625 463.945 76.625 463.946 76.625 463.946C76.625 463.947 76.625 463.948 76.625 463.948C76.625 463.949 76.625 463.95 76.625 463.95C76.625 463.951 76.625 463.952 76.625 463.953C76.625 463.953 76.625 463.954 76.625 463.955C76.625 463.955 76.625 463.956 76.625 463.957C76.625 463.957 76.625 463.958 76.625 463.959C76.625 463.96 76.625 463.96 76.625 463.961C76.625 463.962 76.625 463.962 76.625 463.963C76.625 463.964 76.625 463.964 76.625 463.965C76.625 463.966 76.625 463.967 76.625 463.967C76.625 463.968 76.625 463.969 76.625 463.969C76.625 463.97 76.625 463.971 76.625 463.971C76.625 463.972 76.625 463.973 76.625 463.973C76.625 463.974 76.625 463.975 76.625 463.976C76.625 463.976 76.625 463.977 76.625 463.978C76.625 463.978 76.625 463.979 76.625 463.98C76.625 463.98 76.625 463.981 76.625 463.982C76.625 463.982 76.625 463.983 76.625 463.984C76.625 463.985 76.625 463.985 76.625 463.986C76.625 463.987 76.625 463.987 76.625 463.988C76.625 463.989 76.625 463.989 76.625 463.99C76.625 463.991 76.625 463.991 76.625 463.992C76.625 463.993 76.625 463.994 76.625 463.994C76.625 463.995 76.625 463.996 76.625 463.996C76.625 463.997 76.625 463.998 76.625 463.998C76.625 463.999 76.625 464 76.625 464C76.625 464.001 76.625 464.002 76.625 464.003C76.625 464.003 76.625 464.004 76.625 464.005C76.625 464.005 76.625 464.006 76.625 464.007C76.625 464.007 76.625 464.008 76.625 464.009C76.625 464.009 76.625 464.01 76.625 464.011C76.625 464.012 76.625 464.012 76.625 464.013C76.625 464.014 76.625 464.014 76.625 464.015C76.625 464.016 76.625 464.016 76.625 464.017C76.625 464.018 76.625 464.018 76.625 464.019C76.625 464.02 76.625 464.02 76.625 464.021C76.625 464.022 76.625 464.023 76.625 464.023C76.625 464.024 76.625 464.025 76.625 464.025C76.625 464.026 76.625 464.027 76.625 464.027C76.625 464.028 76.625 464.029 76.625 464.029C76.625 464.03 76.625 464.031 76.625 464.031C76.625 464.032 76.625 464.033 76.625 464.034C76.625 464.034 76.625 464.035 76.625 464.036C76.625 464.036 76.625 464.037 76.625 464.038C76.625 464.038 76.625 464.039 76.625 464.04C76.625 464.04 76.625 464.041 76.625 464.042C76.625 464.042 76.625 464.043 76.625 464.044C76.625 464.044 76.625 464.045 76.625 464.046C76.625 464.047 76.625 464.047 76.625 464.048C76.625 464.049 76.625 464.049 76.625 464.05C76.625 464.051 76.625 464.051 76.625 464.052C76.625 464.053 76.625 464.053 76.625 464.054C76.625 464.055 76.625 464.055 76.625 464.056C76.625 464.057 76.625 464.057 76.625 464.058C76.625 464.059 76.625 464.059 76.625 464.06C76.625 464.061 76.625 464.062 76.625 464.062C76.625 464.063 76.625 464.064 76.625 464.064C76.625 464.065 76.625 464.066 76.625 464.066C76.625 464.067 76.625 464.068 76.625 464.068C76.625 464.069 76.625 464.07 76.625 464.07C76.625 464.071 76.625 464.072 76.625 464.072C76.625 464.073 76.625 464.074 76.625 464.074C76.625 464.075 76.625 464.076 76.625 464.076C76.625 464.077 76.625 464.078 76.625 464.079C76.625 464.079 76.625 464.08 76.625 464.081C76.625 464.081 76.625 464.082 76.625 464.083C76.625 464.083 76.625 464.084 76.625 464.085C76.625 464.085 76.625 464.086 76.625 464.087C76.625 464.087 76.625 464.088 76.625 464.089C76.625 464.089 76.625 464.09 76.625 464.091C76.625 464.091 76.625 464.092 76.625 464.093C76.625 464.093 76.625 464.094 76.625 464.095C76.625 464.095 76.625 464.096 76.625 464.097C76.625 464.097 76.625 464.098 76.625 464.099C76.625 464.099 76.625 464.1 76.625 464.101C76.625 464.102 76.625 464.102 76.625 464.103C76.625 464.104 76.625 464.104 76.625 464.105C76.625 464.106 76.625 464.106 76.625 464.107C76.625 464.108 76.625 464.108 76.625 464.109C76.625 464.11 76.625 464.11 76.625 464.111C76.625 464.112 76.625 464.112 76.625 464.113C76.625 464.114 76.625 464.114 76.625 464.115C76.625 464.116 76.625 464.116 76.625 464.117C76.625 464.118 76.625 464.118 76.625 464.119C76.625 464.12 76.625 464.12 76.625 464.121C76.625 464.122 76.625 464.122 76.625 464.123C76.625 464.124 76.625 464.124 76.625 464.125C76.625 464.126 76.625 464.126 76.625 464.127C76.625 464.128 76.625 464.128 76.625 464.129C76.625 464.13 76.625 464.13 76.625 464.131C76.625 464.132 76.625 464.132 76.625 464.133C76.625 464.134 76.625 464.134 76.625 464.135C76.625 464.136 76.625 464.136 76.625 464.137C76.625 464.138 76.625 464.138 76.625 464.139C76.625 464.14 76.625 464.14 76.625 464.141C76.625 464.142 76.625 464.142 76.625 464.143C76.625 464.144 76.625 464.144 76.625 464.145C76.625 464.146 76.625 464.146 76.625 464.147C76.625 464.148 76.625 464.148 76.625 464.149C76.625 464.15 76.625 464.15 76.625 464.151C76.625 464.152 76.625 464.152 76.625 464.153C76.625 464.154 76.625 464.154 76.625 464.155C76.625 464.156 76.625 464.156 76.625 464.157C76.625 464.158 76.625 464.158 76.625 464.159C76.625 464.16 76.625 464.16 76.625 464.161C76.625 464.162 76.625 464.162 76.625 464.163C76.625 464.164 76.625 464.164 76.625 464.165C76.625 464.166 76.625 464.166 76.625 464.167C76.625 464.168 76.625 464.168 76.625 464.169C76.625 464.17 76.625 464.17 76.625 464.171C76.625 464.172 76.625 464.172 76.625 464.173C76.625 464.174 76.625 464.174 76.625 464.175C76.625 464.176 76.625 464.176 76.625 464.177C76.625 464.178 76.625 464.178 76.625 464.179C76.625 464.18 76.625 464.18 76.625 464.181C76.625 464.182 76.625 464.182 76.625 464.183C76.625 464.184 76.625 464.184 76.625 464.185C76.625 464.186 76.625 464.186 76.625 464.187C76.625 464.188 76.625 464.188 76.625 464.189C76.625 464.19 76.625 464.19 76.625 464.191C76.625 464.192 76.625 464.192 76.625 464.193C76.625 464.194 76.625 464.194 76.625 464.195C76.625 464.196 76.625 464.196 76.625 464.197C76.625 464.198 76.625 464.198 76.625 464.199C76.625 464.2 76.625 464.2 76.625 464.201C76.625 464.202 76.625 464.202 76.625 464.203C76.625 464.204 76.625 464.204 76.625 464.205C76.625 464.205 76.625 464.206 76.625 464.207C76.625 464.207 76.625 464.208 76.625 464.209C76.625 464.209 76.625 464.21 76.625 464.211C76.625 464.211 76.625 464.212 76.625 464.213C76.625 464.213 76.625 464.214 76.625 464.215C76.625 464.215 76.625 464.216 76.625 464.217C76.625 464.217 76.625 464.218 76.625 464.219C76.625 464.219 76.625 464.22 76.625 464.221C76.625 464.221 76.625 464.222 76.625 464.223C76.625 464.223 76.625 464.224 76.625 464.225C76.625 464.225 76.625 464.226 76.625 464.226C76.625 464.227 76.625 464.228 76.625 464.228C76.625 464.229 76.625 464.23 76.625 464.23C76.625 464.231 76.625 464.232 76.625 464.232C76.625 464.233 76.625 464.234 76.625 464.234C76.625 464.235 76.625 464.236 76.625 464.236C76.625 464.237 76.625 464.238 76.625 464.238C76.625 464.239 76.625 464.24 76.625 464.24C76.625 464.241 76.625 464.242 76.625 464.242C76.625 464.243 76.625 464.243 76.625 464.244C76.625 464.245 76.625 464.245 76.625 464.246C76.625 464.247 76.625 464.247 76.625 464.248C76.625 464.249 76.625 464.249 76.625 464.25H78.625C78.625 464.249 78.625 464.249 78.625 464.248C78.625 464.247 78.625 464.247 78.625 464.246C78.625 464.245 78.625 464.245 78.625 464.244C78.625 464.243 78.625 464.243 78.625 464.242C78.625 464.242 78.625 464.241 78.625 464.24C78.625 464.24 78.625 464.239 78.625 464.238C78.625 464.238 78.625 464.237 78.625 464.236C78.625 464.236 78.625 464.235 78.625 464.234C78.625 464.234 78.625 464.233 78.625 464.232C78.625 464.232 78.625 464.231 78.625 464.23C78.625 464.23 78.625 464.229 78.625 464.228C78.625 464.228 78.625 464.227 78.625 464.226C78.625 464.226 78.625 464.225 78.625 464.225C78.625 464.224 78.625 464.223 78.625 464.223C78.625 464.222 78.625 464.221 78.625 464.221C78.625 464.22 78.625 464.219 78.625 464.219C78.625 464.218 78.625 464.217 78.625 464.217C78.625 464.216 78.625 464.215 78.625 464.215C78.625 464.214 78.625 464.213 78.625 464.213C78.625 464.212 78.625 464.211 78.625 464.211C78.625 464.21 78.625 464.209 78.625 464.209C78.625 464.208 78.625 464.207 78.625 464.207C78.625 464.206 78.625 464.205 78.625 464.205C78.625 464.204 78.625 464.204 78.625 464.203C78.625 464.202 78.625 464.202 78.625 464.201C78.625 464.2 78.625 464.2 78.625 464.199C78.625 464.198 78.625 464.198 78.625 464.197C78.625 464.196 78.625 464.196 78.625 464.195C78.625 464.194 78.625 464.194 78.625 464.193C78.625 464.192 78.625 464.192 78.625 464.191C78.625 464.19 78.625 464.19 78.625 464.189C78.625 464.188 78.625 464.188 78.625 464.187C78.625 464.186 78.625 464.186 78.625 464.185C78.625 464.184 78.625 464.184 78.625 464.183C78.625 464.182 78.625 464.182 78.625 464.181C78.625 464.18 78.625 464.18 78.625 464.179C78.625 464.178 78.625 464.178 78.625 464.177C78.625 464.176 78.625 464.176 78.625 464.175C78.625 464.174 78.625 464.174 78.625 464.173C78.625 464.172 78.625 464.172 78.625 464.171C78.625 464.17 78.625 464.17 78.625 464.169C78.625 464.168 78.625 464.168 78.625 464.167C78.625 464.166 78.625 464.166 78.625 464.165C78.625 464.164 78.625 464.164 78.625 464.163C78.625 464.162 78.625 464.162 78.625 464.161C78.625 464.16 78.625 464.16 78.625 464.159C78.625 464.158 78.625 464.158 78.625 464.157C78.625 464.156 78.625 464.156 78.625 464.155C78.625 464.154 78.625 464.154 78.625 464.153C78.625 464.152 78.625 464.152 78.625 464.151C78.625 464.15 78.625 464.15 78.625 464.149C78.625 464.148 78.625 464.148 78.625 464.147C78.625 464.146 78.625 464.146 78.625 464.145C78.625 464.144 78.625 464.144 78.625 464.143C78.625 464.142 78.625 464.142 78.625 464.141C78.625 464.14 78.625 464.14 78.625 464.139C78.625 464.138 78.625 464.138 78.625 464.137C78.625 464.136 78.625 464.136 78.625 464.135C78.625 464.134 78.625 464.134 78.625 464.133C78.625 464.132 78.625 464.132 78.625 464.131C78.625 464.13 78.625 464.13 78.625 464.129C78.625 464.128 78.625 464.128 78.625 464.127C78.625 464.126 78.625 464.126 78.625 464.125C78.625 464.124 78.625 464.124 78.625 464.123C78.625 464.122 78.625 464.122 78.625 464.121C78.625 464.12 78.625 464.12 78.625 464.119C78.625 464.118 78.625 464.118 78.625 464.117C78.625 464.116 78.625 464.116 78.625 464.115C78.625 464.114 78.625 464.114 78.625 464.113C78.625 464.112 78.625 464.112 78.625 464.111C78.625 464.11 78.625 464.11 78.625 464.109C78.625 464.108 78.625 464.108 78.625 464.107C78.625 464.106 78.625 464.106 78.625 464.105C78.625 464.104 78.625 464.104 78.625 464.103C78.625 464.102 78.625 464.102 78.625 464.101C78.625 464.1 78.625 464.099 78.625 464.099C78.625 464.098 78.625 464.097 78.625 464.097C78.625 464.096 78.625 464.095 78.625 464.095C78.625 464.094 78.625 464.093 78.625 464.093C78.625 464.092 78.625 464.091 78.625 464.091C78.625 464.09 78.625 464.089 78.625 464.089C78.625 464.088 78.625 464.087 78.625 464.087C78.625 464.086 78.625 464.085 78.625 464.085C78.625 464.084 78.625 464.083 78.625 464.083C78.625 464.082 78.625 464.081 78.625 464.081C78.625 464.08 78.625 464.079 78.625 464.079C78.625 464.078 78.625 464.077 78.625 464.076C78.625 464.076 78.625 464.075 78.625 464.074C78.625 464.074 78.625 464.073 78.625 464.072C78.625 464.072 78.625 464.071 78.625 464.07C78.625 464.07 78.625 464.069 78.625 464.068C78.625 464.068 78.625 464.067 78.625 464.066C78.625 464.066 78.625 464.065 78.625 464.064C78.625 464.064 78.625 464.063 78.625 464.062C78.625 464.062 78.625 464.061 78.625 464.06C78.625 464.059 78.625 464.059 78.625 464.058C78.625 464.057 78.625 464.057 78.625 464.056C78.625 464.055 78.625 464.055 78.625 464.054C78.625 464.053 78.625 464.053 78.625 464.052C78.625 464.051 78.625 464.051 78.625 464.05C78.625 464.049 78.625 464.049 78.625 464.048C78.625 464.047 78.625 464.047 78.625 464.046C78.625 464.045 78.625 464.044 78.625 464.044C78.625 464.043 78.625 464.042 78.625 464.042C78.625 464.041 78.625 464.04 78.625 464.04C78.625 464.039 78.625 464.038 78.625 464.038C78.625 464.037 78.625 464.036 78.625 464.036C78.625 464.035 78.625 464.034 78.625 464.034C78.625 464.033 78.625 464.032 78.625 464.031C78.625 464.031 78.625 464.03 78.625 464.029C78.625 464.029 78.625 464.028 78.625 464.027C78.625 464.027 78.625 464.026 78.625 464.025C78.625 464.025 78.625 464.024 78.625 464.023C78.625 464.023 78.625 464.022 78.625 464.021C78.625 464.02 78.625 464.02 78.625 464.019C78.625 464.018 78.625 464.018 78.625 464.017C78.625 464.016 78.625 464.016 78.625 464.015C78.625 464.014 78.625 464.014 78.625 464.013C78.625 464.012 78.625 464.012 78.625 464.011C78.625 464.01 78.625 464.009 78.625 464.009C78.625 464.008 78.625 464.007 78.625 464.007C78.625 464.006 78.625 464.005 78.625 464.005C78.625 464.004 78.625 464.003 78.625 464.003C78.625 464.002 78.625 464.001 78.625 464C78.625 464 78.625 463.999 78.625 463.998C78.625 463.998 78.625 463.997 78.625 463.996C78.625 463.996 78.625 463.995 78.625 463.994C78.625 463.994 78.625 463.993 78.625 463.992C78.625 463.991 78.625 463.991 78.625 463.99C78.625 463.989 78.625 463.989 78.625 463.988C78.625 463.987 78.625 463.987 78.625 463.986C78.625 463.985 78.625 463.985 78.625 463.984C78.625 463.983 78.625 463.982 78.625 463.982C78.625 463.981 78.625 463.98 78.625 463.98C78.625 463.979 78.625 463.978 78.625 463.978C78.625 463.977 78.625 463.976 78.625 463.976C78.625 463.975 78.625 463.974 78.625 463.973C78.625 463.973 78.625 463.972 78.625 463.971C78.625 463.971 78.625 463.97 78.625 463.969C78.625 463.969 78.625 463.968 78.625 463.967C78.625 463.967 78.625 463.966 78.625 463.965C78.625 463.964 78.625 463.964 78.625 463.963C78.625 463.962 78.625 463.962 78.625 463.961C78.625 463.96 78.625 463.96 78.625 463.959C78.625 463.958 78.625 463.957 78.625 463.957C78.625 463.956 78.625 463.955 78.625 463.955C78.625 463.954 78.625 463.953 78.625 463.953C78.625 463.952 78.625 463.951 78.625 463.95C78.625 463.95 78.625 463.949 78.625 463.948C78.625 463.948 78.625 463.947 78.625 463.946C78.625 463.946 78.625 463.945 78.625 463.944C78.625 463.944 78.625 463.943 78.625 463.942C78.625 463.941 78.625 463.941 78.625 463.94C78.625 463.939 78.625 463.939 78.625 463.938C78.625 463.937 78.625 463.937 78.625 463.936C78.625 463.935 78.625 463.934 78.625 463.934C78.625 463.933 78.625 463.932 78.625 463.932C78.625 463.931 78.625 463.93 78.625 463.93C78.625 463.929 78.625 463.928 78.625 463.927C78.625 463.927 78.625 463.926 78.625 463.925C78.625 463.925 78.625 463.924 78.625 463.923C78.625 463.922 78.625 463.922 78.625 463.921C78.625 463.92 78.625 463.92 78.625 463.919C78.625 463.918 78.625 463.918 78.625 463.917C78.625 463.916 78.625 463.915 78.625 463.915C78.625 463.914 78.625 463.913 78.625 463.913C78.625 463.912 78.625 463.911 78.625 463.911C78.625 463.91 78.625 463.909 78.625 463.908C78.625 463.908 78.625 463.907 78.625 463.906C78.625 463.906 78.625 463.905 78.625 463.904C78.625 463.903 78.625 463.903 78.625 463.902C78.625 463.901 78.625 463.901 78.625 463.9C78.625 463.899 78.625 463.899 78.625 463.898C78.625 463.897 78.625 463.896 78.625 463.896C78.625 463.895 78.625 463.894 78.625 463.894C78.625 463.893 78.625 463.892 78.625 463.891C78.625 463.891 78.625 463.89 78.625 463.889C78.625 463.889 78.625 463.888 78.625 463.887C78.625 463.887 78.625 463.886 78.625 463.885C78.625 463.884 78.625 463.884 78.625 463.883C78.625 463.882 78.625 463.882 78.625 463.881C78.625 463.88 78.625 463.879 78.625 463.879C78.625 463.878 78.625 463.877 78.625 463.877C78.625 463.876 78.625 463.875 78.625 463.874C78.625 463.874 78.625 463.873 78.625 463.872C78.625 463.872 78.625 463.871 78.625 463.87C78.625 463.87 78.625 463.869 78.625 463.868C78.625 463.867 78.625 463.867 78.625 463.866C78.625 463.865 78.625 463.865 78.625 463.864C78.625 463.863 78.625 463.862 78.625 463.862C78.625 463.861 78.625 463.86 78.625 463.86C78.625 463.859 78.625 463.858 78.625 463.857C78.625 463.857 78.625 463.856 78.625 463.855C78.625 463.855 78.625 463.854 78.625 463.853C78.625 463.852 78.625 463.852 78.625 463.851C78.625 463.85 78.625 463.85 78.625 463.849C78.625 463.848 78.625 463.847 78.625 463.847C78.625 463.846 78.625 463.845 78.625 463.845C78.625 463.844 78.625 463.843 78.625 463.842C78.625 463.842 78.625 463.841 78.625 463.84C78.625 463.84 78.625 463.839 78.625 463.838C78.625 463.837 78.625 463.837 78.625 463.836C78.625 463.835 78.625 463.835 78.625 463.834C78.625 463.833 78.625 463.832 78.625 463.832C78.625 463.831 78.625 463.83 78.625 463.83C78.625 463.829 78.625 463.828 78.625 463.827C78.625 463.827 78.625 463.826 78.625 463.825C78.625 463.825 78.625 463.824 78.625 463.823C78.625 463.822 78.625 463.822 78.625 463.821C78.625 463.82 78.625 463.82 78.625 463.819C78.625 463.818 78.625 463.817 78.625 463.817C78.625 463.816 78.625 463.815 78.625 463.815C78.625 463.814 78.625 463.813 78.625 463.812C78.625 463.812 78.625 463.811 78.625 463.81C78.625 463.809 78.625 463.809 78.625 463.808C78.625 463.807 78.625 463.807 78.625 463.806C78.625 463.805 78.625 463.804 78.625 463.804C78.625 463.803 78.625 463.802 78.625 463.802C78.625 463.801 78.625 463.8 78.625 463.799C78.625 463.799 78.625 463.798 78.625 463.797C78.625 463.797 78.625 463.796 78.625 463.795C78.625 463.794 78.625 463.794 78.625 463.793C78.625 463.792 78.625 463.791 78.625 463.791C78.625 463.79 78.625 463.789 78.625 463.789C78.625 463.788 78.625 463.787 78.625 463.786C78.625 463.786 78.625 463.785 78.625 463.784C78.625 463.784 78.625 463.783 78.625 463.782C78.625 463.781 78.625 463.781 78.625 463.78C78.625 463.779 78.625 463.778 78.625 463.778C78.625 463.777 78.625 463.776 78.625 463.776C78.625 463.775 78.625 463.774 78.625 463.773C78.625 463.773 78.625 463.772 78.625 463.771C78.625 463.77 78.625 463.77 78.625 463.769C78.625 463.768 78.625 463.768 78.625 463.767C78.625 463.766 78.625 463.765 78.625 463.765C78.625 463.764 78.625 463.763 78.625 463.763C78.625 463.762 78.625 463.761 78.625 463.76C78.625 463.76 78.625 463.759 78.625 463.758C78.625 463.757 78.625 463.757 78.625 463.756C78.625 463.755 78.625 463.755 78.625 463.754C78.625 463.753 78.625 463.752 78.625 463.752C78.625 463.751 78.625 463.75 78.625 463.749C78.625 463.749 78.625 463.748 78.625 463.747C78.625 463.747 78.625 463.746 78.625 463.745C78.625 463.744 78.625 463.744 78.625 463.743C78.625 463.742 78.625 463.741 78.625 463.741C78.625 463.74 78.625 463.739 78.625 463.738C78.625 463.738 78.625 463.737 78.625 463.736C78.625 463.736 78.625 463.735 78.625 463.734C78.625 463.733 78.625 463.733 78.625 463.732C78.625 463.731 78.625 463.73 78.625 463.73C78.625 463.729 78.625 463.728 78.625 463.728C78.625 463.727 78.625 463.726 78.625 463.725C78.625 463.725 78.625 463.724 78.625 463.723C78.625 463.722 78.625 463.722 78.625 463.721C78.625 463.72 78.625 463.719 78.625 463.719C78.625 463.718 78.625 463.717 78.625 463.717C78.625 463.716 78.625 463.715 78.625 463.714C78.625 463.714 78.625 463.713 78.625 463.712C78.625 463.711 78.625 463.711 78.625 463.71C78.625 463.709 78.625 463.708 78.625 463.708C78.625 463.707 78.625 463.706 78.625 463.706C78.625 463.705 78.625 463.704 78.625 463.703C78.625 463.703 78.625 463.702 78.625 463.701C78.625 463.7 78.625 463.7 78.625 463.699C78.625 463.698 78.625 463.697 78.625 463.697C78.625 463.696 78.625 463.695 78.625 463.695C78.625 463.694 78.625 463.693 78.625 463.692C78.625 463.692 78.625 463.691 78.625 463.69C78.625 463.689 78.625 463.689 78.625 463.688C78.625 463.687 78.625 463.686 78.625 463.686C78.625 463.685 78.625 463.684 78.625 463.683C78.625 463.683 78.625 463.682 78.625 463.681C78.625 463.681 78.625 463.68 78.625 463.679C78.625 463.678 78.625 463.678 78.625 463.677C78.625 463.676 78.625 463.675 78.625 463.675C78.625 463.674 78.625 463.673 78.625 463.672C78.625 463.672 78.625 463.671 78.625 463.67C78.625 463.669 78.625 463.669 78.625 463.668C78.625 463.667 78.625 463.666 78.625 463.666C78.625 463.665 78.625 463.664 78.625 463.664C78.625 463.663 78.625 463.662 78.625 463.661C78.625 463.661 78.625 463.66 78.625 463.659C78.625 463.658 78.625 463.658 78.625 463.657C78.625 463.656 78.625 463.655 78.625 463.655C78.625 463.654 78.625 463.653 78.625 463.652C78.625 463.652 78.625 463.651 78.625 463.65C78.625 463.649 78.625 463.649 78.625 463.648C78.625 463.647 78.625 463.646 78.625 463.646C78.625 463.645 78.625 463.644 78.625 463.643C78.625 463.643 78.625 463.642 78.625 463.641C78.625 463.641 78.625 463.64 78.625 463.639C78.625 463.638 78.625 463.638 78.625 463.637C78.625 463.636 78.625 463.635 78.625 463.635C78.625 463.634 78.625 463.633 78.625 463.632C78.625 463.632 78.625 463.631 78.625 463.63C78.625 463.629 78.625 463.629 78.625 463.628C78.625 463.627 78.625 463.626 78.625 463.626C78.625 463.625 78.625 463.624 78.625 463.623C78.625 463.623 78.625 463.622 78.625 463.621C78.625 463.62 78.625 463.62 78.625 463.619C78.625 463.618 78.625 463.617 78.625 463.617C78.625 463.616 78.625 463.615 78.625 463.614C78.625 463.614 78.625 463.613 78.625 463.612C78.625 463.611 78.625 463.611 78.625 463.61C78.625 463.609 78.625 463.608 78.625 463.608C78.625 463.607 78.625 463.606 78.625 463.605C78.625 463.605 78.625 463.604 78.625 463.603C78.625 463.602 78.625 463.602 78.625 463.601C78.625 463.6 78.625 463.599 78.625 463.599C78.625 463.598 78.625 463.597 78.625 463.596C78.625 463.596 78.625 463.595 78.625 463.594C78.625 463.593 78.625 463.593 78.625 463.592C78.625 463.591 78.625 463.59 78.625 463.59C78.625 463.589 78.625 463.588 78.625 463.587C78.625 463.587 78.625 463.586 78.625 463.585C78.625 463.584 78.625 463.584 78.625 463.583C78.625 463.582 78.625 463.581 78.625 463.581C78.625 463.58 78.625 463.579 78.625 463.578C78.625 463.578 78.625 463.577 78.625 463.576C78.625 463.575 78.625 463.575 78.625 463.574C78.625 463.573 78.625 463.572 78.625 463.572C78.625 463.571 78.625 463.57 78.625 463.569C78.625 463.569 78.625 463.568 78.625 463.567C78.625 463.566 78.625 463.566 78.625 463.565C78.625 463.564 78.625 463.563 78.625 463.563C78.625 463.562 78.625 463.561 78.625 463.56C78.625 463.56 78.625 463.559 78.625 463.558C78.625 463.557 78.625 463.557 78.625 463.556C78.625 463.555 78.625 463.554 78.625 463.554C78.625 463.553 78.625 463.552 78.625 463.551C78.625 463.551 78.625 463.55 78.625 463.549C78.625 463.548 78.625 463.547 78.625 463.547C78.625 463.546 78.625 463.545 78.625 463.544C78.625 463.544 78.625 463.543 78.625 463.542C78.625 463.541 78.625 463.541 78.625 463.54C78.625 463.539 78.625 463.538 78.625 463.538C78.625 463.537 78.625 463.536 78.625 463.535C78.625 463.535 78.625 463.534 78.625 463.533C78.625 463.532 78.625 463.532 78.625 463.531C78.625 463.53 78.625 463.529 78.625 463.529C78.625 463.528 78.625 463.527 78.625 463.526C78.625 463.525 78.625 463.525 78.625 463.524C78.625 463.523 78.625 463.522 78.625 463.522C78.625 463.521 78.625 463.52 78.625 463.519C78.625 463.519 78.625 463.518 78.625 463.517C78.625 463.516 78.625 463.516 78.625 463.515C78.625 463.514 78.625 463.513 78.625 463.513C78.625 463.512 78.625 463.511 78.625 463.51C78.625 463.51 78.625 463.509 78.625 463.508C78.625 463.507 78.625 463.506 78.625 463.506C78.625 463.505 78.625 463.504 78.625 463.503C78.625 463.503 78.625 463.502 78.625 463.501C78.625 463.5 78.625 463.5 78.625 463.499C78.625 463.498 78.625 463.497 78.625 463.497C78.625 463.496 78.625 463.495 78.625 463.494C78.625 463.493 78.625 463.493 78.625 463.492C78.625 463.491 78.625 463.49 78.625 463.49C78.625 463.489 78.625 463.488 78.625 463.487C78.625 463.487 78.625 463.486 78.625 463.485C78.625 463.484 78.625 463.484 78.625 463.483C78.625 463.482 78.625 463.481 78.625 463.48C78.625 463.48 78.625 463.479 78.625 463.478C78.625 463.477 78.625 463.477 78.625 463.476C78.625 463.475 78.625 463.474 78.625 463.474C78.625 463.473 78.625 463.472 78.625 463.471C78.625 463.471 78.625 463.47 78.625 463.469C78.625 463.468 78.625 463.467 78.625 463.467C78.625 463.466 78.625 463.465 78.625 463.464C78.625 463.464 78.625 463.463 78.625 463.462C78.625 463.461 78.625 463.461 78.625 463.46C78.625 463.459 78.625 463.458 78.625 463.457C78.625 463.457 78.625 463.456 78.625 463.455C78.625 463.454 78.625 463.454 78.625 463.453C78.625 463.452 78.625 463.451 78.625 463.451C78.625 463.45 78.625 463.449 78.625 463.448C78.625 463.447 78.625 463.447 78.625 463.446C78.625 463.445 78.625 463.444 78.625 463.444C78.625 463.443 78.625 463.442 78.625 463.441C78.625 463.441 78.625 463.44 78.625 463.439C78.625 463.438 78.625 463.437 78.625 463.437C78.625 463.436 78.625 463.435 78.625 463.434C78.625 463.434 78.625 463.433 78.625 463.432C78.625 463.431 78.625 463.43 78.625 463.43C78.625 463.429 78.625 463.428 78.625 463.427C78.625 463.427 78.625 463.426 78.625 463.425C78.625 463.424 78.625 463.423 78.625 463.423C78.625 463.422 78.625 463.421 78.625 463.42C78.625 463.42 78.625 463.419 78.625 463.418C78.625 463.417 78.625 463.417 78.625 463.416C78.625 463.415 78.625 463.414 78.625 463.413C78.625 463.413 78.625 463.412 78.625 463.411C78.625 463.41 78.625 463.41 78.625 463.409C78.625 463.408 78.625 463.407 78.625 463.406C78.625 463.406 78.625 463.405 78.625 463.404C78.625 463.403 78.625 463.403 78.625 463.402C78.625 463.401 78.625 463.4 78.625 463.399C78.625 463.399 78.625 463.398 78.625 463.397C78.625 463.396 78.625 463.396 78.625 463.395C78.625 463.394 78.625 463.393 78.625 463.392C78.625 463.392 78.625 463.391 78.625 463.39C78.625 463.389 78.625 463.389 78.625 463.388C78.625 463.387 78.625 463.386 78.625 463.385C78.625 463.385 78.625 463.384 78.625 463.383C78.625 463.382 78.625 463.382 78.625 463.381C78.625 463.38 78.625 463.379 78.625 463.378C78.625 463.378 78.625 463.377 78.625 463.376C78.625 463.375 78.625 463.375 78.625 463.374C78.625 463.373 78.625 463.372 78.625 463.371C78.625 463.371 78.625 463.37 78.625 463.369C78.625 463.368 78.625 463.367 78.625 463.367C78.625 463.366 78.625 463.365 78.625 463.364C78.625 463.364 78.625 463.363 78.625 463.362C78.625 463.361 78.625 463.36 78.625 463.36C78.625 463.359 78.625 463.358 78.625 463.357C78.625 463.357 78.625 463.356 78.625 463.355C78.625 463.354 78.625 463.353 78.625 463.353C78.625 463.352 78.625 463.351 78.625 463.35C78.625 463.349 78.625 463.349 78.625 463.348C78.625 463.347 78.625 463.346 78.625 463.346C78.625 463.345 78.625 463.344 78.625 463.343C78.625 463.342 78.625 463.342 78.625 463.341C78.625 463.34 78.625 463.339 78.625 463.339C78.625 463.338 78.625 463.337 78.625 463.336C78.625 463.335 78.625 463.335 78.625 463.334C78.625 463.333 78.625 463.332 78.625 463.331C78.625 463.331 78.625 463.33 78.625 463.329C78.625 463.328 78.625 463.328 78.625 463.327C78.625 463.326 78.625 463.325 78.625 463.324C78.625 463.324 78.625 463.323 78.625 463.322C78.625 463.321 78.625 463.32 78.625 463.32C78.625 463.319 78.625 463.318 78.625 463.317C78.625 463.316 78.625 463.316 78.625 463.315C78.625 463.314 78.625 463.313 78.625 463.313C78.625 463.312 78.625 463.311 78.625 463.31C78.625 463.309 78.625 463.309 78.625 463.308C78.625 463.307 78.625 463.306 78.625 463.305C78.625 463.305 78.625 463.304 78.625 463.303C78.625 463.302 78.625 463.301 78.625 463.301C78.625 463.3 78.625 463.299 78.625 463.298C78.625 463.298 78.625 463.297 78.625 463.296C78.625 463.295 78.625 463.294 78.625 463.294C78.625 463.293 78.625 463.292 78.625 463.291C78.625 463.29 78.625 463.29 78.625 463.289C78.625 463.288 78.625 463.287 78.625 463.286C78.625 463.286 78.625 463.285 78.625 463.284C78.625 463.283 78.625 463.282 78.625 463.282C78.625 463.281 78.625 463.28 78.625 463.279C78.625 463.279 78.625 463.278 78.625 463.277C78.625 463.276 78.625 463.275 78.625 463.275C78.625 463.274 78.625 463.273 78.625 463.272C78.625 463.271 78.625 463.271 78.625 463.27C78.625 463.269 78.625 463.268 78.625 463.267C78.625 463.267 78.625 463.266 78.625 463.265C78.625 463.264 78.625 463.263 78.625 463.263C78.625 463.262 78.625 463.261 78.625 463.26C78.625 463.259 78.625 463.259 78.625 463.258C78.625 463.257 78.625 463.256 78.625 463.255C78.625 463.255 78.625 463.254 78.625 463.253C78.625 463.252 78.625 463.251 78.625 463.251C78.625 463.25 78.625 463.249 78.625 463.248C78.625 463.247 78.625 463.247 78.625 463.246C78.625 463.245 78.625 463.244 78.625 463.243C78.625 463.243 78.625 463.242 78.625 463.241C78.625 463.24 78.625 463.239 78.625 463.239C78.625 463.238 78.625 463.237 78.625 463.236C78.625 463.235 78.625 463.235 78.625 463.234C78.625 463.233 78.625 463.232 78.625 463.231C78.625 463.231 78.625 463.23 78.625 463.229C78.625 463.228 78.625 463.227 78.625 463.227C78.625 463.226 78.625 463.225 78.625 463.224C78.625 463.223 78.625 463.223 78.625 463.222C78.625 463.221 78.625 463.22 78.625 463.219C78.625 463.219 78.625 463.218 78.625 463.217C78.625 463.216 78.625 463.215 78.625 463.215C78.625 463.214 78.625 463.213 78.625 463.212C78.625 463.211 78.625 463.211 78.625 463.21C78.625 463.209 78.625 463.208 78.625 463.207C78.625 463.207 78.625 463.206 78.625 463.205C78.625 463.204 78.625 463.203 78.625 463.203C78.625 463.202 78.625 463.201 78.625 463.2C78.625 463.199 78.625 463.199 78.625 463.198C78.625 463.197 78.625 463.196 78.625 463.195C78.625 463.195 78.625 463.194 78.625 463.193C78.625 463.192 78.625 463.191 78.625 463.191C78.625 463.19 78.625 463.189 78.625 463.188C78.625 463.187 78.625 463.187 78.625 463.186C78.625 463.185 78.625 463.184 78.625 463.183C78.625 463.183 78.625 463.182 78.625 463.181C78.625 463.18 78.625 463.179 78.625 463.178C78.625 463.178 78.625 463.177 78.625 463.176C78.625 463.175 78.625 463.174 78.625 463.174C78.625 463.173 78.625 463.172 78.625 463.171C78.625 463.17 78.625 463.17 78.625 463.169C78.625 463.168 78.625 463.167 78.625 463.166C78.625 463.166 78.625 463.165 78.625 463.164C78.625 463.163 78.625 463.162 78.625 463.162C78.625 463.161 78.625 463.16 78.625 463.159C78.625 463.158 78.625 463.157 78.625 463.157C78.625 463.156 78.625 463.155 78.625 463.154C78.625 463.153 78.625 463.153 78.625 463.152C78.625 463.151 78.625 463.15 78.625 463.149C78.625 463.149 78.625 463.148 78.625 463.147C78.625 463.146 78.625 463.145 78.625 463.145C78.625 463.144 78.625 463.143 78.625 463.142C78.625 463.141 78.625 463.14 78.625 463.14C78.625 463.139 78.625 463.138 78.625 463.137C78.625 463.136 78.625 463.136 78.625 463.135C78.625 463.134 78.625 463.133 78.625 463.132C78.625 463.132 78.625 463.131 78.625 463.13C78.625 463.129 78.625 463.128 78.625 463.127C78.625 463.127 78.625 463.126 78.625 463.125H76.625ZM76.625 464.25C76.625 464.664 76.6765 465.107 76.7694 465.571L78.7306 465.179C78.6568 464.81 78.625 464.502 78.625 464.25H76.625ZM77.7116 464.376L71.2116 464.626L71.2884 466.624L77.7884 466.374L77.7116 464.376ZM72.2399 465.484C71.9962 463.778 71.875 462.117 71.875 460.5H69.875C69.875 462.217 70.0038 463.972 70.2601 465.766L72.2399 465.484ZM71.875 460.5C71.875 456.698 72.5632 453.626 73.8768 451.231L72.1232 450.269C70.6034 453.04 69.875 456.469 69.875 460.5H71.875ZM73.8648 451.252C75.2986 448.783 77.0784 446.811 79.2005 445.318L78.0495 443.682C75.6716 445.356 73.7014 447.551 72.1352 450.248L73.8648 451.252ZM79.2005 445.318C81.3426 443.81 83.6781 442.782 86.2137 442.227L85.7863 440.273C82.9886 440.885 80.4074 442.023 78.0495 443.682L79.2005 445.318ZM86.2425 442.22C88.8435 441.57 91.2614 441.25 93.5 441.25V439.25C91.0719 439.25 88.4898 439.597 85.7575 440.28L86.2425 442.22ZM93.5 441.25C98.3282 441.25 102.116 441.989 104.928 443.394L105.822 441.606C102.634 440.011 98.5051 439.25 93.5 439.25V441.25ZM104.938 443.399C107.924 444.852 110.168 446.56 111.719 448.5L113.281 447.25C111.499 445.023 108.993 443.148 105.812 441.601L104.938 443.399ZM111.732 448.515C113.31 450.409 114.313 452.392 114.774 454.467L116.726 454.033C116.187 451.608 115.024 449.341 113.268 447.235L111.732 448.515ZM114.784 454.51C115.355 456.629 115.625 458.37 115.625 459.75H117.625C117.625 458.13 117.312 456.204 116.716 453.99L114.784 454.51ZM115.625 459.75C115.625 464.516 114.536 468.292 112.442 471.161L114.058 472.339C116.464 469.041 117.625 464.817 117.625 459.75H115.625ZM112.45 471.15C110.272 474.054 107.882 476.152 105.292 477.486L106.208 479.264C109.118 477.765 111.728 475.446 114.05 472.35L112.45 471.15ZM105.616 479.366C108.596 479.769 111.411 480.614 114.064 481.9L114.936 480.1C112.089 478.72 109.07 477.815 105.884 477.384L105.616 479.366ZM114.074 481.905C116.805 483.19 119.21 484.874 121.293 486.957L122.707 485.543C120.457 483.293 117.861 481.477 114.926 480.095L114.074 481.905ZM121.307 486.971C123.377 488.961 125.011 491.311 126.21 494.029L128.04 493.221C126.739 490.273 124.957 487.706 122.693 485.529L121.307 486.971ZM126.22 494.051C127.484 496.736 128.125 499.755 128.125 503.125H130.125C130.125 499.495 129.433 496.181 128.03 493.199L126.22 494.051ZM128.125 503.125C128.125 506.92 127.439 510.274 126.091 513.207L127.909 514.043C129.394 510.809 130.125 507.164 130.125 503.125H128.125ZM126.096 513.198C124.738 516.073 122.865 518.544 120.47 520.619L121.78 522.131C124.385 519.873 126.428 517.177 127.904 514.052L126.096 513.198ZM120.485 520.607C118.098 522.596 115.219 524.12 111.829 525.17L112.421 527.08C116.031 525.963 119.152 524.321 121.765 522.143L120.485 520.607ZM111.829 525.17C108.437 526.22 104.705 526.75 100.625 526.75V528.75C104.878 528.75 108.813 528.197 112.421 527.08L111.829 525.17ZM100.625 526.75C94.2904 526.75 88.6368 525.25 83.6375 522.266L82.6125 523.984C87.9466 527.167 93.9596 528.75 100.625 528.75V526.75ZM83.6436 522.27C78.8185 519.343 75.2328 514.406 72.9519 507.319L71.0481 507.931C73.4339 515.344 77.2649 520.74 82.6064 523.98L83.6436 522.27ZM72.519 508.48L79.519 504.23L78.481 502.52L71.481 506.77L72.519 508.48ZM78 503.375C78 504.388 78.4374 505.531 79.1318 506.746L80.8682 505.754C80.2292 504.636 80 503.862 80 503.375H78ZM79.1318 506.746C79.811 507.935 80.5733 509.163 81.4179 510.43L83.0821 509.32C82.26 508.087 81.5223 506.898 80.8682 505.754L79.1318 506.746ZM81.4637 510.493C82.3875 511.669 83.3118 512.803 84.2366 513.896L85.7634 512.604C84.8549 511.53 83.9458 510.415 83.0363 509.257L81.4637 510.493ZM84.2366 513.896C85.1641 514.992 85.9548 515.832 86.5992 516.384L87.9008 514.866C87.3786 514.418 86.6693 513.675 85.7634 512.604L84.2366 513.896ZM86.5429 516.332C88.1046 517.894 90.1045 518.972 92.499 519.593L93.001 517.657C90.8955 517.111 89.2287 516.189 87.9571 514.918L86.5429 516.332ZM92.499 519.593C94.8342 520.198 97.252 520.5 99.75 520.5V518.5C97.4146 518.5 95.1658 518.218 93.001 517.657L92.499 519.593ZM99.75 520.5C106.393 520.5 111.796 519.009 115.856 515.921L114.644 514.329C111.037 517.074 106.107 518.5 99.75 518.5V520.5ZM115.856 515.921C119.967 512.793 122 508.357 122 502.75H120C120 507.809 118.2 511.624 114.644 514.329L115.856 515.921ZM122 502.75C122 498.811 120.946 495.35 118.809 492.412L117.191 493.588C119.054 496.15 120 499.189 120 502.75H122ZM118.828 492.44C116.842 489.504 114.492 487.189 111.773 485.522L110.727 487.228C113.174 488.727 115.325 490.83 117.172 493.56L118.828 492.44ZM111.764 485.518C109.158 483.954 106.518 483.022 103.85 482.755L103.65 484.745C105.982 484.978 108.342 485.796 110.736 487.232L111.764 485.518ZM103.85 482.755C101.306 482.501 98.2714 482.375 94.75 482.375V484.375C98.2286 484.375 101.194 484.499 103.65 484.745L103.85 482.755Z" fill="#4C4AA1" mask="url(#path-19-outside-3_492_64)"/>
<g filter="url(#filter8_d_492_64)">
<circle cx="882" cy="516" r="65" fill="white"/>
</g>
<rect x="789.448" y="644.409" width="2" height="151.591" rx="1" fill="#B6B6B6"/>
<g filter="url(#filter9_d_492_64)">
<path d="M10 654H791V786H10V654Z" fill="#1BABD0"/>
<path d="M790 654V786H792V654H790Z" fill="#868686"/>
</g>
<g filter="url(#filter10_d_492_64)">
<path d="M10 652C10 635.431 23.4315 622 40 622H165.789C170.043 622 174.097 623.806 176.942 626.969L225.188 680.607C228.528 684.32 228.616 689.928 225.395 693.744L176.967 751.129C174.117 754.506 169.923 756.455 165.504 756.455H120.508C120.508 756.455 93.5385 756.455 53.0849 756.455C12.6313 756.455 10 786.443 10 786.443V652Z" fill="white"/>
</g>
<mask id="path-26-outside-4_492_64" maskUnits="userSpaceOnUse" x="70" y="645" width="61" height="91" fill="black">
<rect fill="white" x="70" y="645" width="61" height="91"/>
<path d="M107 734.875V711.625H75L71.5 708.625L78.25 646.875L86 647.625L80.25 703.375H107.125V648.625H115V704.125H129.5V711.875H114.875V734.875H107Z"/>
</mask>
<path d="M107 734.875V711.625H75L71.5 708.625L78.25 646.875L86 647.625L80.25 703.375H107.125V648.625H115V704.125H129.5V711.875H114.875V734.875H107Z" fill="#4C4AA1"/>
<path d="M107 734.875H106V735.875H107V734.875ZM107 711.625H108V710.625H107V711.625ZM75 711.625L74.3492 712.384L74.6301 712.625H75V711.625ZM71.5 708.625L70.5059 708.516L70.4486 709.041L70.8492 709.384L71.5 708.625ZM78.25 646.875L78.3463 645.88L77.3632 645.785L77.2559 646.766L78.25 646.875ZM86 647.625L86.9947 647.728L87.098 646.727L86.0963 646.63L86 647.625ZM80.25 703.375L79.2553 703.272L79.1416 704.375H80.25V703.375ZM107.125 703.375V704.375H108.125V703.375H107.125ZM107.125 648.625V647.625H106.125V648.625H107.125ZM115 648.625H116V647.625H115V648.625ZM115 704.125H114V705.125H115V704.125ZM129.5 704.125H130.5V703.125H129.5V704.125ZM129.5 711.875V712.875H130.5V711.875H129.5ZM114.875 711.875V710.875H113.875V711.875H114.875ZM114.875 734.875V735.875H115.875V734.875H114.875ZM108 734.875V711.625H106V734.875H108ZM107 710.625H75V712.625H107V710.625ZM75.6508 710.866L72.1508 707.866L70.8492 709.384L74.3492 712.384L75.6508 710.866ZM72.4941 708.734L79.2441 646.984L77.2559 646.766L70.5059 708.516L72.4941 708.734ZM78.1537 647.87L85.9037 648.62L86.0963 646.63L78.3463 645.88L78.1537 647.87ZM85.0053 647.522L79.2553 703.272L81.2447 703.478L86.9947 647.728L85.0053 647.522ZM80.25 704.375H107.125V702.375H80.25V704.375ZM108.125 703.375V648.625H106.125V703.375H108.125ZM107.125 649.625H115V647.625H107.125V649.625ZM114 648.625V704.125H116V648.625H114ZM115 705.125H129.5V703.125H115V705.125ZM128.5 704.125V711.875H130.5V704.125H128.5ZM129.5 710.875H114.875V712.875H129.5V710.875ZM113.875 711.875V734.875H115.875V711.875H113.875ZM114.875 733.875H107V735.875H114.875V733.875Z" fill="#4C4AA1" mask="url(#path-26-outside-4_492_64)"/>
<g filter="url(#filter11_d_492_64)">
<circle cx="882" cy="720" r="65" fill="white"/>
</g>
<defs>
<filter id="filter0_d_492_64" x="7" y="39" width="802" height="152" filterUnits="userSpaceOnUse" color-interpolation-filters="sRGB">
<feFlood flood-opacity="0" result="BackgroundImageFix"/>
<feColorMatrix in="SourceAlpha" type="matrix" values="0 0 0 0 0 0 0 0 0 0 0 0 0 0 0 0 0 0 127 0" result="hardAlpha"/>
<feOffset dx="7" dy="7"/>
<feGaussianBlur stdDeviation="5"/>
<feComposite in2="hardAlpha" operator="out"/>
<feColorMatrix type="matrix" values="0 0 0 0 0 0 0 0 0 0 0 0 0 0 0 0 0 0 0.25 0"/>
<feBlend mode="normal" in2="BackgroundImageFix" result="effect1_dropShadow_492_64"/>
<feBlend mode="normal" in="SourceGraphic" in2="effect1_dropShadow_492_64" result="shape"/>
</filter>
<filter id="filter1_d_492_64" x="0" y="0" width="257.753" height="204.443" filterUnits="userSpaceOnUse" color-interpolation-filters="sRGB">
<feFlood flood-opacity="0" result="BackgroundImageFix"/>
<feColorMatrix in="SourceAlpha" type="matrix" values="0 0 0 0 0 0 0 0 0 0 0 0 0 0 0 0 0 0 127 0" result="hardAlpha"/>
<feOffset dx="10" dy="10"/>
<feGaussianBlur stdDeviation="10"/>
<feComposite in2="hardAlpha" operator="out"/>
<feColorMatrix type="matrix" values="0 0 0 0 0 0 0 0 0 0 0 0 0 0 0 0 0 0 0.25 0"/>
<feBlend mode="normal" in2="BackgroundImageFix" result="effect1_dropShadow_492_64"/>
<feBlend mode="normal" in="SourceGraphic" in2="effect1_dropShadow_492_64" result="shape"/>
</filter>
<filter id="filter2_d_492_64" x="802" y="28" width="190" height="190" filterUnits="userSpaceOnUse" color-interpolation-filters="sRGB">
<feFlood flood-opacity="0" result="BackgroundImageFix"/>
<feColorMatrix in="SourceAlpha" type="matrix" values="0 0 0 0 0 0 0 0 0 0 0 0 0 0 0 0 0 0 127 0" result="hardAlpha"/>
<feOffset dx="15" dy="15"/>
<feGaussianBlur stdDeviation="15"/>
<feComposite in2="hardAlpha" operator="out"/>
<feColorMatrix type="matrix" values="0 0 0 0 0 0 0 0 0 0 0 0 0 0 0 0 0 0 0.25 0"/>
<feBlend mode="normal" in2="BackgroundImageFix" result="effect1_dropShadow_492_64"/>
<feBlend mode="normal" in="SourceGraphic" in2="effect1_dropShadow_492_64" result="shape"/>
</filter>
<filter id="filter3_d_492_64" x="7" y="243" width="802" height="152" filterUnits="userSpaceOnUse" color-interpolation-filters="sRGB">
<feFlood flood-opacity="0" result="BackgroundImageFix"/>
<feColorMatrix in="SourceAlpha" type="matrix" values="0 0 0 0 0 0 0 0 0 0 0 0 0 0 0 0 0 0 127 0" result="hardAlpha"/>
<feOffset dx="7" dy="7"/>
<feGaussianBlur stdDeviation="5"/>
<feComposite in2="hardAlpha" operator="out"/>
<feColorMatrix type="matrix" values="0 0 0 0 0 0 0 0 0 0 0 0 0 0 0 0 0 0 0.25 0"/>
<feBlend mode="normal" in2="BackgroundImageFix" result="effect1_dropShadow_492_64"/>
<feBlend mode="normal" in="SourceGraphic" in2="effect1_dropShadow_492_64" result="shape"/>
</filter>
<filter id="filter4_d_492_64" x="0" y="204" width="257.753" height="204.443" filterUnits="userSpaceOnUse" color-interpolation-filters="sRGB">
<feFlood flood-opacity="0" result="BackgroundImageFix"/>
<feColorMatrix in="SourceAlpha" type="matrix" values="0 0 0 0 0 0 0 0 0 0 0 0 0 0 0 0 0 0 127 0" result="hardAlpha"/>
<feOffset dx="10" dy="10"/>
<feGaussianBlur stdDeviation="10"/>
<feComposite in2="hardAlpha" operator="out"/>
<feColorMatrix type="matrix" values="0 0 0 0 0 0 0 0 0 0 0 0 0 0 0 0 0 0 0.25 0"/>
<feBlend mode="normal" in2="BackgroundImageFix" result="effect1_dropShadow_492_64"/>
<feBlend mode="normal" in="SourceGraphic" in2="effect1_dropShadow_492_64" result="shape"/>
</filter>
<filter id="filter5_d_492_64" x="802" y="232" width="190" height="190" filterUnits="userSpaceOnUse" color-interpolation-filters="sRGB">
<feFlood flood-opacity="0" result="BackgroundImageFix"/>
<feColorMatrix in="SourceAlpha" type="matrix" values="0 0 0 0 0 0 0 0 0 0 0 0 0 0 0 0 0 0 127 0" result="hardAlpha"/>
<feOffset dx="15" dy="15"/>
<feGaussianBlur stdDeviation="15"/>
<feComposite in2="hardAlpha" operator="out"/>
<feColorMatrix type="matrix" values="0 0 0 0 0 0 0 0 0 0 0 0 0 0 0 0 0 0 0.25 0"/>
<feBlend mode="normal" in2="BackgroundImageFix" result="effect1_dropShadow_492_64"/>
<feBlend mode="normal" in="SourceGraphic" in2="effect1_dropShadow_492_64" result="shape"/>
</filter>
<filter id="filter6_d_492_64" x="7" y="447" width="802" height="152" filterUnits="userSpaceOnUse" color-interpolation-filters="sRGB">
<feFlood flood-opacity="0" result="BackgroundImageFix"/>
<feColorMatrix in="SourceAlpha" type="matrix" values="0 0 0 0 0 0 0 0 0 0 0 0 0 0 0 0 0 0 127 0" result="hardAlpha"/>
<feOffset dx="7" dy="7"/>
<feGaussianBlur stdDeviation="5"/>
<feComposite in2="hardAlpha" operator="out"/>
<feColorMatrix type="matrix" values="0 0 0 0 0 0 0 0 0 0 0 0 0 0 0 0 0 0 0.25 0"/>
<feBlend mode="normal" in2="BackgroundImageFix" result="effect1_dropShadow_492_64"/>
<feBlend mode="normal" in="SourceGraphic" in2="effect1_dropShadow_492_64" result="shape"/>
</filter>
<filter id="filter7_d_492_64" x="0" y="408" width="257.753" height="204.443" filterUnits="userSpaceOnUse" color-interpolation-filters="sRGB">
<feFlood flood-opacity="0" result="BackgroundImageFix"/>
<feColorMatrix in="SourceAlpha" type="matrix" values="0 0 0 0 0 0 0 0 0 0 0 0 0 0 0 0 0 0 127 0" result="hardAlpha"/>
<feOffset dx="10" dy="10"/>
<feGaussianBlur stdDeviation="10"/>
<feComposite in2="hardAlpha" operator="out"/>
<feColorMatrix type="matrix" values="0 0 0 0 0 0 0 0 0 0 0 0 0 0 0 0 0 0 0.25 0"/>
<feBlend mode="normal" in2="BackgroundImageFix" result="effect1_dropShadow_492_64"/>
<feBlend mode="normal" in="SourceGraphic" in2="effect1_dropShadow_492_64" result="shape"/>
</filter>
<filter id="filter8_d_492_64" x="802" y="436" width="190" height="190" filterUnits="userSpaceOnUse" color-interpolation-filters="sRGB">
<feFlood flood-opacity="0" result="BackgroundImageFix"/>
<feColorMatrix in="SourceAlpha" type="matrix" values="0 0 0 0 0 0 0 0 0 0 0 0 0 0 0 0 0 0 127 0" result="hardAlpha"/>
<feOffset dx="15" dy="15"/>
<feGaussianBlur stdDeviation="15"/>
<feComposite in2="hardAlpha" operator="out"/>
<feColorMatrix type="matrix" values="0 0 0 0 0 0 0 0 0 0 0 0 0 0 0 0 0 0 0.25 0"/>
<feBlend mode="normal" in2="BackgroundImageFix" result="effect1_dropShadow_492_64"/>
<feBlend mode="normal" in="SourceGraphic" in2="effect1_dropShadow_492_64" result="shape"/>
</filter>
<filter id="filter9_d_492_64" x="7" y="651" width="802" height="152" filterUnits="userSpaceOnUse" color-interpolation-filters="sRGB">
<feFlood flood-opacity="0" result="BackgroundImageFix"/>
<feColorMatrix in="SourceAlpha" type="matrix" values="0 0 0 0 0 0 0 0 0 0 0 0 0 0 0 0 0 0 127 0" result="hardAlpha"/>
<feOffset dx="7" dy="7"/>
<feGaussianBlur stdDeviation="5"/>
<feComposite in2="hardAlpha" operator="out"/>
<feColorMatrix type="matrix" values="0 0 0 0 0 0 0 0 0 0 0 0 0 0 0 0 0 0 0.25 0"/>
<feBlend mode="normal" in2="BackgroundImageFix" result="effect1_dropShadow_492_64"/>
<feBlend mode="normal" in="SourceGraphic" in2="effect1_dropShadow_492_64" result="shape"/>
</filter>
<filter id="filter10_d_492_64" x="0" y="612" width="257.753" height="204.443" filterUnits="userSpaceOnUse" color-interpolation-filters="sRGB">
<feFlood flood-opacity="0" result="BackgroundImageFix"/>
<feColorMatrix in="SourceAlpha" type="matrix" values="0 0 0 0 0 0 0 0 0 0 0 0 0 0 0 0 0 0 127 0" result="hardAlpha"/>
<feOffset dx="10" dy="10"/>
<feGaussianBlur stdDeviation="10"/>
<feComposite in2="hardAlpha" operator="out"/>
<feColorMatrix type="matrix" values="0 0 0 0 0 0 0 0 0 0 0 0 0 0 0 0 0 0 0.25 0"/>
<feBlend mode="normal" in2="BackgroundImageFix" result="effect1_dropShadow_492_64"/>
<feBlend mode="normal" in="SourceGraphic" in2="effect1_dropShadow_492_64" result="shape"/>
</filter>
<filter id="filter11_d_492_64" x="802" y="640" width="190" height="190" filterUnits="userSpaceOnUse" color-interpolation-filters="sRGB">
<feFlood flood-opacity="0" result="BackgroundImageFix"/>
<feColorMatrix in="SourceAlpha" type="matrix" values="0 0 0 0 0 0 0 0 0 0 0 0 0 0 0 0 0 0 127 0" result="hardAlpha"/>
<feOffset dx="15" dy="15"/>
<feGaussianBlur stdDeviation="15"/>
<feComposite in2="hardAlpha" operator="out"/>
<feColorMatrix type="matrix" values="0 0 0 0 0 0 0 0 0 0 0 0 0 0 0 0 0 0 0.25 0"/>
<feBlend mode="normal" in2="BackgroundImageFix" result="effect1_dropShadow_492_64"/>
<feBlend mode="normal" in="SourceGraphic" in2="effect1_dropShadow_492_64" result="shape"/>
</filter>
</defs>
</svg>
