<svg width="993" height="1216" viewBox="0 0 993 1216" fill="none" xmlns="http://www.w3.org/2000/svg">
<rect x="710" y="44" width="2" height="230" rx="1" fill="#B6B6B6"/>
<g filter="url(#filter0_d_471_2)">
<path d="M10 59H710V259H10V59Z" fill="#FA8746"/>
<path d="M709 59V259H711V59H709Z" fill="#626262"/>
</g>
<g filter="url(#filter1_d_471_2)">
<path d="M10 55C10 30.1472 30.1472 10 55 10H250.771C254.736 10 258.516 11.6816 261.171 14.6272L336.648 98.3736C342.005 104.318 342.147 113.306 336.98 119.416L261.195 209.04C258.535 212.186 254.624 214 250.504 214H178C178 214 137 214 75.5002 214C14.0002 214 10 259.5 10 259.5V55Z" fill="white"/>
</g>
<g filter="url(#filter2_d_471_2)">
<circle cx="848" cy="159" r="100" fill="white"/>
</g>
<rect x="710" y="348" width="2" height="230" rx="1" fill="#B6B6B6"/>
<g filter="url(#filter3_d_471_2)">
<path d="M10 363H710V563H10V363Z" fill="#FED01A"/>
<path d="M709 363V563H711V363H709Z" fill="#626262"/>
</g>
<g filter="url(#filter4_d_471_2)">
<path d="M10 359C10 334.147 30.1472 314 55 314H250.771C254.736 314 258.516 315.682 261.171 318.627L336.648 402.374C342.005 408.318 342.147 417.306 336.98 423.416L261.195 513.04C258.535 516.186 254.624 518 250.504 518H178C178 518 137 518 75.5002 518C14.0002 518 10 563.5 10 563.5V359Z" fill="white"/>
</g>
<g filter="url(#filter5_d_471_2)">
<circle cx="848" cy="463" r="100" fill="white"/>
</g>
<rect x="710" y="652" width="2" height="230" rx="1" fill="#B6B6B6"/>
<g filter="url(#filter6_d_471_2)">
<path d="M10 667H710V867H10V667Z" fill="#95C241"/>
<path d="M709 667V867H711V667H709Z" fill="#626262"/>
</g>
<g filter="url(#filter7_d_471_2)">
<path d="M10 663C10 638.147 30.1472 618 55 618H250.771C254.736 618 258.516 619.682 261.171 622.627L336.648 706.374C342.005 712.318 342.147 721.306 336.98 727.416L261.195 817.04C258.535 820.186 254.624 822 250.504 822H178C178 822 137 822 75.5002 822C14.0002 822 10 867.5 10 867.5V663Z" fill="white"/>
</g>
<g filter="url(#filter8_d_471_2)">
<circle cx="848" cy="767" r="100" fill="white"/>
</g>
<rect x="710" y="956" width="2" height="230" rx="1" fill="#B6B6B6"/>
<g filter="url(#filter9_d_471_2)">
<path d="M10 971H710V1171H10V971Z" fill="#1BABD0"/>
<path d="M709 971V1171H711V971H709Z" fill="#626262"/>
</g>
<g filter="url(#filter10_d_471_2)">
<path d="M10 967C10 942.147 30.1472 922 55 922H250.771C254.736 922 258.516 923.682 261.171 926.627L336.648 1010.37C342.005 1016.32 342.147 1025.31 336.98 1031.42L261.195 1121.04C258.535 1124.19 254.624 1126 250.504 1126H178C178 1126 137 1126 75.5002 1126C14.0002 1126 10 1171.5 10 1171.5V967Z" fill="white"/>
</g>
<g filter="url(#filter11_d_471_2)">
<circle cx="848" cy="1071" r="100" fill="white"/>
</g>
<defs>
<filter id="filter0_d_471_2" x="7" y="56" width="721" height="220" filterUnits="userSpaceOnUse" color-interpolation-filters="sRGB">
<feFlood flood-opacity="0" result="BackgroundImageFix"/>
<feColorMatrix in="SourceAlpha" type="matrix" values="0 0 0 0 0 0 0 0 0 0 0 0 0 0 0 0 0 0 127 0" result="hardAlpha"/>
<feOffset dx="7" dy="7"/>
<feGaussianBlur stdDeviation="5"/>
<feComposite in2="hardAlpha" operator="out"/>
<feColorMatrix type="matrix" values="0 0 0 0 0 0 0 0 0 0 0 0 0 0 0 0 0 0 0.25 0"/>
<feBlend mode="normal" in2="BackgroundImageFix" result="effect1_dropShadow_471_2"/>
<feBlend mode="normal" in="SourceGraphic" in2="effect1_dropShadow_471_2" result="shape"/>
</filter>
<filter id="filter1_d_471_2" x="0" y="0" width="370.763" height="289.5" filterUnits="userSpaceOnUse" color-interpolation-filters="sRGB">
<feFlood flood-opacity="0" result="BackgroundImageFix"/>
<feColorMatrix in="SourceAlpha" type="matrix" values="0 0 0 0 0 0 0 0 0 0 0 0 0 0 0 0 0 0 127 0" result="hardAlpha"/>
<feOffset dx="10" dy="10"/>
<feGaussianBlur stdDeviation="10"/>
<feComposite in2="hardAlpha" operator="out"/>
<feColorMatrix type="matrix" values="0 0 0 0 0 0 0 0 0 0 0 0 0 0 0 0 0 0 0.25 0"/>
<feBlend mode="normal" in2="BackgroundImageFix" result="effect1_dropShadow_471_2"/>
<feBlend mode="normal" in="SourceGraphic" in2="effect1_dropShadow_471_2" result="shape"/>
</filter>
<filter id="filter2_d_471_2" x="733" y="44" width="260" height="260" filterUnits="userSpaceOnUse" color-interpolation-filters="sRGB">
<feFlood flood-opacity="0" result="BackgroundImageFix"/>
<feColorMatrix in="SourceAlpha" type="matrix" values="0 0 0 0 0 0 0 0 0 0 0 0 0 0 0 0 0 0 127 0" result="hardAlpha"/>
<feOffset dx="15" dy="15"/>
<feGaussianBlur stdDeviation="15"/>
<feComposite in2="hardAlpha" operator="out"/>
<feColorMatrix type="matrix" values="0 0 0 0 0 0 0 0 0 0 0 0 0 0 0 0 0 0 0.25 0"/>
<feBlend mode="normal" in2="BackgroundImageFix" result="effect1_dropShadow_471_2"/>
<feBlend mode="normal" in="SourceGraphic" in2="effect1_dropShadow_471_2" result="shape"/>
</filter>
<filter id="filter3_d_471_2" x="7" y="360" width="721" height="220" filterUnits="userSpaceOnUse" color-interpolation-filters="sRGB">
<feFlood flood-opacity="0" result="BackgroundImageFix"/>
<feColorMatrix in="SourceAlpha" type="matrix" values="0 0 0 0 0 0 0 0 0 0 0 0 0 0 0 0 0 0 127 0" result="hardAlpha"/>
<feOffset dx="7" dy="7"/>
<feGaussianBlur stdDeviation="5"/>
<feComposite in2="hardAlpha" operator="out"/>
<feColorMatrix type="matrix" values="0 0 0 0 0 0 0 0 0 0 0 0 0 0 0 0 0 0 0.25 0"/>
<feBlend mode="normal" in2="BackgroundImageFix" result="effect1_dropShadow_471_2"/>
<feBlend mode="normal" in="SourceGraphic" in2="effect1_dropShadow_471_2" result="shape"/>
</filter>
<filter id="filter4_d_471_2" x="0" y="304" width="370.763" height="289.5" filterUnits="userSpaceOnUse" color-interpolation-filters="sRGB">
<feFlood flood-opacity="0" result="BackgroundImageFix"/>
<feColorMatrix in="SourceAlpha" type="matrix" values="0 0 0 0 0 0 0 0 0 0 0 0 0 0 0 0 0 0 127 0" result="hardAlpha"/>
<feOffset dx="10" dy="10"/>
<feGaussianBlur stdDeviation="10"/>
<feComposite in2="hardAlpha" operator="out"/>
<feColorMatrix type="matrix" values="0 0 0 0 0 0 0 0 0 0 0 0 0 0 0 0 0 0 0.25 0"/>
<feBlend mode="normal" in2="BackgroundImageFix" result="effect1_dropShadow_471_2"/>
<feBlend mode="normal" in="SourceGraphic" in2="effect1_dropShadow_471_2" result="shape"/>
</filter>
<filter id="filter5_d_471_2" x="733" y="348" width="260" height="260" filterUnits="userSpaceOnUse" color-interpolation-filters="sRGB">
<feFlood flood-opacity="0" result="BackgroundImageFix"/>
<feColorMatrix in="SourceAlpha" type="matrix" values="0 0 0 0 0 0 0 0 0 0 0 0 0 0 0 0 0 0 127 0" result="hardAlpha"/>
<feOffset dx="15" dy="15"/>
<feGaussianBlur stdDeviation="15"/>
<feComposite in2="hardAlpha" operator="out"/>
<feColorMatrix type="matrix" values="0 0 0 0 0 0 0 0 0 0 0 0 0 0 0 0 0 0 0.25 0"/>
<feBlend mode="normal" in2="BackgroundImageFix" result="effect1_dropShadow_471_2"/>
<feBlend mode="normal" in="SourceGraphic" in2="effect1_dropShadow_471_2" result="shape"/>
</filter>
<filter id="filter6_d_471_2" x="7" y="664" width="721" height="220" filterUnits="userSpaceOnUse" color-interpolation-filters="sRGB">
<feFlood flood-opacity="0" result="BackgroundImageFix"/>
<feColorMatrix in="SourceAlpha" type="matrix" values="0 0 0 0 0 0 0 0 0 0 0 0 0 0 0 0 0 0 127 0" result="hardAlpha"/>
<feOffset dx="7" dy="7"/>
<feGaussianBlur stdDeviation="5"/>
<feComposite in2="hardAlpha" operator="out"/>
<feColorMatrix type="matrix" values="0 0 0 0 0 0 0 0 0 0 0 0 0 0 0 0 0 0 0.25 0"/>
<feBlend mode="normal" in2="BackgroundImageFix" result="effect1_dropShadow_471_2"/>
<feBlend mode="normal" in="SourceGraphic" in2="effect1_dropShadow_471_2" result="shape"/>
</filter>
<filter id="filter7_d_471_2" x="0" y="608" width="370.763" height="289.5" filterUnits="userSpaceOnUse" color-interpolation-filters="sRGB">
<feFlood flood-opacity="0" result="BackgroundImageFix"/>
<feColorMatrix in="SourceAlpha" type="matrix" values="0 0 0 0 0 0 0 0 0 0 0 0 0 0 0 0 0 0 127 0" result="hardAlpha"/>
<feOffset dx="10" dy="10"/>
<feGaussianBlur stdDeviation="10"/>
<feComposite in2="hardAlpha" operator="out"/>
<feColorMatrix type="matrix" values="0 0 0 0 0 0 0 0 0 0 0 0 0 0 0 0 0 0 0.25 0"/>
<feBlend mode="normal" in2="BackgroundImageFix" result="effect1_dropShadow_471_2"/>
<feBlend mode="normal" in="SourceGraphic" in2="effect1_dropShadow_471_2" result="shape"/>
</filter>
<filter id="filter8_d_471_2" x="733" y="652" width="260" height="260" filterUnits="userSpaceOnUse" color-interpolation-filters="sRGB">
<feFlood flood-opacity="0" result="BackgroundImageFix"/>
<feColorMatrix in="SourceAlpha" type="matrix" values="0 0 0 0 0 0 0 0 0 0 0 0 0 0 0 0 0 0 127 0" result="hardAlpha"/>
<feOffset dx="15" dy="15"/>
<feGaussianBlur stdDeviation="15"/>
<feComposite in2="hardAlpha" operator="out"/>
<feColorMatrix type="matrix" values="0 0 0 0 0 0 0 0 0 0 0 0 0 0 0 0 0 0 0.25 0"/>
<feBlend mode="normal" in2="BackgroundImageFix" result="effect1_dropShadow_471_2"/>
<feBlend mode="normal" in="SourceGraphic" in2="effect1_dropShadow_471_2" result="shape"/>
</filter>
<filter id="filter9_d_471_2" x="7" y="968" width="721" height="220" filterUnits="userSpaceOnUse" color-interpolation-filters="sRGB">
<feFlood flood-opacity="0" result="BackgroundImageFix"/>
<feColorMatrix in="SourceAlpha" type="matrix" values="0 0 0 0 0 0 0 0 0 0 0 0 0 0 0 0 0 0 127 0" result="hardAlpha"/>
<feOffset dx="7" dy="7"/>
<feGaussianBlur stdDeviation="5"/>
<feComposite in2="hardAlpha" operator="out"/>
<feColorMatrix type="matrix" values="0 0 0 0 0 0 0 0 0 0 0 0 0 0 0 0 0 0 0.25 0"/>
<feBlend mode="normal" in2="BackgroundImageFix" result="effect1_dropShadow_471_2"/>
<feBlend mode="normal" in="SourceGraphic" in2="effect1_dropShadow_471_2" result="shape"/>
</filter>
<filter id="filter10_d_471_2" x="0" y="912" width="370.763" height="289.5" filterUnits="userSpaceOnUse" color-interpolation-filters="sRGB">
<feFlood flood-opacity="0" result="BackgroundImageFix"/>
<feColorMatrix in="SourceAlpha" type="matrix" values="0 0 0 0 0 0 0 0 0 0 0 0 0 0 0 0 0 0 127 0" result="hardAlpha"/>
<feOffset dx="10" dy="10"/>
<feGaussianBlur stdDeviation="10"/>
<feComposite in2="hardAlpha" operator="out"/>
<feColorMatrix type="matrix" values="0 0 0 0 0 0 0 0 0 0 0 0 0 0 0 0 0 0 0.25 0"/>
<feBlend mode="normal" in2="BackgroundImageFix" result="effect1_dropShadow_471_2"/>
<feBlend mode="normal" in="SourceGraphic" in2="effect1_dropShadow_471_2" result="shape"/>
</filter>
<filter id="filter11_d_471_2" x="733" y="956" width="260" height="260" filterUnits="userSpaceOnUse" color-interpolation-filters="sRGB">
<feFlood flood-opacity="0" result="BackgroundImageFix"/>
<feColorMatrix in="SourceAlpha" type="matrix" values="0 0 0 0 0 0 0 0 0 0 0 0 0 0 0 0 0 0 127 0" result="hardAlpha"/>
<feOffset dx="15" dy="15"/>
<feGaussianBlur stdDeviation="15"/>
<feComposite in2="hardAlpha" operator="out"/>
<feColorMatrix type="matrix" values="0 0 0 0 0 0 0 0 0 0 0 0 0 0 0 0 0 0 0.25 0"/>
<feBlend mode="normal" in2="BackgroundImageFix" result="effect1_dropShadow_471_2"/>
<feBlend mode="normal" in="SourceGraphic" in2="effect1_dropShadow_471_2" result="shape"/>
</filter>
</defs>
</svg>
