<?xml version="1.0" encoding="utf-8"?>
<!-- Generator: Adobe Illustrator 28.1.0, SVG Export Plug-In . SVG Version: 6.00 Build 0)  -->
<svg version="1.1" id="Layer_1" xmlns="http://www.w3.org/2000/svg" xmlns:xlink="http://www.w3.org/1999/xlink" x="0px" y="0px"
	 viewBox="0 0 321.6 321.6" style="enable-background:new 0 0 321.6 321.6;" xml:space="preserve">
<style type="text/css">
	.st0{fill:#50E2CA;}
</style>
<path class="st0" d="M19,135.5c19.2,3,37.4-16.3,55.6-23.8c10.4-4.3,23.2-4.4,31,2c1.5-13.8,9.2-27.5,18.8-38.2
	c8.1-9.1,17.5-16.6,26.6-24.4c10.5-8.9,20.9-17.8,31.4-26.7c1-0.9,2.8-0.7,3.5,0.2c14.3,20.2,20.8,46.9,17.9,75
	c27.1-7.4,54.6-5.8,81.4-17.5c3.5-1.5,6.9-3.2,10.2-5.2c3-1.8,5.9-4,9.1-5.3c5.1-2.1,13.5-4.2,13.5-4.2s-2.6,15.8-3.3,18.9
	c-1,4.3-2.2,8.7-3.6,12.9c-2.6,8.1-5.9,16-9.7,23.7c-15.3,31.3-38.7,57.6-64.2,79.2c-19.2,16.2-39.6,30.1-60.3,43.3
	c9.5-1.7,18.9-3,28.4-4c6.4-0.7,15,0.1,20.9-4.8c2.3-1.9,5.2-5.9,4.1-9c-0.8-2.2-3.8-3.2-5.6-1.1c-2.8,3.3-6.6-0.9-3.8-4.3
	c3.6-4.3,9-4.4,12.4-1.4c3.9,3.4,3.7,9.8,0.7,15c-3.7,6.4-9.8,9.4-15.8,10.6c-7.2,1.4-14.5,1.6-21.7,2.5c-11.5,1.4-23,3.4-34.4,5.8
	c-2.7,1.7-5.3,3.3-8,5c-14.2,8.8-28.6,17.4-43.3,24.7c-13,6.5-27.8,14.1-41.4,13.1c-5.9-0.4-11.2-2.9-14.5-7.9
	c-1.2-1.9-0.6-4.5,1.7-5.6c15.6-7.4,31.5-13.9,47.5-19.5c-16.6-0.7-32.7-3.5-48.1-8.5c-16.5-5.3-35.5-12-46-27
	c-5-7.1-7.3-15.7-5.4-25.7c0.3-1.8,2.4-2.9,3.7-2.7c6.8,1.2,13.5,0,20-2.7c-12.1-15.1-17.1-36.9-13-59.2
	C15.5,136.8,17.1,135.2,19,135.5z M182.7,31.6c-8.3,7.1-16.6,14.1-24.9,21.2c-8.6,7.3-17.4,14.4-25.5,22.5c-12,12.1-23.7,30.2-21,47
	c0.5,1.4,0.9,3,1.1,4.7c0,0.1,0,0.2,0,0.2c8.4-4.1,17.3-6.1,26.7-4.7c5.7,0.9,11.5,3.2,16.6,6.6c11.3-13.4,27-22.7,42-27.7
	C200.7,75.6,195.4,50.6,182.7,31.6z M146.1,169.5c0.4,2.1,1.1,4,2.3,5.7c2.1,3,6.3,7,10.4,4.5c0.8-0.5,1.5-1.2,2.1-2
	c4.6-5.7,5.5-11.7,5-18.2c-0.8-9.6-3.2-15.9-9.6-21.6c-0.1-0.1-4.6,7.7-5,8.4c-1.6,3.3-3.1,6.7-4.1,10.1
	C146,160.8,145.3,165.5,146.1,169.5z M62.4,288.2c8,6.3,21.2,1.8,31.1-2.3c13.8-5.8,27.3-13,40.5-20.7c3.4-2,6.8-4,10.2-6.1
	c-12.4,3.2-24.8,6.8-37.1,11.1C92,275.3,77.1,281.4,62.4,288.2z M9.6,207.7c-1.8,21.5,22.3,32,36.4,37.8c12.5,5.1,50.6,13.4,89,5.4
	c33.1-6.9,67.3-29.3,74.6-34.6c24.4-17.6,47.8-38,66.7-63.3c9.5-12.8,17.9-26.8,24.1-41.6c3-7.1,5.5-14.5,7.5-21.9
	c0.8-3.1,2.2-12.9,2.2-12.9s-6,1.6-8.2,3c-11.4,7.1-22.7,12-35,15.1c-12.4,3-24.8,4.5-37.2,6.3c-24.1,3.5-50.6,9.2-69.5,31.7
	c10.9,9.4,17.7,24.3,13.1,41.1c-3.2,11.8-14.3,21.1-23.9,15.2c-9.6-5.9-10.9-20.3-8-32.5c2-8.2,5.5-15.5,10.1-22.1
	c-4.2-2.7-9-4.6-14.1-5.4c-23.3-3.8-44,17.1-61,35.7c-16.1,17.6-34,37.4-55.9,42.2C16.9,207.8,13.2,208,9.6,207.7z M34.4,195.2
	c14.3-8,27.4-22.6,38.5-34.7c10.3-11.3,21.8-22.9,34.2-30.4c0-0.1-0.1-0.1-0.1-0.2c-0.1-0.3-0.1-0.5-0.2-0.8c0,0,0,0,0,0
	c0-0.3-0.1-0.6-0.2-0.9c-0.2-0.8-0.4-1.6-0.5-2.3c-2.1-6.4-7.9-9.9-14.2-10.9c-8.5-1.3-17.6,2.9-25.7,7.6
	c-14.8,8.5-29.8,20.3-45.7,19.6C17.6,162.6,22.7,182,34.4,195.2z"/>
</svg>
