<svg width="40" height="41" viewBox="0 0 40 41" fill="none" xmlns="http://www.w3.org/2000/svg">
<path d="M25.875 41H34C37.3 41 40 38.3 40 35V19C40 15.7 37.3 13 34 13H29.1625C28.5875 13 28.125 12.5125 28.1625 11.925C28.45 7.4875 30.5125 4.4 32.075 2.6625C32.6625 2.0125 32.2 0.987499 31.3375 0.987499H26.35C26.0375 0.987499 25.75 1.125 25.5625 1.375C24.6375 2.575 22 6.575 22 13.1125V37.1125C22 39.3375 23.6625 41 25.875 41ZM3.875 41H12C15.3 41 18 38.3 18 35V19C18 15.7 15.3 13 12 13H7.1625C6.5875 13 6.125 12.5125 6.1625 11.925C6.45 7.4875 8.5125 4.4 10.075 2.6625C10.6625 2.0125 10.2 0.987499 9.3375 0.987499H4.35C4.0375 0.987499 3.75 1.125 3.5625 1.375C2.6375 2.575 0 6.575 0 13.1125V37.1125C0 39.3375 1.6625 41 3.875 41Z" fill="#50E2CA"/>
</svg>
