<?xml version="1.0" encoding="utf-8"?>
<!-- Generator: Adobe Illustrator 28.3.0, SVG Export Plug-In . SVG Version: 6.00 Build 0)  -->
<svg version="1.1" id="Layer_1" xmlns="http://www.w3.org/2000/svg" xmlns:xlink="http://www.w3.org/1999/xlink" x="0px" y="0px"
	 viewBox="0 0 101 53" style="enable-background:new 0 0 101 53;" xml:space="preserve">
<style type="text/css">
	.st0{fill:#5A69AF;}
	.st1{fill:#FFFFFF;filter:url(#Adobe_OpacityMaskFilter);}
	
		.st2{mask:url(#path-1-outside-1_432_58_00000000930436686762094450000006129125099519883449_);fill:none;stroke:#5A69AF;stroke-width:0.2;}
</style>
<path class="st0" d="M13.9,8.4c-0.9,0-1.7,0.3-2.4,1c-0.6,0.6-1,1.5-1,2.3c0,1.8,1.5,3.4,3.3,3.4c0.9,0,1.8-0.4,2.4-1
	c0,0,0-0.1,0.1-0.1c1.3-1.3,1.2-3.4-0.1-4.7C15.6,8.7,14.8,8.4,13.9,8.4z M51,31.7c1.6,0,3.3,0,4.4,5.7c0.4,2.7,1,5.5,1.9,8.1
	c0.6,1.9,1.3,3.3,2.1,3.1c1-0.4,1.9-3.2,2.4-6.8C62.1,38,62,33.5,60.8,30c-0.2-0.5-0.4-1-0.6-1.5c-1.8-3.6-4.5-6.7-7.9-9
	c-0.4-0.3-0.8-0.5-1.3-0.8c-0.4,0.3-0.8,0.5-1.3,0.8c-3.4,2.2-6.1,5.3-7.9,9c-0.3,0.5-0.4,1-0.6,1.5c-1.2,3.5-1.3,7.9-0.8,11.7
	c0.4,3.6,1.3,6.3,2.4,6.8c0.6,0.2,1.3-1.2,2.1-3.1c0.8-2.7,1.4-5.3,1.9-8.1C47.7,31.5,49.4,31.5,51,31.7L51,31.7z M51.1,34h-0.2
	c-0.6,0-1.3,0-1.9,3.7c-0.4,2.9-1.1,5.7-1.9,8.4c-1.1,3.2-2.7,5.4-5.1,4.6c-0.1,0-0.2-0.1-0.3-0.1c-1.7-0.8-3.1-4.3-3.7-8.6
	c-0.5-4.1-0.4-8.9,0.9-12.8c0.2-0.6,0.4-1.2,0.8-1.8c2.1-3.9,5.1-7.4,8.8-9.8h0.1c-2.2-1-4.7-1.4-7.1-1.5c-3.9-0.1-7.8,0.3-11.6,1.3
	c-3.7,1-7.1,2.7-10,5.1h-0.2c0.3,0.1,0.6,0.3,1,0.5c3,1.8,5.3,4.3,7.4,7c1.8,2.2,3.1,4.8,4,7.5c0.6,2.1,0.9,4.2,1,6.3
	c0.1,1.3-0.1,2.5-0.4,3.7c-0.2,0.6-0.6,1-1.2,1.3c-0.6,0.3-1.3,0.3-1.9-0.1c-0.9-0.5-1.7-1.3-2.3-2.1c-0.6-0.8-1.3-1.8-2.1-2.8
	c-1.9-2.7-3.8-5.3-3.8-5.3c-0.2,0.1,0.2,2.1,0.5,4.1c0.1,0.6,0.2,1.3,0.3,2c0.2,1.3-0.1,2.6-0.6,3.8c-0.3,0.5-0.7,0.9-1.2,1.1
	c-0.6,0.3-1.3,0.2-1.9-0.1c-0.8-0.4-1.7-1.5-2.6-3.6c-1.6-3.4-2.6-7-3.1-10.8c-0.1-0.6,0.4-1.2,1.1-1.3c0.6-0.1,1.2,0.4,1.3,1.1
	c0.4,3.5,1.4,6.9,2.9,10c0.3,0.9,0.8,1.7,1.5,2.3c0.3-0.7,0.4-1.5,0.3-2.3c-0.1-0.6-0.2-1.2-0.3-1.9c-0.5-2.9-1-5.7,0.8-6.6
	c1.9-1,4.4,2.5,6.9,6c0.6,0.9,1.3,1.8,2.1,2.7c0.4,0.5,0.8,1,1.3,1.3c0.3-0.8,0.3-1.7,0.3-2.6c0-2-0.3-3.9-0.8-5.7
	c-0.8-2.5-2-4.7-3.7-6.7c-1.9-2.4-4-4.8-6.7-6.3c-0.6-0.3-1.2-0.6-1.9-0.9c-2.5,2-4.9,3.7-6.9,5c-2.8,1.8-5.1,2.8-6.5,2.5
	c-1-0.2-2.1-1.1-2.6-2.5C1.1,28.4,1,27.6,1,26.8c0.1-1,0.3-1.8,0.9-2.7c1-1.5,3.1-2.8,6.8-3.2c2.8-0.3,5.6-0.1,8.3,0.7l1.2-0.9
	c3.2-2.5,6.9-4.4,10.8-5.6c4-1,8.2-1.5,12.4-1.4c3.3,0.1,6.6,0.9,9.6,2.3c3-1.5,6.3-2.3,9.6-2.3c4.2-0.1,8.3,0.4,12.3,1.4
	c4,1.1,7.7,3,10.9,5.6l1.2,0.9c2.7-0.8,5.5-1,8.3-0.7c3.7,0.4,5.8,1.7,6.8,3.2c0.6,0.8,0.9,1.7,0.9,2.7c0.1,0.8-0.1,1.7-0.4,2.4
	c-0.6,1.3-1.6,2.3-2.6,2.5c-1.4,0.3-3.7-0.8-6.5-2.5c-2-1.3-4.4-3-6.9-5c-0.6,0.3-1.3,0.6-1.9,0.9C80,26.7,77.9,29,76,31.5
	c-1.6,2-2.8,4.3-3.6,6.7c-0.6,1.8-0.8,3.7-0.9,5.7c-0.1,0.9,0,1.8,0.3,2.6c0.5-0.4,0.9-0.8,1.3-1.3c0.7-0.9,1.3-1.8,2.1-2.7
	c2.6-3.5,5.1-7,6.9-6c1.7,0.9,1.2,3.7,0.8,6.6c-0.1,0.6-0.3,1.3-0.3,1.9c-0.1,0.8,0,1.6,0.3,2.3c0.6-0.7,1.2-1.5,1.5-2.3
	c1.5-3.2,2.4-6.6,2.9-10c0.1-0.6,0.6-1.1,1.3-1.1c0.6,0.1,1.2,0.6,1.1,1.3c-0.4,3.7-1.5,7.4-3.1,10.8c-0.9,2-1.8,3.1-2.6,3.6
	c-0.6,0.4-1.3,0.4-1.9,0.1c-0.5-0.3-1-0.6-1.2-1.1c-0.6-1.2-0.8-2.5-0.6-3.8c0.1-0.6,0.2-1.3,0.3-2c0.3-2,0.7-4,0.5-4.1
	c0,0-1.9,2.7-3.9,5.3c-0.7,1-1.4,2-2.1,2.8c-0.6,0.9-1.4,1.6-2.3,2.1c-0.6,0.3-1.3,0.3-1.9,0.1c-0.5-0.3-0.9-0.7-1.2-1.3
	c-0.4-1.2-0.5-2.4-0.4-3.7c0-2.2,0.3-4.3,1-6.3c0.8-2.7,2.2-5.3,4-7.5c2.1-2.7,4.4-5.1,7.4-6.9c0.3-0.2,0.6-0.4,1-0.5l-0.1-0.1
	c-2.9-2.3-6.3-4.1-10-5.1c-3.8-1-7.8-1.4-11.7-1.3c-2.4,0.1-4.9,0.5-7.1,1.5c3.8,2.5,6.9,5.9,8.8,10c0.3,0.6,0.5,1.2,0.8,1.8
	c1.3,3.8,1.4,8.7,0.9,12.8c-0.6,4.3-1.9,7.8-3.7,8.6c-0.1,0.1-0.2,0.1-0.3,0.1c-2.4,0.8-4-1.4-5.1-4.6c-0.8-2.7-1.5-5.6-1.9-8.4
	C52.4,34,51.7,34,51.1,34z M9.3,27.2c1.6-1,3.5-2.3,5.4-3.8c-1.9-0.3-3.8-0.4-5.7-0.2c-2.9,0.3-4.4,1.2-5.1,2.2
	c-0.3,0.4-0.4,1-0.5,1.5c0,0.5,0.1,1,0.3,1.4c0.3,0.6,0.6,1.1,0.8,1.1C5.2,29.5,7,28.7,9.3,27.2z M87.3,23.4
	c1.9,1.5,3.8,2.7,5.4,3.8c2.3,1.5,4.1,2.3,4.8,2.2c0.3-0.1,0.6-0.4,0.8-1.1c0.2-0.4,0.3-1,0.3-1.4c0-0.5-0.2-1-0.5-1.5
	c-0.7-1-2.2-1.9-5.1-2.2C91.1,23,89.2,23.1,87.3,23.4z M88,6c3.2,0,5.8,2.6,5.7,5.8c0,1.5-0.6,2.9-1.7,4c-2.2,2.2-5.9,2.2-8.1,0
	c-2.2-2.2-2.2-5.8,0-8.1L84,7.7C85.2,6.6,86.6,6,88,6z M90.4,9.4C89.1,8.1,87,8,85.7,9.3l-0.1,0.1c-1.3,1.3-1.3,3.4,0,4.7
	c1.3,1.3,3.5,1.3,4.7,0C91.8,12.8,91.8,10.7,90.4,9.4z M51,1c3.2,0,5.8,2.6,5.7,5.8c0,1.5-0.6,2.9-1.7,4c-2.2,2.2-5.9,2.2-8.1,0
	c-2.2-2.2-2.2-5.8,0-8.1L47,2.7C48,1.6,49.5,1,51,1z M53.4,4.4C52.1,3.1,50,3,48.7,4.3l-0.1,0.1c-1.3,1.3-1.3,3.4,0,4.7
	c1.3,1.3,3.5,1.3,4.7,0C54.7,7.7,54.7,5.6,53.4,4.4z M9.8,7.7c2.4-2.1,6-1.8,8.1,0.5c1.9,2.2,1.9,5.3,0.1,7.5L18,15.8
	c-2.2,2.2-5.9,2.2-8.1,0C7.6,13.5,7.6,10,9.8,7.7z"/>
<defs>
	<filter id="Adobe_OpacityMaskFilter" filterUnits="userSpaceOnUse" x="0.9" y="0.9" width="100.2" height="50.2">
		<feColorMatrix  type="matrix" values="1 0 0 0 0  0 1 0 0 0  0 0 1 0 0  0 0 0 1 0"/>
	</filter>
</defs>
<mask maskUnits="userSpaceOnUse" x="0.9" y="0.9" width="100.2" height="50.2" id="path-1-outside-1_432_58_00000000930436686762094450000006129125099519883449_">
	<rect class="st1" width="102" height="52"/>
	<path d="M13.9,8.4c-0.9,0-1.7,0.3-2.4,1c-0.6,0.6-1,1.5-1,2.3c0,1.8,1.5,3.4,3.3,3.4c0.9,0,1.8-0.4,2.4-1c0,0,0-0.1,0.1-0.1
		c1.3-1.3,1.2-3.4-0.1-4.7C15.6,8.7,14.8,8.4,13.9,8.4z M51,31.7c1.6,0,3.3,0,4.4,5.7c0.4,2.7,1,5.5,1.9,8.1
		c0.6,1.9,1.3,3.3,2.1,3.1c1-0.4,1.9-3.2,2.4-6.8C62.1,38,62,33.5,60.8,30c-0.2-0.5-0.4-1-0.6-1.5c-1.8-3.6-4.5-6.7-7.9-9
		c-0.4-0.3-0.8-0.5-1.3-0.8c-0.4,0.3-0.8,0.5-1.3,0.8c-3.4,2.2-6.1,5.3-7.9,9c-0.3,0.5-0.4,1-0.6,1.5c-1.2,3.5-1.3,7.9-0.8,11.7
		c0.4,3.6,1.3,6.3,2.4,6.8c0.6,0.2,1.3-1.2,2.1-3.1c0.8-2.7,1.4-5.3,1.9-8.1C47.7,31.5,49.4,31.5,51,31.7L51,31.7z M51.1,34h-0.2
		c-0.6,0-1.3,0-1.9,3.7c-0.4,2.9-1.1,5.7-1.9,8.4c-1.1,3.2-2.7,5.4-5.1,4.6c-0.1,0-0.2-0.1-0.3-0.1c-1.7-0.8-3.1-4.3-3.7-8.6
		c-0.5-4.1-0.4-8.9,0.9-12.8c0.2-0.6,0.4-1.2,0.8-1.8c2.1-3.9,5.1-7.4,8.8-9.8h0.1c-2.2-1-4.7-1.4-7.1-1.5
		c-3.9-0.1-7.8,0.3-11.6,1.3c-3.7,1-7.1,2.7-10,5.1h-0.2c0.3,0.1,0.6,0.3,1,0.5c3,1.8,5.3,4.3,7.4,7c1.8,2.2,3.1,4.8,4,7.5
		c0.6,2.1,0.9,4.2,1,6.3c0.1,1.3-0.1,2.5-0.4,3.7c-0.2,0.6-0.6,1-1.2,1.3c-0.6,0.3-1.3,0.3-1.9-0.1c-0.9-0.5-1.7-1.3-2.3-2.1
		c-0.6-0.8-1.3-1.8-2.1-2.8c-1.9-2.7-3.8-5.3-3.8-5.3c-0.2,0.1,0.2,2.1,0.5,4.1c0.1,0.6,0.2,1.3,0.3,2c0.2,1.3-0.1,2.6-0.6,3.8
		c-0.3,0.5-0.7,0.9-1.2,1.1c-0.6,0.3-1.3,0.2-1.9-0.1c-0.8-0.4-1.7-1.5-2.6-3.6c-1.6-3.4-2.6-7-3.1-10.8c-0.1-0.6,0.4-1.2,1.1-1.3
		c0.6-0.1,1.2,0.4,1.3,1.1c0.4,3.5,1.4,6.9,2.9,10c0.3,0.9,0.8,1.7,1.5,2.3c0.3-0.7,0.4-1.5,0.3-2.3c-0.1-0.6-0.2-1.2-0.3-1.9
		c-0.5-2.9-1-5.7,0.8-6.6c1.9-1,4.4,2.5,6.9,6c0.6,0.9,1.3,1.8,2.1,2.7c0.4,0.5,0.8,1,1.3,1.3c0.3-0.8,0.3-1.7,0.3-2.6
		c0-2-0.3-3.9-0.8-5.7c-0.8-2.5-2-4.7-3.7-6.7c-1.9-2.4-4-4.8-6.7-6.3c-0.6-0.3-1.2-0.6-1.9-0.9c-2.5,2-4.9,3.7-6.9,5
		c-2.8,1.8-5.1,2.8-6.5,2.5c-1-0.2-2.1-1.1-2.6-2.5C1.1,28.4,1,27.6,1,26.8c0.1-1,0.3-1.8,0.9-2.7c1-1.5,3.1-2.8,6.8-3.2
		c2.8-0.3,5.6-0.1,8.3,0.7l1.2-0.9c3.2-2.5,6.9-4.4,10.8-5.6c4-1,8.2-1.5,12.4-1.4c3.3,0.1,6.6,0.9,9.6,2.3c3-1.5,6.3-2.3,9.6-2.3
		c4.2-0.1,8.3,0.4,12.3,1.4c4,1.1,7.7,3,10.9,5.6l1.2,0.9c2.7-0.8,5.5-1,8.3-0.7c3.7,0.4,5.8,1.7,6.8,3.2c0.6,0.8,0.9,1.7,0.9,2.7
		c0.1,0.8-0.1,1.7-0.4,2.4c-0.6,1.3-1.6,2.3-2.6,2.5c-1.4,0.3-3.7-0.8-6.5-2.5c-2-1.3-4.4-3-6.9-5c-0.6,0.3-1.3,0.6-1.9,0.9
		C80,26.7,77.9,29,76,31.5c-1.6,2-2.8,4.3-3.6,6.7c-0.6,1.8-0.8,3.7-0.9,5.7c-0.1,0.9,0,1.8,0.3,2.6c0.5-0.4,0.9-0.8,1.3-1.3
		c0.7-0.9,1.3-1.8,2.1-2.7c2.6-3.5,5.1-7,6.9-6c1.7,0.9,1.2,3.7,0.8,6.6c-0.1,0.6-0.3,1.3-0.3,1.9c-0.1,0.8,0,1.6,0.3,2.3
		c0.6-0.7,1.2-1.5,1.5-2.3c1.5-3.2,2.4-6.6,2.9-10c0.1-0.6,0.6-1.1,1.3-1.1c0.6,0.1,1.2,0.6,1.1,1.3c-0.4,3.7-1.5,7.4-3.1,10.8
		c-0.9,2-1.8,3.1-2.6,3.6c-0.6,0.4-1.3,0.4-1.9,0.1c-0.5-0.3-1-0.6-1.2-1.1c-0.6-1.2-0.8-2.5-0.6-3.8c0.1-0.6,0.2-1.3,0.3-2
		c0.3-2,0.7-4,0.5-4.1c0,0-1.9,2.7-3.9,5.3c-0.7,1-1.4,2-2.1,2.8c-0.6,0.9-1.4,1.6-2.3,2.1c-0.6,0.3-1.3,0.3-1.9,0.1
		c-0.5-0.3-0.9-0.7-1.2-1.3c-0.4-1.2-0.5-2.4-0.4-3.7c0-2.2,0.3-4.3,1-6.3c0.8-2.7,2.2-5.3,4-7.5c2.1-2.7,4.4-5.1,7.4-6.9
		c0.3-0.2,0.6-0.4,1-0.5l-0.1-0.1c-2.9-2.3-6.3-4.1-10-5.1c-3.8-1-7.8-1.4-11.7-1.3c-2.4,0.1-4.9,0.5-7.1,1.5
		c3.8,2.5,6.9,5.9,8.8,10c0.3,0.6,0.5,1.2,0.8,1.8c1.3,3.8,1.4,8.7,0.9,12.8c-0.6,4.3-1.9,7.8-3.7,8.6c-0.1,0.1-0.2,0.1-0.3,0.1
		c-2.4,0.8-4-1.4-5.1-4.6c-0.8-2.7-1.5-5.6-1.9-8.4C52.4,34,51.7,34,51.1,34z M9.3,27.2c1.6-1,3.5-2.3,5.4-3.8
		c-1.9-0.3-3.8-0.4-5.7-0.2c-2.9,0.3-4.4,1.2-5.1,2.2c-0.3,0.4-0.4,1-0.5,1.5c0,0.5,0.1,1,0.3,1.4c0.3,0.6,0.6,1.1,0.8,1.1
		C5.2,29.5,7,28.7,9.3,27.2z M87.3,23.4c1.9,1.5,3.8,2.7,5.4,3.8c2.3,1.5,4.1,2.3,4.8,2.2c0.3-0.1,0.6-0.4,0.8-1.1
		c0.2-0.4,0.3-1,0.3-1.4c0-0.5-0.2-1-0.5-1.5c-0.7-1-2.2-1.9-5.1-2.2C91.1,23,89.2,23.1,87.3,23.4z M88,6c3.2,0,5.8,2.6,5.7,5.8
		c0,1.5-0.6,2.9-1.7,4c-2.2,2.2-5.9,2.2-8.1,0c-2.2-2.2-2.2-5.8,0-8.1L84,7.7C85.2,6.6,86.6,6,88,6z M90.4,9.4
		C89.1,8.1,87,8,85.7,9.3l-0.1,0.1c-1.3,1.3-1.3,3.4,0,4.7c1.3,1.3,3.5,1.3,4.7,0C91.8,12.8,91.8,10.7,90.4,9.4z M51,1
		c3.2,0,5.8,2.6,5.7,5.8c0,1.5-0.6,2.9-1.7,4c-2.2,2.2-5.9,2.2-8.1,0c-2.2-2.2-2.2-5.8,0-8.1L47,2.7C48,1.6,49.5,1,51,1z M53.4,4.4
		C52.1,3.1,50,3,48.7,4.3l-0.1,0.1c-1.3,1.3-1.3,3.4,0,4.7c1.3,1.3,3.5,1.3,4.7,0C54.7,7.7,54.7,5.6,53.4,4.4z M9.8,7.7
		c2.4-2.1,6-1.8,8.1,0.5c1.9,2.2,1.9,5.3,0.1,7.5L18,15.8c-2.2,2.2-5.9,2.2-8.1,0C7.6,13.5,7.6,10,9.8,7.7z"/>
</mask>
<path class="st2" d="M13.9,8.4c-0.9,0-1.7,0.3-2.4,1c-0.6,0.6-1,1.5-1,2.3c0,1.8,1.5,3.4,3.3,3.4c0.9,0,1.8-0.4,2.4-1
	c0,0,0-0.1,0.1-0.1c1.3-1.3,1.2-3.4-0.1-4.7C15.6,8.7,14.8,8.4,13.9,8.4z M51,31.7c1.6,0,3.3,0,4.4,5.7c0.4,2.7,1,5.5,1.9,8.1
	c0.6,1.9,1.3,3.3,2.1,3.1c1-0.4,1.9-3.2,2.4-6.8C62.1,38,62,33.5,60.8,30c-0.2-0.5-0.4-1-0.6-1.5c-1.8-3.6-4.5-6.7-7.9-9
	c-0.4-0.3-0.8-0.5-1.3-0.8c-0.4,0.3-0.8,0.5-1.3,0.8c-3.4,2.2-6.1,5.3-7.9,9c-0.3,0.5-0.4,1-0.6,1.5c-1.2,3.5-1.3,7.9-0.8,11.7
	c0.4,3.6,1.3,6.3,2.4,6.8c0.6,0.2,1.3-1.2,2.1-3.1c0.8-2.7,1.4-5.3,1.9-8.1C47.7,31.5,49.4,31.5,51,31.7L51,31.7z M51.1,34h-0.2
	c-0.6,0-1.3,0-1.9,3.7c-0.4,2.9-1.1,5.7-1.9,8.4c-1.1,3.2-2.7,5.4-5.1,4.6c-0.1,0-0.2-0.1-0.3-0.1c-1.7-0.8-3.1-4.3-3.7-8.6
	c-0.5-4.1-0.4-8.9,0.9-12.8c0.2-0.6,0.4-1.2,0.8-1.8c2.1-3.9,5.1-7.4,8.8-9.8h0.1c-2.2-1-4.7-1.4-7.1-1.5c-3.9-0.1-7.8,0.3-11.6,1.3
	c-3.7,1-7.1,2.7-10,5.1h-0.2c0.3,0.1,0.6,0.3,1,0.5c3,1.8,5.3,4.3,7.4,7c1.8,2.2,3.1,4.8,4,7.5c0.6,2.1,0.9,4.2,1,6.3
	c0.1,1.3-0.1,2.5-0.4,3.7c-0.2,0.6-0.6,1-1.2,1.3c-0.6,0.3-1.3,0.3-1.9-0.1c-0.9-0.5-1.7-1.3-2.3-2.1c-0.6-0.8-1.3-1.8-2.1-2.8
	c-1.9-2.7-3.8-5.3-3.8-5.3c-0.2,0.1,0.2,2.1,0.5,4.1c0.1,0.6,0.2,1.3,0.3,2c0.2,1.3-0.1,2.6-0.6,3.8c-0.3,0.5-0.7,0.9-1.2,1.1
	c-0.6,0.3-1.3,0.2-1.9-0.1c-0.8-0.4-1.7-1.5-2.6-3.6c-1.6-3.4-2.6-7-3.1-10.8c-0.1-0.6,0.4-1.2,1.1-1.3c0.6-0.1,1.2,0.4,1.3,1.1
	c0.4,3.5,1.4,6.9,2.9,10c0.3,0.9,0.8,1.7,1.5,2.3c0.3-0.7,0.4-1.5,0.3-2.3c-0.1-0.6-0.2-1.2-0.3-1.9c-0.5-2.9-1-5.7,0.8-6.6
	c1.9-1,4.4,2.5,6.9,6c0.6,0.9,1.3,1.8,2.1,2.7c0.4,0.5,0.8,1,1.3,1.3c0.3-0.8,0.3-1.7,0.3-2.6c0-2-0.3-3.9-0.8-5.7
	c-0.8-2.5-2-4.7-3.7-6.7c-1.9-2.4-4-4.8-6.7-6.3c-0.6-0.3-1.2-0.6-1.9-0.9c-2.5,2-4.9,3.7-6.9,5c-2.8,1.8-5.1,2.8-6.5,2.5
	c-1-0.2-2.1-1.1-2.6-2.5C1.1,28.4,1,27.6,1,26.8c0.1-1,0.3-1.8,0.9-2.7c1-1.5,3.1-2.8,6.8-3.2c2.8-0.3,5.6-0.1,8.3,0.7l1.2-0.9
	c3.2-2.5,6.9-4.4,10.8-5.6c4-1,8.2-1.5,12.4-1.4c3.3,0.1,6.6,0.9,9.6,2.3c3-1.5,6.3-2.3,9.6-2.3c4.2-0.1,8.3,0.4,12.3,1.4
	c4,1.1,7.7,3,10.9,5.6l1.2,0.9c2.7-0.8,5.5-1,8.3-0.7c3.7,0.4,5.8,1.7,6.8,3.2c0.6,0.8,0.9,1.7,0.9,2.7c0.1,0.8-0.1,1.7-0.4,2.4
	c-0.6,1.3-1.6,2.3-2.6,2.5c-1.4,0.3-3.7-0.8-6.5-2.5c-2-1.3-4.4-3-6.9-5c-0.6,0.3-1.3,0.6-1.9,0.9C80,26.7,77.9,29,76,31.5
	c-1.6,2-2.8,4.3-3.6,6.7c-0.6,1.8-0.8,3.7-0.9,5.7c-0.1,0.9,0,1.8,0.3,2.6c0.5-0.4,0.9-0.8,1.3-1.3c0.7-0.9,1.3-1.8,2.1-2.7
	c2.6-3.5,5.1-7,6.9-6c1.7,0.9,1.2,3.7,0.8,6.6c-0.1,0.6-0.3,1.3-0.3,1.9c-0.1,0.8,0,1.6,0.3,2.3c0.6-0.7,1.2-1.5,1.5-2.3
	c1.5-3.2,2.4-6.6,2.9-10c0.1-0.6,0.6-1.1,1.3-1.1c0.6,0.1,1.2,0.6,1.1,1.3c-0.4,3.7-1.5,7.4-3.1,10.8c-0.9,2-1.8,3.1-2.6,3.6
	c-0.6,0.4-1.3,0.4-1.9,0.1c-0.5-0.3-1-0.6-1.2-1.1c-0.6-1.2-0.8-2.5-0.6-3.8c0.1-0.6,0.2-1.3,0.3-2c0.3-2,0.7-4,0.5-4.1
	c0,0-1.9,2.7-3.9,5.3c-0.7,1-1.4,2-2.1,2.8c-0.6,0.9-1.4,1.6-2.3,2.1c-0.6,0.3-1.3,0.3-1.9,0.1c-0.5-0.3-0.9-0.7-1.2-1.3
	c-0.4-1.2-0.5-2.4-0.4-3.7c0-2.2,0.3-4.3,1-6.3c0.8-2.7,2.2-5.3,4-7.5c2.1-2.7,4.4-5.1,7.4-6.9c0.3-0.2,0.6-0.4,1-0.5l-0.1-0.1
	c-2.9-2.3-6.3-4.1-10-5.1c-3.8-1-7.8-1.4-11.7-1.3c-2.4,0.1-4.9,0.5-7.1,1.5c3.8,2.5,6.9,5.9,8.8,10c0.3,0.6,0.5,1.2,0.8,1.8
	c1.3,3.8,1.4,8.7,0.9,12.8c-0.6,4.3-1.9,7.8-3.7,8.6c-0.1,0.1-0.2,0.1-0.3,0.1c-2.4,0.8-4-1.4-5.1-4.6c-0.8-2.7-1.5-5.6-1.9-8.4
	C52.4,34,51.7,34,51.1,34z M9.3,27.2c1.6-1,3.5-2.3,5.4-3.8c-1.9-0.3-3.8-0.4-5.7-0.2c-2.9,0.3-4.4,1.2-5.1,2.2
	c-0.3,0.4-0.4,1-0.5,1.5c0,0.5,0.1,1,0.3,1.4c0.3,0.6,0.6,1.1,0.8,1.1C5.2,29.5,7,28.7,9.3,27.2z M87.3,23.4
	c1.9,1.5,3.8,2.7,5.4,3.8c2.3,1.5,4.1,2.3,4.8,2.2c0.3-0.1,0.6-0.4,0.8-1.1c0.2-0.4,0.3-1,0.3-1.4c0-0.5-0.2-1-0.5-1.5
	c-0.7-1-2.2-1.9-5.1-2.2C91.1,23,89.2,23.1,87.3,23.4z M88,6c3.2,0,5.8,2.6,5.7,5.8c0,1.5-0.6,2.9-1.7,4c-2.2,2.2-5.9,2.2-8.1,0
	c-2.2-2.2-2.2-5.8,0-8.1L84,7.7C85.2,6.6,86.6,6,88,6z M90.4,9.4C89.1,8.1,87,8,85.7,9.3l-0.1,0.1c-1.3,1.3-1.3,3.4,0,4.7
	c1.3,1.3,3.5,1.3,4.7,0C91.8,12.8,91.8,10.7,90.4,9.4z M51,1c3.2,0,5.8,2.6,5.7,5.8c0,1.5-0.6,2.9-1.7,4c-2.2,2.2-5.9,2.2-8.1,0
	c-2.2-2.2-2.2-5.8,0-8.1L47,2.7C48,1.6,49.5,1,51,1z M53.4,4.4C52.1,3.1,50,3,48.7,4.3l-0.1,0.1c-1.3,1.3-1.3,3.4,0,4.7
	c1.3,1.3,3.5,1.3,4.7,0C54.7,7.7,54.7,5.6,53.4,4.4z M9.8,7.7c2.4-2.1,6-1.8,8.1,0.5c1.9,2.2,1.9,5.3,0.1,7.5L18,15.8
	c-2.2,2.2-5.9,2.2-8.1,0C7.6,13.5,7.6,10,9.8,7.7z"/>
</svg>
