<svg width="284" height="53" viewBox="0 0 284 53" fill="none" xmlns="http://www.w3.org/2000/svg">
<mask id="path-1-outside-1_432_58" maskUnits="userSpaceOnUse" x="0" y="0" width="102" height="52" fill="black">
<rect fill="white" width="102" height="52"/>
<path d="M13.883 8.42934C12.9857 8.42934 12.1525 8.74683 11.5115 9.38182C10.8706 10.0168 10.5501 10.8423 10.5501 11.7313C10.5501 13.5727 12.0243 15.0967 13.883 15.0967C14.7804 15.0967 15.6777 14.7157 16.3186 14.0807C16.3186 14.0807 16.3186 14.0172 16.3827 14.0172C17.6646 12.6837 17.6005 10.5883 16.2545 9.31832C15.6136 8.74683 14.7804 8.42934 13.883 8.42934ZM50.9939 31.6698C52.5962 31.6698 54.3268 31.6698 55.3523 37.3212C55.801 40.0516 56.3778 42.7821 57.211 45.3855C57.852 47.2905 58.557 48.6875 59.2621 48.497C60.2876 48.0525 61.1849 45.2585 61.6336 41.7026C62.1463 37.9562 62.0182 33.5113 60.8004 30.0189C60.6081 29.5109 60.4158 29.0029 60.1594 28.4949C58.3647 24.8755 55.6728 21.764 52.2758 19.4781C51.8271 19.2241 51.4425 18.9701 50.9939 18.7161C50.5452 18.9701 50.1606 19.2241 49.712 19.4781C46.3149 21.7005 43.623 24.812 41.8283 28.4314C41.5719 28.9394 41.3797 29.4474 41.1874 29.9554C40.0337 33.4478 39.9055 37.8927 40.3541 41.6391C40.8028 45.195 41.7001 47.9255 42.7256 48.4335C43.3666 48.6239 44.0716 47.227 44.7767 45.322C45.6099 42.6551 46.1868 39.9881 46.6354 37.2577C47.6609 31.5428 49.3915 31.5428 50.9298 31.6063L50.9939 31.6698ZM51.058 34.0193H50.8657C50.2888 34.0193 49.5838 34.0193 48.9428 37.7657C48.4942 40.6231 47.8532 43.4171 47.02 46.211C45.9304 49.3859 44.328 51.6084 41.9565 50.7829C41.8283 50.7829 41.7642 50.7194 41.636 50.6559C39.9055 49.8304 38.4954 46.338 37.9185 42.0201C37.4058 37.9562 37.534 33.1303 38.8159 29.2569C39.0082 28.6219 39.2645 28.0504 39.585 27.4154C41.636 23.4785 44.6485 20.0496 48.4301 17.5731H48.4942C46.2509 16.6207 43.8153 16.1762 41.3797 16.1127C37.4699 15.9857 33.5601 16.4302 29.7785 17.4461C26.1251 18.4621 22.7281 20.1766 19.7797 22.5895H19.5875C19.9079 22.7165 20.2284 22.907 20.5489 23.0975C23.5613 24.8755 25.8687 27.4154 27.9198 30.0824C29.7144 32.3048 31.0604 34.8448 31.8936 37.5752C32.4705 39.6706 32.791 41.7661 32.8551 43.9251C32.9192 45.195 32.791 46.4015 32.4064 47.608C32.2141 48.1795 31.8295 48.6239 31.2527 48.8779C30.6758 49.1319 29.9708 49.1319 29.3939 48.8144C28.4966 48.3065 27.6634 47.5445 27.0865 46.719C26.4456 45.8935 25.7406 44.941 25.0355 43.9251C23.1127 41.2581 21.1898 38.5912 21.1898 38.5912C20.9975 38.6547 21.3821 40.6866 21.7026 42.7186C21.8308 43.3536 21.8949 44.0521 22.0231 44.687C22.2153 46.0205 21.959 47.2905 21.3821 48.497C21.1257 49.0049 20.6771 49.3859 20.1643 49.6399C19.5234 49.8939 18.8183 49.8304 18.3056 49.5129C17.4723 49.0684 16.575 47.989 15.6777 45.957C14.0753 42.5281 13.0498 38.9087 12.6011 35.1622C12.537 34.5273 13.0498 33.9558 13.6907 33.8923C14.3317 33.8288 14.9085 34.3368 14.9726 34.9717C15.4213 38.4642 16.3827 41.8296 17.8569 45.0045C18.1774 45.8935 18.6901 46.719 19.3311 47.354C19.6516 46.6555 19.7797 45.83 19.6516 45.0045C19.5875 44.433 19.4593 43.7981 19.3311 43.0996C18.8183 40.2421 18.3697 37.3847 20.1002 36.4957C21.959 35.5432 24.4587 39.0357 27.0224 42.5281C27.6634 43.4171 28.3684 44.3695 29.0735 45.2585C29.458 45.7665 29.8426 46.211 30.3554 46.592C30.6117 45.7665 30.6758 44.8775 30.6117 43.9885C30.6117 42.0201 30.2913 40.1151 29.7785 38.2737C29.0094 35.7972 27.7916 33.5748 26.1251 31.5428C24.2023 29.1299 22.1512 26.7804 19.4593 25.193C18.8824 24.8755 18.2415 24.558 17.6005 24.304C15.1008 26.2724 12.7293 27.9869 10.6783 29.2569C7.85813 31.0348 5.55072 32.0508 4.20473 31.7968C3.17922 31.6063 2.08961 30.6538 1.57685 29.2569C1.12819 28.4314 1 27.6059 1 26.7804C1.06409 25.828 1.32047 24.939 1.89733 24.1135C2.92284 22.5895 5.03797 21.3196 8.69136 20.8751C11.5115 20.5576 14.3317 20.7481 17.0237 21.5735L18.1774 20.6846C21.3821 18.1446 25.0996 16.2397 29.0094 15.0967C33.0473 14.0807 37.2135 13.6362 41.3797 13.6997C44.7126 13.7632 47.9814 14.5887 50.9939 16.0492C54.0063 14.5252 57.2751 13.7632 60.6081 13.6997C64.7742 13.5727 68.8763 14.0807 72.9142 15.0967C76.8881 16.1762 80.6056 18.0811 83.8103 20.6846L84.9641 21.5735C87.656 20.7481 90.4762 20.5576 93.2964 20.8751C97.0138 21.2561 99.0649 22.5895 100.09 24.1135C100.667 24.8755 100.988 25.828 100.988 26.7804C101.052 27.6059 100.86 28.4314 100.539 29.1934C99.9622 30.5268 98.9367 31.5428 97.9112 31.7333C96.5011 31.9873 94.2578 30.9713 91.4376 29.1934C89.4507 27.9234 87.0792 26.2089 84.5154 24.2405C83.8744 24.4945 83.2335 24.812 82.6566 25.1295C79.9647 26.7169 77.9136 29.0029 75.9908 31.4793C74.3884 33.4478 73.1706 35.7337 72.4015 38.2102C71.8246 40.0516 71.5683 41.9566 71.5042 43.9251C71.4401 44.814 71.5042 45.703 71.7605 46.5285C72.2733 46.1475 72.6579 45.703 73.0424 45.195C73.7475 44.306 74.3884 43.4171 75.0935 42.4646C77.6572 38.9722 80.1569 35.4797 82.0157 36.4322C83.7462 37.3212 83.2335 40.1786 82.7848 43.0361C82.6566 43.6711 82.5285 44.3695 82.4644 44.941C82.3362 45.703 82.4644 46.5285 82.7848 47.2905C83.4258 46.592 83.9385 45.83 84.259 44.941C85.7332 41.7661 86.6946 38.3372 87.1433 34.9082C87.2074 34.2733 87.7842 33.7653 88.4252 33.8288C89.0661 33.8923 89.5789 34.4638 89.5148 35.0987C89.0661 38.8452 88.0406 42.4646 86.4382 45.8935C85.5409 47.9255 84.6436 49.0049 83.8103 49.4494C83.2335 49.8304 82.5285 49.8939 81.8875 49.5764C81.3747 49.3224 80.9261 48.9414 80.6697 48.4335C80.0928 47.227 79.8365 45.957 80.0288 44.6235C80.0928 43.9885 80.221 43.2901 80.3492 42.6551C80.6697 40.6866 81.0543 38.6547 80.862 38.5277C80.862 38.5277 78.9391 41.1946 76.9522 43.8616C76.2472 44.8775 75.5421 45.83 74.9012 46.6555C74.3243 47.5445 73.4911 48.243 72.5938 48.7509C72.0169 49.0684 71.3119 49.0684 70.735 48.8144C70.2223 48.5605 69.8377 48.116 69.5813 47.5445C69.1968 46.338 69.0686 45.1315 69.1327 43.8616C69.1327 41.7026 69.4531 39.6071 70.0941 37.5117C70.9273 34.7812 72.3374 32.2413 74.132 30.0189C76.1831 27.3519 78.4905 24.8755 81.5029 23.0975C81.8234 22.907 82.1439 22.7165 82.4644 22.5895L82.3362 22.526C79.3878 20.1766 75.9908 18.3986 72.3374 17.3826C68.5558 16.3667 64.5819 15.9857 60.6722 16.0492C58.2366 16.1127 55.801 16.5572 53.5576 17.5096C57.3392 19.9861 60.4158 23.415 62.4027 27.4789C62.6591 28.0504 62.9155 28.6854 63.1719 29.3204C64.4537 33.1303 64.5819 38.0197 64.0692 42.0836C63.4923 46.338 62.1463 49.8939 60.3517 50.7194C60.2876 50.7829 60.1594 50.7829 60.0953 50.8464C57.7238 51.6084 56.1214 49.4494 55.0318 46.2745C54.1986 43.5441 53.5577 40.6866 53.109 37.8292C52.4039 34.0193 51.6989 34.0193 51.058 34.0193ZM9.26822 27.2249C10.8706 26.2089 12.7293 24.939 14.6522 23.415C12.7934 23.0975 10.8706 23.034 8.94774 23.2245C6.06348 23.542 4.52521 24.431 3.88426 25.447C3.56379 25.8914 3.4356 26.3994 3.3715 26.9074C3.3715 27.4154 3.4356 27.8599 3.62788 28.3044C3.88426 28.9394 4.20473 29.3839 4.46111 29.3839C5.23025 29.5109 6.96081 28.6854 9.26822 27.2249ZM87.2715 23.415C89.1943 24.8755 91.053 26.1454 92.6554 27.2249C94.9628 28.6854 96.7575 29.5744 97.4625 29.4474C97.7189 29.3839 98.0394 29.0029 98.2957 28.3679C98.488 27.9234 98.5521 27.4154 98.5521 26.9709C98.5521 26.4629 98.3598 25.955 98.0394 25.5105C97.3343 24.4945 95.7961 23.6055 92.9759 23.288C91.1171 23.034 89.1943 23.0975 87.2715 23.415ZM88.0406 6.01639C91.2453 6.01639 93.8091 8.61983 93.745 11.7948C93.745 13.2552 93.1682 14.7157 92.0786 15.7952C89.8353 18.0176 86.1818 18.0176 83.9385 15.7952C81.6952 13.5727 81.6952 9.9533 83.9385 7.73085L84.0026 7.66735C85.1563 6.58788 86.5664 6.01639 88.0406 6.01639ZM90.4121 9.38182C89.1302 8.11184 87.0151 8.04834 85.6691 9.31832L85.605 9.38182C84.259 10.7153 84.259 12.8107 85.605 14.0807C86.951 15.4142 89.0661 15.4142 90.348 14.0807C91.7581 12.8107 91.7581 10.7153 90.4121 9.38182ZM50.9939 1C54.1986 1 56.7624 3.60344 56.6983 6.77837C56.6983 8.23884 56.1214 9.69931 55.0318 10.7788C52.7885 13.0012 49.1351 13.0012 46.8918 10.7788C44.6485 8.55633 44.6485 4.93691 46.8918 2.71446L46.9559 2.65096C48.0455 1.57149 49.5197 1 50.9939 1ZM53.3654 4.36543C52.0835 3.09545 49.9683 3.03196 48.6865 4.30193L48.6224 4.36543C47.2764 5.6989 47.2764 7.79435 48.6224 9.06432C49.9683 10.3343 52.0835 10.3978 53.3654 9.06432C54.7113 7.73085 54.7113 5.6354 53.3654 4.36543ZM9.84507 7.73085C12.2166 5.6354 15.87 5.88939 17.9851 8.23884C19.9079 10.3978 19.9079 13.5727 18.0492 15.7317L17.9851 15.7952C15.7418 18.0176 12.0884 18.0176 9.84507 15.7952C7.60175 13.5092 7.60175 9.9533 9.84507 7.73085Z"/>
</mask>
<path d="M13.883 8.42934C12.9857 8.42934 12.1525 8.74683 11.5115 9.38182C10.8706 10.0168 10.5501 10.8423 10.5501 11.7313C10.5501 13.5727 12.0243 15.0967 13.883 15.0967C14.7804 15.0967 15.6777 14.7157 16.3186 14.0807C16.3186 14.0807 16.3186 14.0172 16.3827 14.0172C17.6646 12.6837 17.6005 10.5883 16.2545 9.31832C15.6136 8.74683 14.7804 8.42934 13.883 8.42934ZM50.9939 31.6698C52.5962 31.6698 54.3268 31.6698 55.3523 37.3212C55.801 40.0516 56.3778 42.7821 57.211 45.3855C57.852 47.2905 58.557 48.6875 59.2621 48.497C60.2876 48.0525 61.1849 45.2585 61.6336 41.7026C62.1463 37.9562 62.0182 33.5113 60.8004 30.0189C60.6081 29.5109 60.4158 29.0029 60.1594 28.4949C58.3647 24.8755 55.6728 21.764 52.2758 19.4781C51.8271 19.2241 51.4425 18.9701 50.9939 18.7161C50.5452 18.9701 50.1606 19.2241 49.712 19.4781C46.3149 21.7005 43.623 24.812 41.8283 28.4314C41.5719 28.9394 41.3797 29.4474 41.1874 29.9554C40.0337 33.4478 39.9055 37.8927 40.3541 41.6391C40.8028 45.195 41.7001 47.9255 42.7256 48.4335C43.3666 48.6239 44.0716 47.227 44.7767 45.322C45.6099 42.6551 46.1868 39.9881 46.6354 37.2577C47.6609 31.5428 49.3915 31.5428 50.9298 31.6063L50.9939 31.6698ZM51.058 34.0193H50.8657C50.2888 34.0193 49.5838 34.0193 48.9428 37.7657C48.4942 40.6231 47.8532 43.4171 47.02 46.211C45.9304 49.3859 44.328 51.6084 41.9565 50.7829C41.8283 50.7829 41.7642 50.7194 41.636 50.6559C39.9055 49.8304 38.4954 46.338 37.9185 42.0201C37.4058 37.9562 37.534 33.1303 38.8159 29.2569C39.0082 28.6219 39.2645 28.0504 39.585 27.4154C41.636 23.4785 44.6485 20.0496 48.4301 17.5731H48.4942C46.2509 16.6207 43.8153 16.1762 41.3797 16.1127C37.4699 15.9857 33.5601 16.4302 29.7785 17.4461C26.1251 18.4621 22.7281 20.1766 19.7797 22.5895H19.5875C19.9079 22.7165 20.2284 22.907 20.5489 23.0975C23.5613 24.8755 25.8687 27.4154 27.9198 30.0824C29.7144 32.3048 31.0604 34.8448 31.8936 37.5752C32.4705 39.6706 32.791 41.7661 32.8551 43.9251C32.9192 45.195 32.791 46.4015 32.4064 47.608C32.2141 48.1795 31.8295 48.6239 31.2527 48.8779C30.6758 49.1319 29.9708 49.1319 29.3939 48.8144C28.4966 48.3065 27.6634 47.5445 27.0865 46.719C26.4456 45.8935 25.7406 44.941 25.0355 43.9251C23.1127 41.2581 21.1898 38.5912 21.1898 38.5912C20.9975 38.6547 21.3821 40.6866 21.7026 42.7186C21.8308 43.3536 21.8949 44.0521 22.0231 44.687C22.2153 46.0205 21.959 47.2905 21.3821 48.497C21.1257 49.0049 20.6771 49.3859 20.1643 49.6399C19.5234 49.8939 18.8183 49.8304 18.3056 49.5129C17.4723 49.0684 16.575 47.989 15.6777 45.957C14.0753 42.5281 13.0498 38.9087 12.6011 35.1622C12.537 34.5273 13.0498 33.9558 13.6907 33.8923C14.3317 33.8288 14.9085 34.3368 14.9726 34.9717C15.4213 38.4642 16.3827 41.8296 17.8569 45.0045C18.1774 45.8935 18.6901 46.719 19.3311 47.354C19.6516 46.6555 19.7797 45.83 19.6516 45.0045C19.5875 44.433 19.4593 43.7981 19.3311 43.0996C18.8183 40.2421 18.3697 37.3847 20.1002 36.4957C21.959 35.5432 24.4587 39.0357 27.0224 42.5281C27.6634 43.4171 28.3684 44.3695 29.0735 45.2585C29.458 45.7665 29.8426 46.211 30.3554 46.592C30.6117 45.7665 30.6758 44.8775 30.6117 43.9885C30.6117 42.0201 30.2913 40.1151 29.7785 38.2737C29.0094 35.7972 27.7916 33.5748 26.1251 31.5428C24.2023 29.1299 22.1512 26.7804 19.4593 25.193C18.8824 24.8755 18.2415 24.558 17.6005 24.304C15.1008 26.2724 12.7293 27.9869 10.6783 29.2569C7.85813 31.0348 5.55072 32.0508 4.20473 31.7968C3.17922 31.6063 2.08961 30.6538 1.57685 29.2569C1.12819 28.4314 1 27.6059 1 26.7804C1.06409 25.828 1.32047 24.939 1.89733 24.1135C2.92284 22.5895 5.03797 21.3196 8.69136 20.8751C11.5115 20.5576 14.3317 20.7481 17.0237 21.5735L18.1774 20.6846C21.3821 18.1446 25.0996 16.2397 29.0094 15.0967C33.0473 14.0807 37.2135 13.6362 41.3797 13.6997C44.7126 13.7632 47.9814 14.5887 50.9939 16.0492C54.0063 14.5252 57.2751 13.7632 60.6081 13.6997C64.7742 13.5727 68.8763 14.0807 72.9142 15.0967C76.8881 16.1762 80.6056 18.0811 83.8103 20.6846L84.9641 21.5735C87.656 20.7481 90.4762 20.5576 93.2964 20.8751C97.0138 21.2561 99.0649 22.5895 100.09 24.1135C100.667 24.8755 100.988 25.828 100.988 26.7804C101.052 27.6059 100.86 28.4314 100.539 29.1934C99.9622 30.5268 98.9367 31.5428 97.9112 31.7333C96.5011 31.9873 94.2578 30.9713 91.4376 29.1934C89.4507 27.9234 87.0792 26.2089 84.5154 24.2405C83.8744 24.4945 83.2335 24.812 82.6566 25.1295C79.9647 26.7169 77.9136 29.0029 75.9908 31.4793C74.3884 33.4478 73.1706 35.7337 72.4015 38.2102C71.8246 40.0516 71.5683 41.9566 71.5042 43.9251C71.4401 44.814 71.5042 45.703 71.7605 46.5285C72.2733 46.1475 72.6579 45.703 73.0424 45.195C73.7475 44.306 74.3884 43.4171 75.0935 42.4646C77.6572 38.9722 80.1569 35.4797 82.0157 36.4322C83.7462 37.3212 83.2335 40.1786 82.7848 43.0361C82.6566 43.6711 82.5285 44.3695 82.4644 44.941C82.3362 45.703 82.4644 46.5285 82.7848 47.2905C83.4258 46.592 83.9385 45.83 84.259 44.941C85.7332 41.7661 86.6946 38.3372 87.1433 34.9082C87.2074 34.2733 87.7842 33.7653 88.4252 33.8288C89.0661 33.8923 89.5789 34.4638 89.5148 35.0987C89.0661 38.8452 88.0406 42.4646 86.4382 45.8935C85.5409 47.9255 84.6436 49.0049 83.8103 49.4494C83.2335 49.8304 82.5285 49.8939 81.8875 49.5764C81.3747 49.3224 80.9261 48.9414 80.6697 48.4335C80.0928 47.227 79.8365 45.957 80.0288 44.6235C80.0928 43.9885 80.221 43.2901 80.3492 42.6551C80.6697 40.6866 81.0543 38.6547 80.862 38.5277C80.862 38.5277 78.9391 41.1946 76.9522 43.8616C76.2472 44.8775 75.5421 45.83 74.9012 46.6555C74.3243 47.5445 73.4911 48.243 72.5938 48.7509C72.0169 49.0684 71.3119 49.0684 70.735 48.8144C70.2223 48.5605 69.8377 48.116 69.5813 47.5445C69.1968 46.338 69.0686 45.1315 69.1327 43.8616C69.1327 41.7026 69.4531 39.6071 70.0941 37.5117C70.9273 34.7812 72.3374 32.2413 74.132 30.0189C76.1831 27.3519 78.4905 24.8755 81.5029 23.0975C81.8234 22.907 82.1439 22.7165 82.4644 22.5895L82.3362 22.526C79.3878 20.1766 75.9908 18.3986 72.3374 17.3826C68.5558 16.3667 64.5819 15.9857 60.6722 16.0492C58.2366 16.1127 55.801 16.5572 53.5576 17.5096C57.3392 19.9861 60.4158 23.415 62.4027 27.4789C62.6591 28.0504 62.9155 28.6854 63.1719 29.3204C64.4537 33.1303 64.5819 38.0197 64.0692 42.0836C63.4923 46.338 62.1463 49.8939 60.3517 50.7194C60.2876 50.7829 60.1594 50.7829 60.0953 50.8464C57.7238 51.6084 56.1214 49.4494 55.0318 46.2745C54.1986 43.5441 53.5577 40.6866 53.109 37.8292C52.4039 34.0193 51.6989 34.0193 51.058 34.0193ZM9.26822 27.2249C10.8706 26.2089 12.7293 24.939 14.6522 23.415C12.7934 23.0975 10.8706 23.034 8.94774 23.2245C6.06348 23.542 4.52521 24.431 3.88426 25.447C3.56379 25.8914 3.4356 26.3994 3.3715 26.9074C3.3715 27.4154 3.4356 27.8599 3.62788 28.3044C3.88426 28.9394 4.20473 29.3839 4.46111 29.3839C5.23025 29.5109 6.96081 28.6854 9.26822 27.2249ZM87.2715 23.415C89.1943 24.8755 91.053 26.1454 92.6554 27.2249C94.9628 28.6854 96.7575 29.5744 97.4625 29.4474C97.7189 29.3839 98.0394 29.0029 98.2957 28.3679C98.488 27.9234 98.5521 27.4154 98.5521 26.9709C98.5521 26.4629 98.3598 25.955 98.0394 25.5105C97.3343 24.4945 95.7961 23.6055 92.9759 23.288C91.1171 23.034 89.1943 23.0975 87.2715 23.415ZM88.0406 6.01639C91.2453 6.01639 93.8091 8.61983 93.745 11.7948C93.745 13.2552 93.1682 14.7157 92.0786 15.7952C89.8353 18.0176 86.1818 18.0176 83.9385 15.7952C81.6952 13.5727 81.6952 9.9533 83.9385 7.73085L84.0026 7.66735C85.1563 6.58788 86.5664 6.01639 88.0406 6.01639ZM90.4121 9.38182C89.1302 8.11184 87.0151 8.04834 85.6691 9.31832L85.605 9.38182C84.259 10.7153 84.259 12.8107 85.605 14.0807C86.951 15.4142 89.0661 15.4142 90.348 14.0807C91.7581 12.8107 91.7581 10.7153 90.4121 9.38182ZM50.9939 1C54.1986 1 56.7624 3.60344 56.6983 6.77837C56.6983 8.23884 56.1214 9.69931 55.0318 10.7788C52.7885 13.0012 49.1351 13.0012 46.8918 10.7788C44.6485 8.55633 44.6485 4.93691 46.8918 2.71446L46.9559 2.65096C48.0455 1.57149 49.5197 1 50.9939 1ZM53.3654 4.36543C52.0835 3.09545 49.9683 3.03196 48.6865 4.30193L48.6224 4.36543C47.2764 5.6989 47.2764 7.79435 48.6224 9.06432C49.9683 10.3343 52.0835 10.3978 53.3654 9.06432C54.7113 7.73085 54.7113 5.6354 53.3654 4.36543ZM9.84507 7.73085C12.2166 5.6354 15.87 5.88939 17.9851 8.23884C19.9079 10.3978 19.9079 13.5727 18.0492 15.7317L17.9851 15.7952C15.7418 18.0176 12.0884 18.0176 9.84507 15.7952C7.60175 13.5092 7.60175 9.9533 9.84507 7.73085Z" fill="#5A69AF"/>
<path d="M13.883 8.42934C12.9857 8.42934 12.1525 8.74683 11.5115 9.38182C10.8706 10.0168 10.5501 10.8423 10.5501 11.7313C10.5501 13.5727 12.0243 15.0967 13.883 15.0967C14.7804 15.0967 15.6777 14.7157 16.3186 14.0807C16.3186 14.0807 16.3186 14.0172 16.3827 14.0172C17.6646 12.6837 17.6005 10.5883 16.2545 9.31832C15.6136 8.74683 14.7804 8.42934 13.883 8.42934ZM50.9939 31.6698C52.5962 31.6698 54.3268 31.6698 55.3523 37.3212C55.801 40.0516 56.3778 42.7821 57.211 45.3855C57.852 47.2905 58.557 48.6875 59.2621 48.497C60.2876 48.0525 61.1849 45.2585 61.6336 41.7026C62.1463 37.9562 62.0182 33.5113 60.8004 30.0189C60.6081 29.5109 60.4158 29.0029 60.1594 28.4949C58.3647 24.8755 55.6728 21.764 52.2758 19.4781C51.8271 19.2241 51.4425 18.9701 50.9939 18.7161C50.5452 18.9701 50.1606 19.2241 49.712 19.4781C46.3149 21.7005 43.623 24.812 41.8283 28.4314C41.5719 28.9394 41.3797 29.4474 41.1874 29.9554C40.0337 33.4478 39.9055 37.8927 40.3541 41.6391C40.8028 45.195 41.7001 47.9255 42.7256 48.4335C43.3666 48.6239 44.0716 47.227 44.7767 45.322C45.6099 42.6551 46.1868 39.9881 46.6354 37.2577C47.6609 31.5428 49.3915 31.5428 50.9298 31.6063L50.9939 31.6698ZM51.058 34.0193H50.8657C50.2888 34.0193 49.5838 34.0193 48.9428 37.7657C48.4942 40.6231 47.8532 43.4171 47.02 46.211C45.9304 49.3859 44.328 51.6084 41.9565 50.7829C41.8283 50.7829 41.7642 50.7194 41.636 50.6559C39.9055 49.8304 38.4954 46.338 37.9185 42.0201C37.4058 37.9562 37.534 33.1303 38.8159 29.2569C39.0082 28.6219 39.2645 28.0504 39.585 27.4154C41.636 23.4785 44.6485 20.0496 48.4301 17.5731H48.4942C46.2509 16.6207 43.8153 16.1762 41.3797 16.1127C37.4699 15.9857 33.5601 16.4302 29.7785 17.4461C26.1251 18.4621 22.7281 20.1766 19.7797 22.5895H19.5875C19.9079 22.7165 20.2284 22.907 20.5489 23.0975C23.5613 24.8755 25.8687 27.4154 27.9198 30.0824C29.7144 32.3048 31.0604 34.8448 31.8936 37.5752C32.4705 39.6706 32.791 41.7661 32.8551 43.9251C32.9192 45.195 32.791 46.4015 32.4064 47.608C32.2141 48.1795 31.8295 48.6239 31.2527 48.8779C30.6758 49.1319 29.9708 49.1319 29.3939 48.8144C28.4966 48.3065 27.6634 47.5445 27.0865 46.719C26.4456 45.8935 25.7406 44.941 25.0355 43.9251C23.1127 41.2581 21.1898 38.5912 21.1898 38.5912C20.9975 38.6547 21.3821 40.6866 21.7026 42.7186C21.8308 43.3536 21.8949 44.0521 22.0231 44.687C22.2153 46.0205 21.959 47.2905 21.3821 48.497C21.1257 49.0049 20.6771 49.3859 20.1643 49.6399C19.5234 49.8939 18.8183 49.8304 18.3056 49.5129C17.4723 49.0684 16.575 47.989 15.6777 45.957C14.0753 42.5281 13.0498 38.9087 12.6011 35.1622C12.537 34.5273 13.0498 33.9558 13.6907 33.8923C14.3317 33.8288 14.9085 34.3368 14.9726 34.9717C15.4213 38.4642 16.3827 41.8296 17.8569 45.0045C18.1774 45.8935 18.6901 46.719 19.3311 47.354C19.6516 46.6555 19.7797 45.83 19.6516 45.0045C19.5875 44.433 19.4593 43.7981 19.3311 43.0996C18.8183 40.2421 18.3697 37.3847 20.1002 36.4957C21.959 35.5432 24.4587 39.0357 27.0224 42.5281C27.6634 43.4171 28.3684 44.3695 29.0735 45.2585C29.458 45.7665 29.8426 46.211 30.3554 46.592C30.6117 45.7665 30.6758 44.8775 30.6117 43.9885C30.6117 42.0201 30.2913 40.1151 29.7785 38.2737C29.0094 35.7972 27.7916 33.5748 26.1251 31.5428C24.2023 29.1299 22.1512 26.7804 19.4593 25.193C18.8824 24.8755 18.2415 24.558 17.6005 24.304C15.1008 26.2724 12.7293 27.9869 10.6783 29.2569C7.85813 31.0348 5.55072 32.0508 4.20473 31.7968C3.17922 31.6063 2.08961 30.6538 1.57685 29.2569C1.12819 28.4314 1 27.6059 1 26.7804C1.06409 25.828 1.32047 24.939 1.89733 24.1135C2.92284 22.5895 5.03797 21.3196 8.69136 20.8751C11.5115 20.5576 14.3317 20.7481 17.0237 21.5735L18.1774 20.6846C21.3821 18.1446 25.0996 16.2397 29.0094 15.0967C33.0473 14.0807 37.2135 13.6362 41.3797 13.6997C44.7126 13.7632 47.9814 14.5887 50.9939 16.0492C54.0063 14.5252 57.2751 13.7632 60.6081 13.6997C64.7742 13.5727 68.8763 14.0807 72.9142 15.0967C76.8881 16.1762 80.6056 18.0811 83.8103 20.6846L84.9641 21.5735C87.656 20.7481 90.4762 20.5576 93.2964 20.8751C97.0138 21.2561 99.0649 22.5895 100.09 24.1135C100.667 24.8755 100.988 25.828 100.988 26.7804C101.052 27.6059 100.86 28.4314 100.539 29.1934C99.9622 30.5268 98.9367 31.5428 97.9112 31.7333C96.5011 31.9873 94.2578 30.9713 91.4376 29.1934C89.4507 27.9234 87.0792 26.2089 84.5154 24.2405C83.8744 24.4945 83.2335 24.812 82.6566 25.1295C79.9647 26.7169 77.9136 29.0029 75.9908 31.4793C74.3884 33.4478 73.1706 35.7337 72.4015 38.2102C71.8246 40.0516 71.5683 41.9566 71.5042 43.9251C71.4401 44.814 71.5042 45.703 71.7605 46.5285C72.2733 46.1475 72.6579 45.703 73.0424 45.195C73.7475 44.306 74.3884 43.4171 75.0935 42.4646C77.6572 38.9722 80.1569 35.4797 82.0157 36.4322C83.7462 37.3212 83.2335 40.1786 82.7848 43.0361C82.6566 43.6711 82.5285 44.3695 82.4644 44.941C82.3362 45.703 82.4644 46.5285 82.7848 47.2905C83.4258 46.592 83.9385 45.83 84.259 44.941C85.7332 41.7661 86.6946 38.3372 87.1433 34.9082C87.2074 34.2733 87.7842 33.7653 88.4252 33.8288C89.0661 33.8923 89.5789 34.4638 89.5148 35.0987C89.0661 38.8452 88.0406 42.4646 86.4382 45.8935C85.5409 47.9255 84.6436 49.0049 83.8103 49.4494C83.2335 49.8304 82.5285 49.8939 81.8875 49.5764C81.3747 49.3224 80.9261 48.9414 80.6697 48.4335C80.0928 47.227 79.8365 45.957 80.0288 44.6235C80.0928 43.9885 80.221 43.2901 80.3492 42.6551C80.6697 40.6866 81.0543 38.6547 80.862 38.5277C80.862 38.5277 78.9391 41.1946 76.9522 43.8616C76.2472 44.8775 75.5421 45.83 74.9012 46.6555C74.3243 47.5445 73.4911 48.243 72.5938 48.7509C72.0169 49.0684 71.3119 49.0684 70.735 48.8144C70.2223 48.5605 69.8377 48.116 69.5813 47.5445C69.1968 46.338 69.0686 45.1315 69.1327 43.8616C69.1327 41.7026 69.4531 39.6071 70.0941 37.5117C70.9273 34.7812 72.3374 32.2413 74.132 30.0189C76.1831 27.3519 78.4905 24.8755 81.5029 23.0975C81.8234 22.907 82.1439 22.7165 82.4644 22.5895L82.3362 22.526C79.3878 20.1766 75.9908 18.3986 72.3374 17.3826C68.5558 16.3667 64.5819 15.9857 60.6722 16.0492C58.2366 16.1127 55.801 16.5572 53.5576 17.5096C57.3392 19.9861 60.4158 23.415 62.4027 27.4789C62.6591 28.0504 62.9155 28.6854 63.1719 29.3204C64.4537 33.1303 64.5819 38.0197 64.0692 42.0836C63.4923 46.338 62.1463 49.8939 60.3517 50.7194C60.2876 50.7829 60.1594 50.7829 60.0953 50.8464C57.7238 51.6084 56.1214 49.4494 55.0318 46.2745C54.1986 43.5441 53.5577 40.6866 53.109 37.8292C52.4039 34.0193 51.6989 34.0193 51.058 34.0193ZM9.26822 27.2249C10.8706 26.2089 12.7293 24.939 14.6522 23.415C12.7934 23.0975 10.8706 23.034 8.94774 23.2245C6.06348 23.542 4.52521 24.431 3.88426 25.447C3.56379 25.8914 3.4356 26.3994 3.3715 26.9074C3.3715 27.4154 3.4356 27.8599 3.62788 28.3044C3.88426 28.9394 4.20473 29.3839 4.46111 29.3839C5.23025 29.5109 6.96081 28.6854 9.26822 27.2249ZM87.2715 23.415C89.1943 24.8755 91.053 26.1454 92.6554 27.2249C94.9628 28.6854 96.7575 29.5744 97.4625 29.4474C97.7189 29.3839 98.0394 29.0029 98.2957 28.3679C98.488 27.9234 98.5521 27.4154 98.5521 26.9709C98.5521 26.4629 98.3598 25.955 98.0394 25.5105C97.3343 24.4945 95.7961 23.6055 92.9759 23.288C91.1171 23.034 89.1943 23.0975 87.2715 23.415ZM88.0406 6.01639C91.2453 6.01639 93.8091 8.61983 93.745 11.7948C93.745 13.2552 93.1682 14.7157 92.0786 15.7952C89.8353 18.0176 86.1818 18.0176 83.9385 15.7952C81.6952 13.5727 81.6952 9.9533 83.9385 7.73085L84.0026 7.66735C85.1563 6.58788 86.5664 6.01639 88.0406 6.01639ZM90.4121 9.38182C89.1302 8.11184 87.0151 8.04834 85.6691 9.31832L85.605 9.38182C84.259 10.7153 84.259 12.8107 85.605 14.0807C86.951 15.4142 89.0661 15.4142 90.348 14.0807C91.7581 12.8107 91.7581 10.7153 90.4121 9.38182ZM50.9939 1C54.1986 1 56.7624 3.60344 56.6983 6.77837C56.6983 8.23884 56.1214 9.69931 55.0318 10.7788C52.7885 13.0012 49.1351 13.0012 46.8918 10.7788C44.6485 8.55633 44.6485 4.93691 46.8918 2.71446L46.9559 2.65096C48.0455 1.57149 49.5197 1 50.9939 1ZM53.3654 4.36543C52.0835 3.09545 49.9683 3.03196 48.6865 4.30193L48.6224 4.36543C47.2764 5.6989 47.2764 7.79435 48.6224 9.06432C49.9683 10.3343 52.0835 10.3978 53.3654 9.06432C54.7113 7.73085 54.7113 5.6354 53.3654 4.36543ZM9.84507 7.73085C12.2166 5.6354 15.87 5.88939 17.9851 8.23884C19.9079 10.3978 19.9079 13.5727 18.0492 15.7317L17.9851 15.7952C15.7418 18.0176 12.0884 18.0176 9.84507 15.7952C7.60175 13.5092 7.60175 9.9533 9.84507 7.73085Z" stroke="#5A69AF" stroke-width="0.2" mask="url(#path-1-outside-1_432_58)"/>
<path d="M122.56 21.356C122.504 21.4493 122.401 21.5333 122.252 21.608C122.103 21.664 121.944 21.7107 121.776 21.748C121.627 21.7667 121.477 21.7853 121.328 21.804C121.197 21.8227 121.123 21.8413 121.104 21.86C120.861 21.8787 120.581 21.8973 120.264 21.916C119.947 21.9347 119.573 21.9627 119.144 22C119.088 21.9813 119.013 21.972 118.92 21.972C118.845 21.972 118.733 21.9907 118.584 22.028C118.435 22.0653 118.313 22.084 118.22 22.084C117.604 22.084 117.296 21.7293 117.296 21.02C117.296 20.4787 117.464 20.1053 117.8 19.9L118.976 19.508C118.976 19.004 119.032 18.2853 119.144 17.352C119.125 17.2587 119.107 17.156 119.088 17.044C119.088 16.9133 119.088 16.7733 119.088 16.624C119.088 15.9707 119.107 15.4667 119.144 15.112C119.181 14.7573 119.2 14.5613 119.2 14.524C119.2 14.356 119.191 14.1693 119.172 13.964C119.172 13.74 119.153 13.4507 119.116 13.096C119.097 12.7227 119.06 12.2653 119.004 11.724C118.967 11.1827 118.92 10.52 118.864 9.736L117.884 9.596C117.604 9.148 117.464 8.74667 117.464 8.392C117.464 8.18667 117.492 8.01867 117.548 7.888C117.604 7.73867 117.707 7.61733 117.856 7.524C118.024 7.43067 118.248 7.36533 118.528 7.328C118.827 7.29067 119.209 7.272 119.676 7.272C119.919 7.272 120.143 7.29067 120.348 7.328C120.553 7.36533 120.731 7.40267 120.88 7.44C121.328 7.44 121.692 7.45867 121.972 7.496C122.252 7.51467 122.457 7.57067 122.588 7.664C122.737 7.73867 122.831 7.85067 122.868 8C122.924 8.13067 122.952 8.308 122.952 8.532C122.952 8.99867 122.747 9.428 122.336 9.82C122.261 9.83867 121.925 9.848 121.328 9.848C121.347 10.128 121.365 10.3707 121.384 10.576C121.403 10.7813 121.421 11.052 121.44 11.388C121.477 11.7053 121.505 12.1347 121.524 12.676C121.543 13.1987 121.561 13.9173 121.58 14.832C121.58 15.2613 121.571 15.6347 121.552 15.952C121.552 16.2507 121.552 16.5213 121.552 16.764C121.552 17.2493 121.561 17.52 121.58 17.576L121.468 19.424C122.009 19.4987 122.373 19.6293 122.56 19.816C122.765 20.0027 122.868 20.2827 122.868 20.656C122.868 20.9173 122.765 21.1507 122.56 21.356ZM136.805 18.892V19.116C136.805 19.228 136.805 19.4333 136.805 19.732C136.824 20.012 136.796 20.3013 136.721 20.6C136.665 20.8987 136.544 21.1693 136.357 21.412C136.171 21.636 135.891 21.748 135.517 21.748C134.789 21.748 134.36 21.4587 134.229 20.88C134.248 20.768 134.257 20.6467 134.257 20.516C134.257 20.3667 134.257 20.208 134.257 20.04C134.257 19.9653 134.257 19.6947 134.257 19.228C134.257 18.7427 134.239 18.22 134.201 17.66C134.183 17.1 134.127 16.5773 134.033 16.092C133.94 15.588 133.8 15.2707 133.613 15.14C133.184 14.8413 132.801 14.692 132.465 14.692C132.017 14.692 131.635 14.832 131.317 15.112C131.019 15.3733 130.767 15.896 130.561 16.68C130.543 16.9413 130.524 17.24 130.505 17.576C130.487 17.8933 130.459 18.2573 130.421 18.668C130.421 18.9853 130.431 19.34 130.449 19.732C130.468 20.1053 130.496 20.5347 130.533 21.02C130.533 21.3747 130.393 21.6733 130.113 21.916C129.833 22.14 129.516 22.252 129.161 22.252C128.881 22.252 128.657 22.1773 128.489 22.028C128.321 21.8787 128.191 21.6827 128.097 21.44C128.023 21.1973 127.967 20.936 127.929 20.656C127.911 20.376 127.901 20.096 127.901 19.816C127.901 19.6107 127.911 19.4053 127.929 19.2C127.948 18.976 127.976 18.752 128.013 18.528L128.237 15.84L128.461 14.496C128.424 14.272 128.349 14.0293 128.237 13.768C128.125 13.5067 128.069 13.3013 128.069 13.152C128.069 12.8347 128.191 12.5453 128.433 12.284C128.695 12.0227 129.012 11.892 129.385 11.892C129.647 11.892 129.843 11.948 129.973 12.06C130.104 12.1533 130.319 12.396 130.617 12.788C130.991 12.62 131.289 12.5173 131.513 12.48C131.737 12.424 131.999 12.396 132.297 12.396C133.268 12.396 134.117 12.6293 134.845 13.096C135.592 13.544 136.059 14.3 136.245 15.364C136.301 15.756 136.348 16.0827 136.385 16.344C136.441 16.6053 136.488 16.8573 136.525 17.1C136.563 17.3427 136.6 17.604 136.637 17.884C136.675 18.1453 136.731 18.4813 136.805 18.892ZM147.855 11.444C148.06 11.612 148.163 11.92 148.163 12.368C148.163 13.1893 147.855 13.6 147.239 13.6H147.127C146.847 13.6187 146.52 13.6467 146.147 13.684C145.774 13.7027 145.354 13.74 144.887 13.796C144.85 14.0947 144.812 14.496 144.775 15C144.738 15.4853 144.719 16.0733 144.719 16.764C144.719 16.82 144.719 16.876 144.719 16.932C144.738 16.988 144.747 17.0533 144.747 17.128V18.416C144.747 18.7147 144.794 18.9573 144.887 19.144C144.999 19.312 145.13 19.4333 145.279 19.508L146.063 19.76C146.679 19.9653 146.987 20.3387 146.987 20.88C146.987 21.1973 146.856 21.4773 146.595 21.72C146.352 21.9627 146.035 22.084 145.643 22.084C145.531 22.084 145.335 22.056 145.055 22C144.794 21.9253 144.514 21.832 144.215 21.72C143.935 21.608 143.664 21.468 143.403 21.3C143.16 21.132 142.992 20.9453 142.899 20.74C142.694 20.3107 142.526 19.8627 142.395 19.396C142.264 18.9107 142.199 18.4067 142.199 17.884C142.199 17.3053 142.208 16.8947 142.227 16.652C142.246 16.4093 142.264 16.1947 142.283 16.008C142.302 15.8213 142.32 15.5973 142.339 15.336C142.358 15.0747 142.367 14.6453 142.367 14.048C142.012 14.0853 141.49 14.1973 140.799 14.384C140.388 14.384 140.034 14.2813 139.735 14.076C139.455 13.852 139.315 13.5627 139.315 13.208C139.315 12.9467 139.39 12.704 139.539 12.48C139.707 12.256 140.043 12.06 140.547 11.892C140.715 11.836 140.864 11.7987 140.995 11.78C141.144 11.7613 141.284 11.7427 141.415 11.724C141.564 11.7053 141.723 11.696 141.891 11.696C142.059 11.6773 142.264 11.6493 142.507 11.612C142.526 11.1453 142.554 10.6227 142.591 10.044C142.647 9.44667 142.731 8.896 142.843 8.392C142.974 7.888 143.151 7.468 143.375 7.132C143.618 6.77733 143.935 6.6 144.327 6.6C144.999 6.6 145.41 6.908 145.559 7.524C145.559 7.54267 145.531 7.67333 145.475 7.916C145.438 8.14 145.391 8.392 145.335 8.672C145.279 8.952 145.223 9.22267 145.167 9.484C145.13 9.74533 145.111 9.91333 145.111 9.988L145.027 11.36C145.158 11.3413 145.279 11.332 145.391 11.332C145.503 11.3133 145.624 11.304 145.755 11.304H146.007C146.138 11.304 146.259 11.304 146.371 11.304C146.483 11.2853 146.586 11.276 146.679 11.276C147.239 11.276 147.631 11.332 147.855 11.444ZM160.362 20.88C159.765 21.4773 159.093 21.9813 158.346 22.392C157.6 22.8213 156.844 23.036 156.078 23.036C155.388 23.036 154.501 22.924 153.418 22.7C153.045 22.4573 152.672 22.168 152.298 21.832C151.925 21.4773 151.589 21.0947 151.29 20.684C150.992 20.2547 150.749 19.7973 150.562 19.312C150.376 18.808 150.282 18.2947 150.282 17.772C150.282 17.6227 150.292 17.4267 150.31 17.184C150.329 16.9227 150.348 16.6707 150.366 16.428C150.404 16.1667 150.432 15.9427 150.45 15.756C150.469 15.5693 150.478 15.476 150.478 15.476C150.852 14.8787 151.244 14.2907 151.654 13.712C152.084 13.1147 152.681 12.592 153.446 12.144C154.66 11.8827 155.537 11.752 156.078 11.752C156.358 11.752 156.601 11.7707 156.806 11.808C157.012 11.8267 157.208 11.8827 157.394 11.976C157.6 12.0507 157.796 12.172 157.982 12.34C158.188 12.508 158.421 12.7227 158.682 12.984C158.981 13.3013 159.214 13.516 159.382 13.628C159.569 13.74 159.662 13.8427 159.662 13.936C159.662 15.6533 159.13 16.82 158.066 17.436C157.6 17.604 156.993 17.7907 156.246 17.996C155.5 18.1827 154.482 18.36 153.194 18.528C153.456 19.2373 153.801 19.7693 154.23 20.124C154.66 20.4787 155.145 20.656 155.686 20.656C156.489 20.656 157.497 20.18 158.71 19.228C158.897 19.06 159.13 18.976 159.41 18.976C159.709 18.976 159.97 19.088 160.194 19.312C160.437 19.536 160.558 19.816 160.558 20.152C160.558 20.3947 160.493 20.6373 160.362 20.88ZM157.198 14.888C156.844 14.3093 156.424 14.02 155.938 14.02C155.733 14.02 155.509 14.048 155.266 14.104C155.024 14.16 154.772 14.244 154.51 14.356C154.268 14.4493 154.034 14.5707 153.81 14.72C153.605 14.8693 153.437 15.0467 153.306 15.252L153.026 16.092C153.661 16.036 154.221 15.9893 154.706 15.952C155.192 15.9147 155.612 15.8587 155.966 15.784C156.321 15.7093 156.601 15.6067 156.806 15.476C157.012 15.3453 157.142 15.1493 157.198 14.888ZM171.605 12.48C171.904 12.6667 172.053 13.0213 172.053 13.544C172.053 13.936 171.951 14.272 171.745 14.552C171.54 14.832 171.26 14.972 170.905 14.972C170.681 14.972 170.448 14.916 170.205 14.804C169.981 14.6733 169.739 14.608 169.477 14.608C169.253 14.608 169.029 14.6547 168.805 14.748C168.6 14.8227 168.357 15 168.077 15.28L167.237 16.12C167.237 16.2507 167.237 16.3813 167.237 16.512C167.256 16.6427 167.265 16.7827 167.265 16.932C167.265 17.156 167.256 17.3893 167.237 17.632C167.237 17.8747 167.228 18.136 167.209 18.416L167.461 20.964C167.405 21.8227 166.967 22.252 166.145 22.252C165.716 22.252 165.399 22.1213 165.193 21.86C164.988 21.58 164.848 21.1973 164.773 20.712C164.699 20.2267 164.661 19.6573 164.661 19.004C164.68 18.3507 164.68 17.632 164.661 16.848C164.624 15.672 164.596 15.084 164.577 15.084V15.112C164.503 14.832 164.447 14.5893 164.409 14.384C164.372 14.16 164.353 13.964 164.353 13.796C164.353 13.46 164.475 13.1893 164.717 12.984C164.96 12.76 165.315 12.648 165.781 12.648C166.08 12.648 166.435 12.8813 166.845 13.348C167.275 13.012 167.601 12.76 167.825 12.592C168.068 12.424 168.264 12.3027 168.413 12.228C168.581 12.1533 168.74 12.116 168.889 12.116C169.039 12.0973 169.235 12.088 169.477 12.088C169.683 12.0693 169.869 12.0787 170.037 12.116C170.224 12.1533 170.42 12.1907 170.625 12.228L171.605 12.48ZM183.837 18.892V19.116C183.837 19.228 183.837 19.4333 183.837 19.732C183.855 20.012 183.827 20.3013 183.753 20.6C183.697 20.8987 183.575 21.1693 183.389 21.412C183.202 21.636 182.922 21.748 182.549 21.748C181.821 21.748 181.391 21.4587 181.261 20.88C181.279 20.768 181.289 20.6467 181.289 20.516C181.289 20.3667 181.289 20.208 181.289 20.04C181.289 19.9653 181.289 19.6947 181.289 19.228C181.289 18.7427 181.27 18.22 181.233 17.66C181.214 17.1 181.158 16.5773 181.065 16.092C180.971 15.588 180.831 15.2707 180.645 15.14C180.215 14.8413 179.833 14.692 179.497 14.692C179.049 14.692 178.666 14.832 178.349 15.112C178.05 15.3733 177.798 15.896 177.593 16.68C177.574 16.9413 177.555 17.24 177.537 17.576C177.518 17.8933 177.49 18.2573 177.453 18.668C177.453 18.9853 177.462 19.34 177.481 19.732C177.499 20.1053 177.527 20.5347 177.565 21.02C177.565 21.3747 177.425 21.6733 177.145 21.916C176.865 22.14 176.547 22.252 176.193 22.252C175.913 22.252 175.689 22.1773 175.521 22.028C175.353 21.8787 175.222 21.6827 175.129 21.44C175.054 21.1973 174.998 20.936 174.961 20.656C174.942 20.376 174.933 20.096 174.933 19.816C174.933 19.6107 174.942 19.4053 174.961 19.2C174.979 18.976 175.007 18.752 175.045 18.528L175.269 15.84L175.493 14.496C175.455 14.272 175.381 14.0293 175.269 13.768C175.157 13.5067 175.101 13.3013 175.101 13.152C175.101 12.8347 175.222 12.5453 175.465 12.284C175.726 12.0227 176.043 11.892 176.417 11.892C176.678 11.892 176.874 11.948 177.005 12.06C177.135 12.1533 177.35 12.396 177.649 12.788C178.022 12.62 178.321 12.5173 178.545 12.48C178.769 12.424 179.03 12.396 179.329 12.396C180.299 12.396 181.149 12.6293 181.877 13.096C182.623 13.544 183.09 14.3 183.277 15.364C183.333 15.756 183.379 16.0827 183.417 16.344C183.473 16.6053 183.519 16.8573 183.557 17.1C183.594 17.3427 183.631 17.604 183.669 17.884C183.706 18.1453 183.762 18.4813 183.837 18.892ZM198.022 18.696C198.358 18.92 198.526 19.1907 198.526 19.508C198.526 19.676 198.48 19.8533 198.386 20.04C198.293 20.208 198.172 20.3667 198.022 20.516C197.873 20.6467 197.714 20.7587 197.546 20.852C197.378 20.9453 197.21 20.992 197.042 20.992C196.893 20.936 196.716 20.8427 196.51 20.712C196.305 20.5627 196.1 20.404 195.894 20.236C195.689 20.0493 195.493 19.844 195.306 19.62C195.138 19.396 195.008 19.172 194.914 18.948L194.718 19.424C194.364 20.096 193.804 20.7307 193.038 21.328C192.105 21.496 191.564 21.58 191.414 21.58C191.06 21.58 190.63 21.524 190.126 21.412L188.586 20.32C187.914 19.6853 187.578 18.8173 187.578 17.716C187.578 17.324 187.634 16.8947 187.746 16.428C187.877 15.9427 188.054 15.4573 188.278 14.972C188.521 14.4867 188.81 14.0107 189.146 13.544C189.482 13.0773 189.874 12.6573 190.322 12.284C190.864 12.0787 191.386 11.9107 191.89 11.78C192.394 11.6307 192.777 11.5373 193.038 11.5C193.393 11.108 193.813 10.912 194.298 10.912C194.578 10.912 194.821 11.052 195.026 11.332C195.25 11.5933 195.437 11.9293 195.586 12.34C195.754 12.7507 195.885 13.208 195.978 13.712C196.072 14.1973 196.137 14.664 196.174 15.112L196.538 16.596C196.65 17.0627 196.828 17.464 197.07 17.8C197.332 18.136 197.649 18.4347 198.022 18.696ZM193.766 15.588C193.729 15.5693 193.589 14.9813 193.346 13.824C193.253 13.824 193.113 13.824 192.926 13.824C192.74 13.824 192.516 13.88 192.254 13.992C192.012 14.0853 191.741 14.2627 191.442 14.524C191.162 14.7667 190.892 15.14 190.63 15.644C190.238 16.372 190.042 17.1 190.042 17.828C190.36 18.444 190.854 18.9293 191.526 19.284C191.732 19.228 191.9 19.1627 192.03 19.088C192.18 19.0133 192.31 18.9107 192.422 18.78C192.534 18.6493 192.637 18.4907 192.73 18.304C192.842 18.0987 192.964 17.8467 193.094 17.548C193.337 17.1187 193.505 16.7453 193.598 16.428C193.71 16.092 193.766 15.812 193.766 15.588ZM207.929 11.444C208.135 11.612 208.237 11.92 208.237 12.368C208.237 13.1893 207.929 13.6 207.313 13.6H207.201C206.921 13.6187 206.595 13.6467 206.221 13.684C205.848 13.7027 205.428 13.74 204.961 13.796C204.924 14.0947 204.887 14.496 204.849 15C204.812 15.4853 204.793 16.0733 204.793 16.764C204.793 16.82 204.793 16.876 204.793 16.932C204.812 16.988 204.821 17.0533 204.821 17.128V18.416C204.821 18.7147 204.868 18.9573 204.961 19.144C205.073 19.312 205.204 19.4333 205.353 19.508L206.137 19.76C206.753 19.9653 207.061 20.3387 207.061 20.88C207.061 21.1973 206.931 21.4773 206.669 21.72C206.427 21.9627 206.109 22.084 205.717 22.084C205.605 22.084 205.409 22.056 205.129 22C204.868 21.9253 204.588 21.832 204.289 21.72C204.009 21.608 203.739 21.468 203.477 21.3C203.235 21.132 203.067 20.9453 202.973 20.74C202.768 20.3107 202.6 19.8627 202.469 19.396C202.339 18.9107 202.273 18.4067 202.273 17.884C202.273 17.3053 202.283 16.8947 202.301 16.652C202.32 16.4093 202.339 16.1947 202.357 16.008C202.376 15.8213 202.395 15.5973 202.413 15.336C202.432 15.0747 202.441 14.6453 202.441 14.048C202.087 14.0853 201.564 14.1973 200.873 14.384C200.463 14.384 200.108 14.2813 199.809 14.076C199.529 13.852 199.389 13.5627 199.389 13.208C199.389 12.9467 199.464 12.704 199.613 12.48C199.781 12.256 200.117 12.06 200.621 11.892C200.789 11.836 200.939 11.7987 201.069 11.78C201.219 11.7613 201.359 11.7427 201.489 11.724C201.639 11.7053 201.797 11.696 201.965 11.696C202.133 11.6773 202.339 11.6493 202.581 11.612C202.6 11.1453 202.628 10.6227 202.665 10.044C202.721 9.44667 202.805 8.896 202.917 8.392C203.048 7.888 203.225 7.468 203.449 7.132C203.692 6.77733 204.009 6.6 204.401 6.6C205.073 6.6 205.484 6.908 205.633 7.524C205.633 7.54267 205.605 7.67333 205.549 7.916C205.512 8.14 205.465 8.392 205.409 8.672C205.353 8.952 205.297 9.22267 205.241 9.484C205.204 9.74533 205.185 9.91333 205.185 9.988L205.101 11.36C205.232 11.3413 205.353 11.332 205.465 11.332C205.577 11.3133 205.699 11.304 205.829 11.304H206.081C206.212 11.304 206.333 11.304 206.445 11.304C206.557 11.2853 206.66 11.276 206.753 11.276C207.313 11.276 207.705 11.332 207.929 11.444ZM215.228 8.812C215.266 8.96133 215.284 9.10133 215.284 9.232C215.284 9.82933 215.107 10.3333 214.752 10.744C214.192 10.968 213.632 11.08 213.072 11.08C212.718 10.856 212.419 10.604 212.176 10.324C211.952 10.0253 211.84 9.736 211.84 9.456C211.84 9.21333 212.12 8.616 212.68 7.664C212.923 7.70133 213.175 7.72933 213.436 7.748C213.716 7.76667 213.968 7.81333 214.192 7.888C214.435 7.96267 214.64 8.07467 214.808 8.224C214.995 8.35467 215.135 8.55067 215.228 8.812ZM214.332 13.488V13.852C214.332 13.9453 214.332 14.048 214.332 14.16C214.332 14.272 214.314 14.3747 214.276 14.468L214.052 15.728V15.98C214.052 16.092 214.043 16.2413 214.024 16.428C214.006 16.6147 213.978 16.8013 213.94 16.988C213.922 17.1747 213.903 17.352 213.884 17.52C213.866 17.688 213.856 17.828 213.856 17.94C213.856 18.0333 213.856 18.108 213.856 18.164C213.875 18.22 213.884 18.2947 213.884 18.388C213.884 18.556 213.866 18.7427 213.828 18.948C213.791 19.1347 213.772 19.3493 213.772 19.592C213.772 19.816 213.8 20.0493 213.856 20.292C213.651 21.132 213.222 21.552 212.568 21.552C211.654 21.552 211.196 20.6933 211.196 18.976C211.196 18.3973 211.224 17.828 211.28 17.268C211.336 16.6893 211.402 16.1573 211.476 15.672C211.551 15.1867 211.626 14.7667 211.7 14.412C211.794 14.0387 211.868 13.7493 211.924 13.544C212.204 13.1333 212.596 12.928 213.1 12.928C213.586 12.928 213.996 13.1147 214.332 13.488ZM226.529 21.3C226.286 21.468 225.894 21.636 225.353 21.804C224.812 21.9533 224.252 22.084 223.673 22.196L222.525 21.972C222.357 21.916 222.077 21.7853 221.685 21.58C221.312 21.3747 220.929 21.0667 220.537 20.656C220.145 20.2267 219.8 19.6853 219.501 19.032C219.202 18.36 219.053 17.548 219.053 16.596C219.053 16.26 219.128 15.868 219.277 15.42C219.445 14.9533 219.688 14.524 220.005 14.132C220.322 13.7213 220.714 13.376 221.181 13.096C221.666 12.816 222.226 12.676 222.861 12.676C224.13 12.676 225.278 13.0867 226.305 13.908C227.201 15.14 227.649 16.5027 227.649 17.996C227.649 19.0973 227.276 20.1987 226.529 21.3ZM225.157 17.324C225.064 16.596 224.83 16.0267 224.457 15.616C224.102 15.1867 223.645 14.972 223.085 14.972C222.712 14.972 222.357 15.1587 222.021 15.532C221.704 15.8867 221.545 16.4093 221.545 17.1C221.545 17.38 221.582 17.6787 221.657 17.996C221.732 18.2947 221.853 18.5747 222.021 18.836C222.189 19.0787 222.404 19.284 222.665 19.452C222.926 19.6013 223.244 19.676 223.617 19.676C224.214 19.676 224.625 19.4987 224.849 19.144C225.073 18.7707 225.185 18.3133 225.185 17.772C225.185 17.6973 225.176 17.632 225.157 17.576C225.157 17.5013 225.157 17.4173 225.157 17.324ZM240.302 18.892V19.116C240.302 19.228 240.302 19.4333 240.302 19.732C240.32 20.012 240.292 20.3013 240.218 20.6C240.162 20.8987 240.04 21.1693 239.854 21.412C239.667 21.636 239.387 21.748 239.014 21.748C238.286 21.748 237.856 21.4587 237.726 20.88C237.744 20.768 237.754 20.6467 237.754 20.516C237.754 20.3667 237.754 20.208 237.754 20.04C237.754 19.9653 237.754 19.6947 237.754 19.228C237.754 18.7427 237.735 18.22 237.698 17.66C237.679 17.1 237.623 16.5773 237.53 16.092C237.436 15.588 237.296 15.2707 237.11 15.14C236.68 14.8413 236.298 14.692 235.962 14.692C235.514 14.692 235.131 14.832 234.814 15.112C234.515 15.3733 234.263 15.896 234.058 16.68C234.039 16.9413 234.02 17.24 234.002 17.576C233.983 17.8933 233.955 18.2573 233.918 18.668C233.918 18.9853 233.927 19.34 233.946 19.732C233.964 20.1053 233.992 20.5347 234.03 21.02C234.03 21.3747 233.89 21.6733 233.61 21.916C233.33 22.14 233.012 22.252 232.658 22.252C232.378 22.252 232.154 22.1773 231.986 22.028C231.818 21.8787 231.687 21.6827 231.594 21.44C231.519 21.1973 231.463 20.936 231.426 20.656C231.407 20.376 231.398 20.096 231.398 19.816C231.398 19.6107 231.407 19.4053 231.426 19.2C231.444 18.976 231.472 18.752 231.51 18.528L231.734 15.84L231.958 14.496C231.92 14.272 231.846 14.0293 231.734 13.768C231.622 13.5067 231.566 13.3013 231.566 13.152C231.566 12.8347 231.687 12.5453 231.93 12.284C232.191 12.0227 232.508 11.892 232.882 11.892C233.143 11.892 233.339 11.948 233.47 12.06C233.6 12.1533 233.815 12.396 234.114 12.788C234.487 12.62 234.786 12.5173 235.01 12.48C235.234 12.424 235.495 12.396 235.794 12.396C236.764 12.396 237.614 12.6293 238.342 13.096C239.088 13.544 239.555 14.3 239.742 15.364C239.798 15.756 239.844 16.0827 239.882 16.344C239.938 16.6053 239.984 16.8573 240.022 17.1C240.059 17.3427 240.096 17.604 240.134 17.884C240.171 18.1453 240.227 18.4813 240.302 18.892ZM254.487 18.696C254.823 18.92 254.991 19.1907 254.991 19.508C254.991 19.676 254.945 19.8533 254.851 20.04C254.758 20.208 254.637 20.3667 254.487 20.516C254.338 20.6467 254.179 20.7587 254.011 20.852C253.843 20.9453 253.675 20.992 253.507 20.992C253.358 20.936 253.181 20.8427 252.975 20.712C252.77 20.5627 252.565 20.404 252.359 20.236C252.154 20.0493 251.958 19.844 251.771 19.62C251.603 19.396 251.473 19.172 251.379 18.948L251.183 19.424C250.829 20.096 250.269 20.7307 249.503 21.328C248.57 21.496 248.029 21.58 247.879 21.58C247.525 21.58 247.095 21.524 246.591 21.412L245.051 20.32C244.379 19.6853 244.043 18.8173 244.043 17.716C244.043 17.324 244.099 16.8947 244.211 16.428C244.342 15.9427 244.519 15.4573 244.743 14.972C244.986 14.4867 245.275 14.0107 245.611 13.544C245.947 13.0773 246.339 12.6573 246.787 12.284C247.329 12.0787 247.851 11.9107 248.355 11.78C248.859 11.6307 249.242 11.5373 249.503 11.5C249.858 11.108 250.278 10.912 250.763 10.912C251.043 10.912 251.286 11.052 251.491 11.332C251.715 11.5933 251.902 11.9293 252.051 12.34C252.219 12.7507 252.35 13.208 252.443 13.712C252.537 14.1973 252.602 14.664 252.639 15.112L253.003 16.596C253.115 17.0627 253.293 17.464 253.535 17.8C253.797 18.136 254.114 18.4347 254.487 18.696ZM250.231 15.588C250.194 15.5693 250.054 14.9813 249.811 13.824C249.718 13.824 249.578 13.824 249.391 13.824C249.205 13.824 248.981 13.88 248.719 13.992C248.477 14.0853 248.206 14.2627 247.907 14.524C247.627 14.7667 247.357 15.14 247.095 15.644C246.703 16.372 246.507 17.1 246.507 17.828C246.825 18.444 247.319 18.9293 247.991 19.284C248.197 19.228 248.365 19.1627 248.495 19.088C248.645 19.0133 248.775 18.9107 248.887 18.78C248.999 18.6493 249.102 18.4907 249.195 18.304C249.307 18.0987 249.429 17.8467 249.559 17.548C249.802 17.1187 249.97 16.7453 250.063 16.428C250.175 16.092 250.231 15.812 250.231 15.588ZM261.818 7.272C261.781 7.73867 261.669 8.27067 261.482 8.868C261.314 9.44667 261.193 9.92267 261.118 10.296V10.632C261.118 10.8933 261.1 11.1733 261.062 11.472C261.025 11.7707 260.988 12.06 260.95 12.34C260.913 12.6013 260.866 12.8347 260.81 13.04C260.773 13.2453 260.754 13.3853 260.754 13.46C260.736 13.5533 260.726 13.7773 260.726 14.132C260.726 14.4867 260.726 14.9627 260.726 15.56V15.896C260.726 16.2693 260.708 16.596 260.67 16.876C260.633 17.156 260.586 17.408 260.53 17.632L260.782 19.732C260.857 19.9373 261.109 20.2453 261.538 20.656C261.445 20.992 261.202 21.3 260.81 21.58C260.418 21.8413 260.017 21.972 259.606 21.972C259.046 21.972 258.617 21.7107 258.318 21.188C258.038 20.6467 257.898 19.7507 257.898 18.5C257.898 18.2947 257.908 18.1173 257.926 17.968C257.964 17.8187 257.982 17.632 257.982 17.408C257.982 16.96 257.926 16.4 257.814 15.728C257.908 15.5227 257.973 15.2613 258.01 14.944C258.066 14.6267 258.104 14.328 258.122 14.048C258.141 13.7493 258.15 13.4973 258.15 13.292C258.15 13.0867 258.15 13.0027 258.15 13.04C258.15 13.0587 258.169 12.928 258.206 12.648C258.262 12.368 258.318 12.0413 258.374 11.668C258.43 11.276 258.477 10.8747 258.514 10.464C258.57 10.0533 258.598 9.72667 258.598 9.484V9.26L259.074 6.908C259.317 6.49733 259.737 6.292 260.334 6.292C260.988 6.292 261.482 6.61867 261.818 7.272ZM132.696 45.58C132.603 46.084 132.183 46.336 131.436 46.336C130.913 46.336 130.559 46.1587 130.372 45.804C130.279 45.3 130.213 44.8427 130.176 44.432C130.139 44.0027 130.092 43.5453 130.036 43.06C129.999 42.556 129.943 41.9867 129.868 41.352C129.812 40.7173 129.7 39.9333 129.532 39C129.495 38.6453 129.467 38.3 129.448 37.964C129.448 37.628 129.439 37.3013 129.42 36.984C129.065 37.4693 128.72 37.9173 128.384 38.328C128.048 38.7387 127.703 39.112 127.348 39.448C126.919 40.1013 126.284 40.7827 125.444 41.492H125.276C124.884 41.492 124.501 41.408 124.128 41.24C123.773 41.0533 123.54 40.8573 123.428 40.652C123.223 40.316 122.961 39.868 122.644 39.308C122.345 38.748 121.953 38.0947 121.468 37.348L120.768 36.284C120.675 36.7693 120.572 37.3853 120.46 38.132C120.367 38.86 120.255 39.728 120.124 40.736V41.156C120.124 41.436 120.115 41.7533 120.096 42.108C120.077 42.4627 120.04 42.864 119.984 43.312L119.732 46.084C119.676 46.6253 119.237 46.896 118.416 46.896C118.155 46.896 117.949 46.8773 117.8 46.84C117.651 46.8027 117.529 46.7187 117.436 46.588C117.343 46.476 117.277 46.308 117.24 46.084C117.221 45.86 117.212 45.552 117.212 45.16C117.212 44.04 117.221 43.48 117.24 43.48V43.508C117.315 43.3213 117.371 43.0693 117.408 42.752C117.464 42.4347 117.501 42.1267 117.52 41.828C117.557 41.5107 117.576 41.24 117.576 41.016C117.595 40.7733 117.604 40.652 117.604 40.652C117.604 40.6147 117.623 40.4653 117.66 40.204C117.697 39.924 117.735 39.6253 117.772 39.308C117.828 38.972 117.875 38.6547 117.912 38.356C117.949 38.0387 117.968 37.824 117.968 37.712V37.544C118.005 37.096 118.043 36.6013 118.08 36.06C118.117 35.5187 118.173 34.9213 118.248 34.268L118.78 31.86C119.079 31.6173 119.517 31.496 120.096 31.496C120.395 31.496 120.656 31.552 120.88 31.664C121.179 32.0933 121.468 32.5133 121.748 32.924C122.047 33.3347 122.345 33.7827 122.644 34.268C122.961 34.7533 123.307 35.3133 123.68 35.948C124.053 36.5827 124.492 37.348 124.996 38.244C125.761 37.5347 126.228 36.9747 126.396 36.564C126.452 36.5453 127.04 35.7613 128.16 34.212L129.392 32.644C129.541 32.5693 129.747 32.532 130.008 32.532C130.531 32.532 131.007 32.6907 131.436 33.008C131.772 34.5573 131.94 35.6587 131.94 36.312V36.564C131.94 36.6573 131.959 36.8813 131.996 37.236C132.033 37.572 132.08 37.9453 132.136 38.356C132.192 38.748 132.239 39.1213 132.276 39.476C132.332 39.8307 132.379 40.0733 132.416 40.204C132.416 40.7453 132.435 41.3053 132.472 41.884C132.528 42.4627 132.603 43.06 132.696 43.676C132.733 43.9 132.761 44.1053 132.78 44.292C132.799 44.4787 132.808 44.656 132.808 44.824C132.808 44.9733 132.799 45.1133 132.78 45.244C132.761 45.3747 132.733 45.4867 132.696 45.58ZM146.554 44.88C145.956 45.4773 145.284 45.9813 144.538 46.392C143.791 46.8213 143.035 47.036 142.27 47.036C141.579 47.036 140.692 46.924 139.61 46.7C139.236 46.4573 138.863 46.168 138.49 45.832C138.116 45.4773 137.78 45.0947 137.482 44.684C137.183 44.2547 136.94 43.7973 136.754 43.312C136.567 42.808 136.474 42.2947 136.474 41.772C136.474 41.6227 136.483 41.4267 136.502 41.184C136.52 40.9227 136.539 40.6707 136.558 40.428C136.595 40.1667 136.623 39.9427 136.642 39.756C136.66 39.5693 136.67 39.476 136.67 39.476C137.043 38.8787 137.435 38.2907 137.846 37.712C138.275 37.1147 138.872 36.592 139.638 36.144C140.851 35.8827 141.728 35.752 142.27 35.752C142.55 35.752 142.792 35.7707 142.998 35.808C143.203 35.8267 143.399 35.8827 143.586 35.976C143.791 36.0507 143.987 36.172 144.174 36.34C144.379 36.508 144.612 36.7227 144.874 36.984C145.172 37.3013 145.406 37.516 145.574 37.628C145.76 37.74 145.854 37.8427 145.854 37.936C145.854 39.6533 145.322 40.82 144.258 41.436C143.791 41.604 143.184 41.7907 142.438 41.996C141.691 42.1827 140.674 42.36 139.386 42.528C139.647 43.2373 139.992 43.7693 140.422 44.124C140.851 44.4787 141.336 44.656 141.878 44.656C142.68 44.656 143.688 44.18 144.902 43.228C145.088 43.06 145.322 42.976 145.602 42.976C145.9 42.976 146.162 43.088 146.386 43.312C146.628 43.536 146.75 43.816 146.75 44.152C146.75 44.3947 146.684 44.6373 146.554 44.88ZM143.39 38.888C143.035 38.3093 142.615 38.02 142.13 38.02C141.924 38.02 141.7 38.048 141.458 38.104C141.215 38.16 140.963 38.244 140.702 38.356C140.459 38.4493 140.226 38.5707 140.002 38.72C139.796 38.8693 139.628 39.0467 139.498 39.252L139.218 40.092C139.852 40.036 140.412 39.9893 140.898 39.952C141.383 39.9147 141.803 39.8587 142.158 39.784C142.512 39.7093 142.792 39.6067 142.998 39.476C143.203 39.3453 143.334 39.1493 143.39 38.888ZM159.337 42.892V43.116C159.337 43.228 159.337 43.4333 159.337 43.732C159.355 44.012 159.327 44.3013 159.253 44.6C159.197 44.8987 159.075 45.1693 158.889 45.412C158.702 45.636 158.422 45.748 158.049 45.748C157.321 45.748 156.891 45.4587 156.761 44.88C156.779 44.768 156.789 44.6467 156.789 44.516C156.789 44.3667 156.789 44.208 156.789 44.04C156.789 43.9653 156.789 43.6947 156.789 43.228C156.789 42.7427 156.77 42.22 156.733 41.66C156.714 41.1 156.658 40.5773 156.565 40.092C156.471 39.588 156.331 39.2707 156.145 39.14C155.715 38.8413 155.333 38.692 154.997 38.692C154.549 38.692 154.166 38.832 153.849 39.112C153.55 39.3733 153.298 39.896 153.093 40.68C153.074 40.9413 153.055 41.24 153.037 41.576C153.018 41.8933 152.99 42.2573 152.953 42.668C152.953 42.9853 152.962 43.34 152.981 43.732C152.999 44.1053 153.027 44.5347 153.065 45.02C153.065 45.3747 152.925 45.6733 152.645 45.916C152.365 46.14 152.047 46.252 151.693 46.252C151.413 46.252 151.189 46.1773 151.021 46.028C150.853 45.8787 150.722 45.6827 150.629 45.44C150.554 45.1973 150.498 44.936 150.461 44.656C150.442 44.376 150.433 44.096 150.433 43.816C150.433 43.6107 150.442 43.4053 150.461 43.2C150.479 42.976 150.507 42.752 150.545 42.528L150.769 39.84L150.993 38.496C150.955 38.272 150.881 38.0293 150.769 37.768C150.657 37.5067 150.601 37.3013 150.601 37.152C150.601 36.8347 150.722 36.5453 150.965 36.284C151.226 36.0227 151.543 35.892 151.917 35.892C152.178 35.892 152.374 35.948 152.505 36.06C152.635 36.1533 152.85 36.396 153.149 36.788C153.522 36.62 153.821 36.5173 154.045 36.48C154.269 36.424 154.53 36.396 154.829 36.396C155.799 36.396 156.649 36.6293 157.377 37.096C158.123 37.544 158.59 38.3 158.777 39.364C158.833 39.756 158.879 40.0827 158.917 40.344C158.973 40.6053 159.019 40.8573 159.057 41.1C159.094 41.3427 159.131 41.604 159.169 41.884C159.206 42.1453 159.262 42.4813 159.337 42.892ZM170.386 35.444C170.592 35.612 170.694 35.92 170.694 36.368C170.694 37.1893 170.386 37.6 169.77 37.6H169.658C169.378 37.6187 169.052 37.6467 168.678 37.684C168.305 37.7027 167.885 37.74 167.418 37.796C167.381 38.0947 167.344 38.496 167.306 39C167.269 39.4853 167.25 40.0733 167.25 40.764C167.25 40.82 167.25 40.876 167.25 40.932C167.269 40.988 167.278 41.0533 167.278 41.128V42.416C167.278 42.7147 167.325 42.9573 167.418 43.144C167.53 43.312 167.661 43.4333 167.81 43.508L168.594 43.76C169.21 43.9653 169.518 44.3387 169.518 44.88C169.518 45.1973 169.388 45.4773 169.126 45.72C168.884 45.9627 168.566 46.084 168.174 46.084C168.062 46.084 167.866 46.056 167.586 46C167.325 45.9253 167.045 45.832 166.746 45.72C166.466 45.608 166.196 45.468 165.934 45.3C165.692 45.132 165.524 44.9453 165.43 44.74C165.225 44.3107 165.057 43.8627 164.926 43.396C164.796 42.9107 164.73 42.4067 164.73 41.884C164.73 41.3053 164.74 40.8947 164.758 40.652C164.777 40.4093 164.796 40.1947 164.814 40.008C164.833 39.8213 164.852 39.5973 164.87 39.336C164.889 39.0747 164.898 38.6453 164.898 38.048C164.544 38.0853 164.021 38.1973 163.33 38.384C162.92 38.384 162.565 38.2813 162.266 38.076C161.986 37.852 161.846 37.5627 161.846 37.208C161.846 36.9467 161.921 36.704 162.07 36.48C162.238 36.256 162.574 36.06 163.078 35.892C163.246 35.836 163.396 35.7987 163.526 35.78C163.676 35.7613 163.816 35.7427 163.946 35.724C164.096 35.7053 164.254 35.696 164.422 35.696C164.59 35.6773 164.796 35.6493 165.038 35.612C165.057 35.1453 165.085 34.6227 165.122 34.044C165.178 33.4467 165.262 32.896 165.374 32.392C165.505 31.888 165.682 31.468 165.906 31.132C166.149 30.7773 166.466 30.6 166.858 30.6C167.53 30.6 167.941 30.908 168.09 31.524C168.09 31.5427 168.062 31.6733 168.006 31.916C167.969 32.14 167.922 32.392 167.866 32.672C167.81 32.952 167.754 33.2227 167.698 33.484C167.661 33.7453 167.642 33.9133 167.642 33.988L167.558 35.36C167.689 35.3413 167.81 35.332 167.922 35.332C168.034 35.3133 168.156 35.304 168.286 35.304H168.538C168.669 35.304 168.79 35.304 168.902 35.304C169.014 35.2853 169.117 35.276 169.21 35.276C169.77 35.276 170.162 35.332 170.386 35.444ZM180.345 45.3C180.103 45.468 179.711 45.636 179.169 45.804C178.628 45.9533 178.068 46.084 177.489 46.196L176.341 45.972C176.173 45.916 175.893 45.7853 175.501 45.58C175.128 45.3747 174.745 45.0667 174.353 44.656C173.961 44.2267 173.616 43.6853 173.317 43.032C173.019 42.36 172.869 41.548 172.869 40.596C172.869 40.26 172.944 39.868 173.093 39.42C173.261 38.9533 173.504 38.524 173.821 38.132C174.139 37.7213 174.531 37.376 174.997 37.096C175.483 36.816 176.043 36.676 176.677 36.676C177.947 36.676 179.095 37.0867 180.121 37.908C181.017 39.14 181.465 40.5027 181.465 41.996C181.465 43.0973 181.092 44.1987 180.345 45.3ZM178.973 41.324C178.88 40.596 178.647 40.0267 178.273 39.616C177.919 39.1867 177.461 38.972 176.901 38.972C176.528 38.972 176.173 39.1587 175.837 39.532C175.52 39.8867 175.361 40.4093 175.361 41.1C175.361 41.38 175.399 41.6787 175.473 41.996C175.548 42.2947 175.669 42.5747 175.837 42.836C176.005 43.0787 176.22 43.284 176.481 43.452C176.743 43.6013 177.06 43.676 177.433 43.676C178.031 43.676 178.441 43.4987 178.665 43.144C178.889 42.7707 179.001 42.3133 179.001 41.772C179.001 41.6973 178.992 41.632 178.973 41.576C178.973 41.5013 178.973 41.4173 178.973 41.324ZM192.578 36.48C192.877 36.6667 193.026 37.0213 193.026 37.544C193.026 37.936 192.923 38.272 192.718 38.552C192.513 38.832 192.233 38.972 191.878 38.972C191.654 38.972 191.421 38.916 191.178 38.804C190.954 38.6733 190.711 38.608 190.45 38.608C190.226 38.608 190.002 38.6547 189.778 38.748C189.573 38.8227 189.33 39 189.05 39.28L188.21 40.12C188.21 40.2507 188.21 40.3813 188.21 40.512C188.229 40.6427 188.238 40.7827 188.238 40.932C188.238 41.156 188.229 41.3893 188.21 41.632C188.21 41.8747 188.201 42.136 188.182 42.416L188.434 44.964C188.378 45.8227 187.939 46.252 187.118 46.252C186.689 46.252 186.371 46.1213 186.166 45.86C185.961 45.58 185.821 45.1973 185.746 44.712C185.671 44.2267 185.634 43.6573 185.634 43.004C185.653 42.3507 185.653 41.632 185.634 40.848C185.597 39.672 185.569 39.084 185.55 39.084V39.112C185.475 38.832 185.419 38.5893 185.382 38.384C185.345 38.16 185.326 37.964 185.326 37.796C185.326 37.46 185.447 37.1893 185.69 36.984C185.933 36.76 186.287 36.648 186.754 36.648C187.053 36.648 187.407 36.8813 187.818 37.348C188.247 37.012 188.574 36.76 188.798 36.592C189.041 36.424 189.237 36.3027 189.386 36.228C189.554 36.1533 189.713 36.116 189.862 36.116C190.011 36.0973 190.207 36.088 190.45 36.088C190.655 36.0693 190.842 36.0787 191.01 36.116C191.197 36.1533 191.393 36.1907 191.598 36.228L192.578 36.48ZM200.189 32.812C200.227 32.9613 200.245 33.1013 200.245 33.232C200.245 33.8293 200.068 34.3333 199.713 34.744C199.153 34.968 198.593 35.08 198.033 35.08C197.679 34.856 197.38 34.604 197.137 34.324C196.913 34.0253 196.801 33.736 196.801 33.456C196.801 33.2133 197.081 32.616 197.641 31.664C197.884 31.7013 198.136 31.7293 198.397 31.748C198.677 31.7667 198.929 31.8133 199.153 31.888C199.396 31.9627 199.601 32.0747 199.769 32.224C199.956 32.3547 200.096 32.5507 200.189 32.812ZM199.293 37.488V37.852C199.293 37.9453 199.293 38.048 199.293 38.16C199.293 38.272 199.275 38.3747 199.237 38.468L199.013 39.728V39.98C199.013 40.092 199.004 40.2413 198.985 40.428C198.967 40.6147 198.939 40.8013 198.901 40.988C198.883 41.1747 198.864 41.352 198.845 41.52C198.827 41.688 198.817 41.828 198.817 41.94C198.817 42.0333 198.817 42.108 198.817 42.164C198.836 42.22 198.845 42.2947 198.845 42.388C198.845 42.556 198.827 42.7427 198.789 42.948C198.752 43.1347 198.733 43.3493 198.733 43.592C198.733 43.816 198.761 44.0493 198.817 44.292C198.612 45.132 198.183 45.552 197.529 45.552C196.615 45.552 196.157 44.6933 196.157 42.976C196.157 42.3973 196.185 41.828 196.241 41.268C196.297 40.6893 196.363 40.1573 196.437 39.672C196.512 39.1867 196.587 38.7667 196.661 38.412C196.755 38.0387 196.829 37.7493 196.885 37.544C197.165 37.1333 197.557 36.928 198.061 36.928C198.547 36.928 198.957 37.1147 199.293 37.488ZM213.45 42.892V43.116C213.45 43.228 213.45 43.4333 213.45 43.732C213.469 44.012 213.441 44.3013 213.366 44.6C213.31 44.8987 213.189 45.1693 213.002 45.412C212.815 45.636 212.535 45.748 212.162 45.748C211.434 45.748 211.005 45.4587 210.874 44.88C210.893 44.768 210.902 44.6467 210.902 44.516C210.902 44.3667 210.902 44.208 210.902 44.04C210.902 43.9653 210.902 43.6947 210.902 43.228C210.902 42.7427 210.883 42.22 210.846 41.66C210.827 41.1 210.771 40.5773 210.678 40.092C210.585 39.588 210.445 39.2707 210.258 39.14C209.829 38.8413 209.446 38.692 209.11 38.692C208.662 38.692 208.279 38.832 207.962 39.112C207.663 39.3733 207.411 39.896 207.206 40.68C207.187 40.9413 207.169 41.24 207.15 41.576C207.131 41.8933 207.103 42.2573 207.066 42.668C207.066 42.9853 207.075 43.34 207.094 43.732C207.113 44.1053 207.141 44.5347 207.178 45.02C207.178 45.3747 207.038 45.6733 206.758 45.916C206.478 46.14 206.161 46.252 205.806 46.252C205.526 46.252 205.302 46.1773 205.134 46.028C204.966 45.8787 204.835 45.6827 204.742 45.44C204.667 45.1973 204.611 44.936 204.574 44.656C204.555 44.376 204.546 44.096 204.546 43.816C204.546 43.6107 204.555 43.4053 204.574 43.2C204.593 42.976 204.621 42.752 204.658 42.528L204.882 39.84L205.106 38.496C205.069 38.272 204.994 38.0293 204.882 37.768C204.77 37.5067 204.714 37.3013 204.714 37.152C204.714 36.8347 204.835 36.5453 205.078 36.284C205.339 36.0227 205.657 35.892 206.03 35.892C206.291 35.892 206.487 35.948 206.618 36.06C206.749 36.1533 206.963 36.396 207.262 36.788C207.635 36.62 207.934 36.5173 208.158 36.48C208.382 36.424 208.643 36.396 208.942 36.396C209.913 36.396 210.762 36.6293 211.49 37.096C212.237 37.544 212.703 38.3 212.89 39.364C212.946 39.756 212.993 40.0827 213.03 40.344C213.086 40.6053 213.133 40.8573 213.17 41.1C213.207 41.3427 213.245 41.604 213.282 41.884C213.319 42.1453 213.375 42.4813 213.45 42.892ZM227.552 36.704C227.608 36.9653 227.636 37.292 227.636 37.684C227.636 38.0013 227.617 38.3747 227.58 38.804C227.542 39.2147 227.486 39.672 227.412 40.176C227.43 40.232 227.44 40.2973 227.44 40.372C227.44 40.4467 227.44 40.5307 227.44 40.624C227.44 40.8293 227.421 41.072 227.384 41.352C227.365 41.6133 227.337 41.9213 227.3 42.276C227.318 42.3693 227.328 42.4627 227.328 42.556C227.328 42.6493 227.328 42.7613 227.328 42.892C227.328 43.3213 227.3 43.8533 227.244 44.488C227.188 45.1227 227.113 45.8787 227.02 46.756C226.758 48.9213 225.872 50.4987 224.36 51.488C223.818 51.6933 223.277 51.8427 222.736 51.936C222.213 52.048 221.681 52.104 221.14 52.104C220.43 52.104 219.32 51.796 217.808 51.18L216.408 50.004C216.128 49.78 215.932 49.6027 215.82 49.472C215.726 49.3413 215.68 49.1827 215.68 48.996C215.68 48.604 215.792 48.2587 216.016 47.96C216.24 47.68 216.538 47.54 216.912 47.54C217.154 47.54 217.425 47.6147 217.724 47.764L219.124 48.94C219.796 49.388 220.552 49.6213 221.392 49.64C221.485 49.6587 221.606 49.64 221.756 49.584C221.905 49.5467 222.082 49.5 222.288 49.444L223.212 49.192C223.884 48.7627 224.322 47.9693 224.528 46.812C224.546 46.644 224.565 46.4387 224.584 46.196C224.621 45.748 224.677 45.1133 224.752 44.292C224.677 44.3293 224.509 44.404 224.248 44.516C223.986 44.6093 223.66 44.7213 223.268 44.852C222.894 44.964 222.456 45.0667 221.952 45.16C221.466 45.2533 220.953 45.3 220.412 45.3C220.318 45.3 220.216 45.2813 220.104 45.244C220.01 45.188 219.88 45.104 219.712 44.992C219.544 44.88 219.338 44.7307 219.096 44.544C218.872 44.3573 218.592 44.1147 218.256 43.816L217.584 42.556C217.416 42.2387 217.294 41.9213 217.22 41.604C217.164 41.268 217.136 40.9413 217.136 40.624C217.136 40.1013 217.332 39.5787 217.724 39.056C218.134 38.5147 218.638 38.0293 219.236 37.6C219.852 37.1707 220.514 36.8253 221.224 36.564C221.933 36.284 222.586 36.144 223.184 36.144C223.464 36.144 223.734 36.1627 223.996 36.2C224.276 36.2373 224.696 36.34 225.256 36.508L225.396 36.172C225.638 36.004 225.937 35.92 226.292 35.92C227.001 35.92 227.421 36.1813 227.552 36.704ZM224.892 39.056C224.705 38.9253 224.49 38.832 224.248 38.776C224.024 38.72 223.8 38.664 223.576 38.608C223.333 38.6453 223.053 38.7013 222.736 38.776C222.418 38.832 222.064 38.9067 221.672 39C220.44 39.7093 219.824 40.3533 219.824 40.932C219.824 41.2493 219.936 41.5667 220.16 41.884C220.384 42.1827 220.701 42.4907 221.112 42.808C221.392 42.7893 221.69 42.7613 222.008 42.724C222.325 42.668 222.642 42.584 222.96 42.472C223.277 42.36 223.585 42.2013 223.884 41.996C224.182 41.772 224.472 41.4733 224.752 41.1C224.789 40.7827 224.817 40.484 224.836 40.204C224.873 39.924 224.892 39.6533 224.892 39.392V39.056ZM255.883 37.404C255.864 38.0947 255.78 38.7013 255.631 39.224C255.5 39.728 255.295 40.232 255.015 40.736C254.735 41.24 254.38 41.7907 253.951 42.388C253.522 42.9667 252.999 43.6573 252.383 44.46C252.29 44.4973 252.103 44.6187 251.823 44.824C251.543 45.0293 251.226 45.244 250.871 45.468C250.535 45.692 250.19 45.8973 249.835 46.084C249.499 46.2893 249.238 46.4013 249.051 46.42C248.64 46.4573 248.239 46.532 247.847 46.644C247.455 46.7747 247.072 46.9333 246.699 47.12C245.598 47.12 244.982 46.728 244.851 45.944C244.851 45.8507 244.851 45.7387 244.851 45.608C244.87 45.4773 244.879 45.3373 244.879 45.188C244.879 44.2547 244.786 43.1627 244.599 41.912C244.431 40.6613 244.347 39.336 244.347 37.936C244.347 36.6293 244.487 34.8373 244.767 32.56C244.916 32.2053 245.131 31.944 245.411 31.776C245.691 31.608 246.018 31.524 246.391 31.524C246.708 31.524 247.016 31.5987 247.315 31.748C248.211 31.4493 249.079 31.3 249.919 31.3C250.442 31.3 250.974 31.3747 251.515 31.524C252.056 31.6733 252.551 31.8693 252.999 32.112C253.466 32.3547 253.876 32.6253 254.231 32.924C254.586 33.2227 254.847 33.512 255.015 33.792C255.594 35.4533 255.883 36.6573 255.883 37.404ZM253.279 36.76C253.242 36.424 253.186 36.1347 253.111 35.892C253.055 35.6493 252.943 35.4253 252.775 35.22C252.607 35.0147 252.374 34.8187 252.075 34.632C251.776 34.4453 251.394 34.24 250.927 34.016C250.722 33.9227 250.516 33.8573 250.311 33.82C250.106 33.764 249.872 33.736 249.611 33.736C249.424 33.736 249.191 33.764 248.911 33.82C248.65 33.8573 248.388 33.8947 248.127 33.932C247.81 33.988 247.492 34.044 247.175 34.1C246.951 34.8653 246.839 36.34 246.839 38.524C246.839 38.748 246.867 39.2053 246.923 39.896C246.979 40.568 247.072 41.492 247.203 42.668C247.259 43.2653 247.343 43.8067 247.455 44.292C247.791 44.1987 248.612 43.7787 249.919 43.032C250.087 42.9387 250.358 42.7333 250.731 42.416C251.104 42.08 251.478 41.66 251.851 41.156C252.243 40.6333 252.579 40.036 252.859 39.364C253.139 38.6733 253.279 37.9267 253.279 37.124V36.76ZM269.526 42.696C269.862 42.92 270.03 43.1907 270.03 43.508C270.03 43.676 269.984 43.8533 269.89 44.04C269.797 44.208 269.676 44.3667 269.526 44.516C269.377 44.6467 269.218 44.7587 269.05 44.852C268.882 44.9453 268.714 44.992 268.546 44.992C268.397 44.936 268.22 44.8427 268.014 44.712C267.809 44.5627 267.604 44.404 267.398 44.236C267.193 44.0493 266.997 43.844 266.81 43.62C266.642 43.396 266.512 43.172 266.418 42.948L266.222 43.424C265.868 44.096 265.308 44.7307 264.542 45.328C263.609 45.496 263.068 45.58 262.918 45.58C262.564 45.58 262.134 45.524 261.63 45.412L260.09 44.32C259.418 43.6853 259.082 42.8173 259.082 41.716C259.082 41.324 259.138 40.8947 259.25 40.428C259.381 39.9427 259.558 39.4573 259.782 38.972C260.025 38.4867 260.314 38.0107 260.65 37.544C260.986 37.0773 261.378 36.6573 261.826 36.284C262.368 36.0787 262.89 35.9107 263.394 35.78C263.898 35.6307 264.281 35.5373 264.542 35.5C264.897 35.108 265.317 34.912 265.802 34.912C266.082 34.912 266.325 35.052 266.53 35.332C266.754 35.5933 266.941 35.9293 267.09 36.34C267.258 36.7507 267.389 37.208 267.482 37.712C267.576 38.1973 267.641 38.664 267.678 39.112L268.042 40.596C268.154 41.0627 268.332 41.464 268.574 41.8C268.836 42.136 269.153 42.4347 269.526 42.696ZM265.27 39.588C265.233 39.5693 265.093 38.9813 264.85 37.824C264.757 37.824 264.617 37.824 264.43 37.824C264.244 37.824 264.02 37.88 263.758 37.992C263.516 38.0853 263.245 38.2627 262.946 38.524C262.666 38.7667 262.396 39.14 262.134 39.644C261.742 40.372 261.546 41.1 261.546 41.828C261.864 42.444 262.358 42.9293 263.03 43.284C263.236 43.228 263.404 43.1627 263.534 43.088C263.684 43.0133 263.814 42.9107 263.926 42.78C264.038 42.6493 264.141 42.4907 264.234 42.304C264.346 42.0987 264.468 41.8467 264.598 41.548C264.841 41.1187 265.009 40.7453 265.102 40.428C265.214 40.092 265.27 39.812 265.27 39.588ZM282.457 37.768C282.439 38.1787 282.42 38.468 282.401 38.636C282.383 38.804 282.327 38.9907 282.233 39.196C282.159 39.3827 282.028 39.6627 281.841 40.036C281.655 40.4093 281.393 41.0067 281.057 41.828C280.908 42.7053 280.535 43.5733 279.937 44.432C279.639 45.3467 279.303 46 278.929 46.392C278.873 46.56 278.743 46.8213 278.537 47.176C278.332 47.5307 278.108 47.904 277.865 48.296C277.641 48.7067 277.417 49.0987 277.193 49.472C276.988 49.864 276.839 50.1627 276.745 50.368C276.708 50.4613 276.624 50.62 276.493 50.844C276.363 51.0867 276.204 51.3293 276.017 51.572C275.849 51.8147 275.644 52.0293 275.401 52.216C275.177 52.4213 274.953 52.524 274.729 52.524C274.393 52.524 274.076 52.412 273.777 52.188C273.497 51.9827 273.357 51.7307 273.357 51.432C273.357 51.2827 273.423 51.0867 273.553 50.844C273.684 50.62 273.843 50.368 274.029 50.088C274.216 49.8267 274.412 49.5467 274.617 49.248C274.823 48.968 275 48.7067 275.149 48.464C275.205 48.3147 275.308 48.0907 275.457 47.792C275.607 47.4933 275.765 47.176 275.933 46.84C276.12 46.5227 276.288 46.2147 276.437 45.916C276.605 45.5987 276.717 45.356 276.773 45.188C276.717 45.1507 276.615 45.0573 276.465 44.908C276.316 44.74 276.148 44.572 275.961 44.404C275.793 44.2173 275.616 44.04 275.429 43.872C275.243 43.704 275.075 43.5827 274.925 43.508C274.72 43.2093 274.543 42.976 274.393 42.808C274.244 42.64 274.104 42.5 273.973 42.388C273.861 42.276 273.74 42.164 273.609 42.052C273.479 41.94 273.329 41.7813 273.161 41.576C273.012 41.3707 272.816 41.1 272.573 40.764C272.349 40.428 272.079 39.98 271.761 39.42C271.743 39.364 271.733 39.28 271.733 39.168C271.733 38.7947 271.864 38.4587 272.125 38.16C272.405 37.8613 272.695 37.712 272.993 37.712C273.199 37.712 273.432 37.8147 273.693 38.02C273.955 38.2067 274.253 38.552 274.589 39.056C274.944 39.616 275.215 40.0267 275.401 40.288C275.607 40.5493 275.775 40.764 275.905 40.932C276.055 41.0813 276.204 41.2307 276.353 41.38C276.521 41.5107 276.755 41.7347 277.053 42.052C277.277 42.164 277.576 42.4347 277.949 42.864L278.957 40.148C279.163 39.6627 279.368 39.168 279.573 38.664C279.797 38.1413 279.947 37.6467 280.021 37.18C280.432 36.9 280.843 36.76 281.253 36.76C281.944 36.76 282.345 37.096 282.457 37.768Z" fill="#5A69AF"/>
</svg>
